<svg width="24" height="24" viewBox="0 0 24 24" fill="none" xmlns="http://www.w3.org/2000/svg">
<path d="M8.94017 4.74643L10.3282 5.1865V7.78292C10.3282 7.95094 10.4322 8.09897 10.5842 8.15898C12.0963 8.72707 13.6844 9.01511 15.2685 9.01511C16.8565 9.01511 18.4406 8.72707 19.9527 8.15898C20.1087 8.09897 20.2087 7.95094 20.2087 7.78292V5.1865L21.0767 4.91046V10.6914C21.0767 10.9114 21.2567 11.0914 21.4767 11.0914C21.6968 11.0914 21.8768 10.9114 21.8768 10.6914V4.36237C21.8768 4.35037 21.8688 4.33837 21.8688 4.32637C21.8648 4.29036 21.8608 4.25836 21.8488 4.22635C21.8408 4.21035 21.8328 4.19435 21.8248 4.17834C21.8088 4.15034 21.7928 4.12634 21.7728 4.10233C21.7608 4.09033 21.7528 4.08233 21.7408 4.07033C21.7128 4.04632 21.6847 4.02632 21.6487 4.01032C21.6407 4.00632 21.6287 3.99832 21.6207 3.99432C21.6127 3.99032 21.6047 3.98631 21.5967 3.98231L15.3885 2.018C15.3125 1.994 15.2285 1.994 15.1485 2.018L8.94017 3.98231C8.77216 4.03432 8.66016 4.19035 8.66016 4.36637C8.66016 4.5384 8.77216 4.69443 8.94017 4.74643V4.74643Z" fill="white"/>
<path fill-rule="evenodd" clip-rule="evenodd" d="M15.1976 22.0006H3.40002C3.17601 22.0006 3 21.8206 3 21.6005V4.49381C3 4.27378 3.17601 4.09375 3.40002 4.09375H7.89222C7.87622 4.18176 7.86022 4.27378 7.86022 4.36579C7.86022 4.89388 8.20024 5.35395 8.70026 5.50997L9.5283 5.77002V7.78233C9.5283 8.27841 9.82831 8.71848 10.3043 8.90651C11.9044 9.51061 13.5765 9.81466 15.2686 9.81466C16.0926 9.81466 16.9086 9.74265 17.7167 9.59862V13.2101C17.3139 13.094 16.8883 13.0317 16.4482 13.0317C15.7677 13.0317 15.1219 13.1805 14.5416 13.4472H5.88813C5.66412 13.4472 5.48811 13.6273 5.48811 13.8473C5.48811 14.0713 5.66412 14.2474 5.88813 14.2474H13.3444C12.7814 14.7686 12.3497 15.4298 12.1049 16.1757H5.88813C5.66412 16.1757 5.48811 16.3557 5.48811 16.5757C5.48811 16.7958 5.66412 16.9758 5.88813 16.9758H11.9203C11.8922 17.1808 11.8777 17.3901 11.8777 17.6028C11.8777 18.0534 11.9429 18.4888 12.0644 18.9001H5.88813C5.66412 18.9001 5.48811 19.0801 5.48811 19.3002C5.48811 19.5242 5.66412 19.7002 5.88813 19.7002H12.3862C12.9599 20.8092 13.9743 21.6533 15.1976 22.0006ZM8.85627 7.99437H5.88813C5.66412 7.99437 5.48811 8.1744 5.48811 8.39443C5.48811 8.61447 5.66412 8.79449 5.88813 8.79449H8.85627C9.07628 8.79449 9.25629 8.61447 9.25629 8.39443C9.25629 8.1744 9.07628 7.99437 8.85627 7.99437ZM14.8325 10.7228H5.88813C5.66412 10.7228 5.48811 10.9028 5.48811 11.1229C5.48811 11.3429 5.66412 11.5229 5.88813 11.5229H14.8325C15.0525 11.5229 15.2326 11.3429 15.2326 11.1229C15.2326 10.9028 15.0525 10.7228 14.8325 10.7228Z" fill="white"/>
<path d="M16.2834 13.7344C14.1864 13.7344 12.4863 15.4346 12.4863 17.5319C12.4863 19.6291 14.1864 21.3293 16.2834 21.3293C18.3804 21.3293 20.0804 19.6291 20.0804 17.5319C20.0804 15.4346 18.3804 13.7344 16.2834 13.7344ZM16.6938 19.7C16.1428 19.7 15.6388 19.2732 15.5461 18.7284C15.4961 18.3311 15.5243 17.9327 15.5171 17.5359C15.4498 17.5341 15.2589 17.5378 15.1947 17.5359C15.1087 17.5352 15.0264 17.5009 14.9654 17.4402C14.9044 17.3796 14.8695 17.2975 14.8684 17.2114C14.8929 16.8258 15.2315 16.8771 15.5163 16.8786C15.5163 16.6274 15.5174 16.3721 15.5154 16.1182C15.515 16.0956 15.5068 16.0738 15.4921 16.0565C15.4775 16.0392 15.4574 16.0275 15.4351 16.0234C15.3573 16.0112 15.3122 16.06 15.3085 16.144C15.2936 16.3232 15.1554 16.4533 14.9793 16.4533C14.9362 16.4531 14.8934 16.4444 14.8536 16.4276C14.8138 16.4109 14.7777 16.3865 14.7474 16.3558C14.7171 16.325 14.6931 16.2886 14.6768 16.2486C14.6606 16.2086 14.6524 16.1658 14.6527 16.1226C14.6522 15.9293 14.7258 15.7431 14.8583 15.6024C14.9909 15.4616 15.1724 15.3771 15.3654 15.3661C15.7681 15.3391 16.1324 15.6431 16.1663 16.0356C16.1861 16.3193 16.1726 16.5963 16.176 16.8789H16.6358C16.7693 16.8844 16.8862 16.8654 17.0214 16.8937C17.1794 16.9366 17.2765 17.0905 17.2525 17.2598C17.1985 17.5489 16.9452 17.5464 16.7061 17.5372C16.5874 17.5362 16.2908 17.5372 16.1761 17.5372C16.1761 17.8487 16.1761 18.1602 16.1761 18.4717C16.1647 19.0142 16.8618 19.2645 17.1647 18.8003C16.8896 18.7122 16.7283 18.4071 16.8213 18.1271C17.0174 17.5271 17.9161 17.672 17.9059 18.3068C17.9867 19.0375 17.4569 19.704 16.6938 19.7V19.7Z" fill="white"/>
</svg>
