<svg width="24" height="24" viewBox="0 0 24 24" fill="none" xmlns="http://www.w3.org/2000/svg">
<path d="M17.2164 5.41492C17.2164 4.9457 17.0333 4.50398 16.7014 4.17211L15.0443 2.515C14.7171 2.1877 14.2525 2 13.7902 2H13.6895V5.51562H17.2165L17.2164 5.41492Z" fill="#62D68F"/>
<path d="M12.7006 14.0913C12.8127 13.7508 13.0084 13.4338 13.2636 13.1769L17.2309 9.22562V6.6875H13.1137C12.7898 6.6875 12.5468 6.42543 12.5468 6.10156V2H3.7578C2.78851 2 2 2.78852 2 3.75781V20.2422C2 21.2115 2.78851 22 3.7578 22H15.4574C16.4267 22 17.2309 21.2115 17.2309 20.2422V15.8691L16.587 16.4974C16.3261 16.756 16.0205 16.9443 15.676 17.0593L13.813 17.6813L13.5291 17.6968C13.0599 17.6968 12.6159 17.4684 12.3401 17.0862C12.0666 16.7057 11.9922 16.2125 12.141 15.7667L12.7006 14.0913ZM4.92966 12.5469H10.77C11.0938 12.5469 11.3559 12.8089 11.3559 13.1328C11.3559 13.4567 11.0938 13.7188 10.77 13.7188H4.92966C4.6058 13.7188 4.34373 13.4567 4.34373 13.1328C4.34373 12.8089 4.6058 12.5469 4.92966 12.5469ZM4.34373 10.7891C4.34373 10.4652 4.6058 10.2031 4.92966 10.2031H10.77C11.0938 10.2031 11.3559 10.4652 11.3559 10.7891C11.3559 11.1129 11.0938 11.375 10.77 11.375H4.92966C4.6058 11.375 4.34373 11.1129 4.34373 10.7891ZM4.34373 15.4766C4.34373 15.1527 4.6058 14.8906 4.92966 14.8906H10.77C11.0938 14.8906 11.3559 15.1527 11.3559 15.4766C11.3559 15.8004 11.0938 16.0625 10.77 16.0625H4.92966C4.6058 16.0625 4.34373 15.8004 4.34373 15.4766ZM13.1137 18.4062C13.4376 18.4062 13.6996 18.6683 13.6996 18.9922C13.6996 19.3161 13.4376 19.5781 13.1137 19.5781H9.5981C9.27424 19.5781 9.01217 19.3161 9.01217 18.9922C9.01217 18.6683 9.27424 18.4062 9.5981 18.4062H13.1137ZM4.92966 9.03125C4.6058 9.03125 4.34373 8.76918 4.34373 8.44531C4.34373 8.12145 4.6058 7.85938 4.92966 7.85938H13.1137C13.4376 7.85938 13.6996 8.12145 13.6996 8.44531C13.6996 8.76918 13.4376 9.03125 13.1137 9.03125H4.92966Z" fill="#62D68F"/>
<path d="M13.7636 14.6094L13.2538 16.1387C13.1774 16.3678 13.3954 16.5857 13.6245 16.5092L15.153 15.9987L13.7636 14.6094Z" fill="#62D68F"/>
<path d="M18.312 9.78516L14.4531 13.6441L16.1174 15.3084C16.9895 14.436 18.6866 12.7387 19.9761 11.4492L18.312 9.78516Z" fill="#62D68F"/>
<path d="M21.6549 8.10293C21.4489 7.89578 21.1456 7.77734 20.824 7.77734C20.5025 7.77734 20.1992 7.89578 19.9921 8.10352L19.1406 8.95496L20.8046 10.6189C21.2707 10.1528 21.5929 9.83059 21.6561 9.76742C22.1138 9.30902 22.1138 8.56238 21.6549 8.10293Z" fill="#62D68F"/>
<path d="M21.6562 9.76941C21.6563 9.76941 21.6563 9.76936 21.6563 9.76932C21.658 9.76769 21.6587 9.76696 21.66 9.76562C21.6587 9.767 21.658 9.76773 21.6562 9.76941Z" fill="#62D68F"/>
<path d="M21.6582 9.76353C21.6603 9.76146 21.6627 9.75906 21.6639 9.75781C21.6626 9.7591 21.6603 9.76146 21.6582 9.76353Z" fill="#62D68F"/>
<path d="M21.666 9.75706C21.6702 9.7529 21.6703 9.75281 21.666 9.75706V9.75706Z" fill="#62D68F"/>
</svg>
