<svg width="24" height="24" viewBox="0 0 24 24" fill="none" xmlns="http://www.w3.org/2000/svg">
<path d="M19.7013 15.0742H4.4632C2.55359 15.0742 1 16.6278 1 18.5374C1 20.447 2.55359 22.0006 4.4632 22.0006H19.7013C21.6109 22.0006 23.1645 20.447 23.1645 18.5374C23.1645 16.6278 21.6109 15.0742 19.7013 15.0742ZM5.58874 19.6197C4.99104 19.6197 4.50649 19.1351 4.50649 18.5374C4.50649 17.9397 4.99104 17.4552 5.58874 17.4552C6.18645 17.4552 6.671 17.9397 6.671 18.5374C6.671 19.1351 6.18645 19.6197 5.58874 19.6197ZM9.91775 19.6197C9.32004 19.6197 8.8355 19.1351 8.8355 18.5374C8.8355 17.9397 9.32004 17.4552 9.91775 17.4552C10.5155 17.4552 11 17.9397 11 18.5374C11 19.1351 10.5155 19.6197 9.91775 19.6197ZM14.2468 19.6197C13.649 19.6197 13.1645 19.1351 13.1645 18.5374C13.1645 17.9397 13.649 17.4552 14.2468 17.4552C14.8445 17.4552 15.329 17.9397 15.329 18.5374C15.329 19.1351 14.8445 19.6197 14.2468 19.6197ZM18.5758 19.6197C17.9781 19.6197 17.4935 19.1351 17.4935 18.5374C17.4935 17.9397 17.9781 17.4552 18.5758 17.4552C19.1735 17.4552 19.658 17.9397 19.658 18.5374C19.658 19.1351 19.1735 19.6197 18.5758 19.6197Z" fill="#62D68F"/>
<path d="M16.1948 6.41558H15.329V5.24675C15.329 3.45649 13.8725 2 12.0822 2C10.292 2 8.83546 3.45649 8.83546 5.24675V6.41558H7.96966C7.61105 6.41558 7.32031 6.70632 7.32031 7.06494V12.2165C7.32031 12.5751 7.61105 12.8658 7.96966 12.8658H16.1948C16.5534 12.8658 16.8441 12.5751 16.8441 12.2165V7.06494C16.8441 6.70632 16.5534 6.41558 16.1948 6.41558ZM12.7316 9.84104V10.0952C12.7316 10.4539 12.4408 10.7446 12.0822 10.7446C11.7236 10.7446 11.4329 10.4539 11.4329 10.0952V9.84104C11.1808 9.75182 11 9.51203 11 9.22944C11 8.87082 11.2907 8.58009 11.6493 8.58009H12.5151C12.8737 8.58009 13.1645 8.87082 13.1645 9.22944C13.1645 9.51203 12.9836 9.75182 12.7316 9.84104ZM14.0303 6.41558H10.1342V5.24675C10.1342 4.1726 11.0081 3.2987 12.0822 3.2987C13.1564 3.2987 14.0303 4.1726 14.0303 5.24675V6.41558Z" fill="#62D68F"/>
</svg>
