<svg width="24" height="24" viewBox="0 0 24 24" fill="none" xmlns="http://www.w3.org/2000/svg">
<path d="M19.2201 2.00165H5.59017C5.16916 2.00404 4.76608 2.17232 4.46839 2.46998C4.17069 2.76764 4.00239 3.17067 4 3.59162V20.2908C3.99964 20.54 4.05783 20.7857 4.1699 21.0082C4.28196 21.2307 4.44476 21.4238 4.64515 21.5719C4.84209 21.7211 5.07178 21.8211 5.31514 21.8638C5.55851 21.9065 5.80855 21.8905 6.0445 21.8172C6.35706 21.7294 6.66116 21.6138 6.95316 21.4719C7.45118 21.1907 8.01716 21.0524 8.58876 21.0722C9.16022 21.0538 9.72582 21.192 10.2244 21.4719C10.9093 21.8346 11.6757 22.016 12.4506 21.9989C13.2255 22.016 13.9918 21.8346 14.6768 21.4719C15.1743 21.1894 15.7407 21.051 16.3124 21.0722C16.8839 21.0538 17.4495 21.192 17.948 21.4719C18.2414 21.6131 18.5452 21.7316 18.8567 21.8263C19.0944 21.8956 19.345 21.9085 19.5886 21.8638C19.8322 21.8192 20.062 21.7183 20.2597 21.5692C20.4574 21.42 20.6175 21.2268 20.7273 21.0049C20.8371 20.7829 20.8935 20.5384 20.8921 20.2908V3.59162C20.8911 3.37614 20.8465 3.16308 20.7611 2.96524C20.6757 2.76741 20.5512 2.58887 20.395 2.44037C20.2388 2.29186 20.0543 2.17645 19.8524 2.10106C19.6505 2.02567 19.4354 1.99186 19.2201 2.00165V2.00165Z" fill="#62D68F"/>
<path d="M16.4941 6.54252H10.5877C10.407 6.54252 10.2337 6.47072 10.1059 6.34293C9.97805 6.21514 9.90625 6.04182 9.90625 5.8611C9.90625 5.68038 9.97805 5.50706 10.1059 5.37927C10.2337 5.25148 10.407 5.17969 10.5877 5.17969H16.4941C16.6748 5.17969 16.8482 5.25148 16.976 5.37927C17.1038 5.50706 17.1756 5.68038 17.1756 5.8611C17.1756 6.04182 17.1038 6.21514 16.976 6.34293C16.8482 6.47072 16.6748 6.54252 16.4941 6.54252V6.54252Z" fill="white"/>
<path d="M16.4943 10.1792H8.31626C8.13552 10.1792 7.96218 10.1074 7.83437 9.97965C7.70657 9.85186 7.63477 9.67854 7.63477 9.49782C7.63477 9.3171 7.70657 9.14378 7.83437 9.01599C7.96218 8.8882 8.13552 8.81641 8.31626 8.81641H16.4943C16.675 8.81641 16.8483 8.8882 16.9761 9.01599C17.1039 9.14378 17.1758 9.3171 17.1758 9.49782C17.1758 9.67854 17.1039 9.85186 16.9761 9.97965C16.8483 10.1074 16.675 10.1792 16.4943 10.1792Z" fill="white"/>
<path d="M16.4943 17.4449H8.31626C8.13552 17.4449 7.96218 17.3731 7.83437 17.2453C7.70657 17.1175 7.63477 16.9442 7.63477 16.7634C7.63477 16.5827 7.70657 16.4094 7.83437 16.2816C7.96218 16.1538 8.13552 16.082 8.31626 16.082H16.4943C16.675 16.082 16.8483 16.1538 16.9761 16.2816C17.1039 16.4094 17.1758 16.5827 17.1758 16.7634C17.1758 16.9442 17.1039 17.1175 16.9761 17.2453C16.8483 17.3731 16.675 17.4449 16.4943 17.4449Z" fill="white"/>
<path d="M8.31626 6.54252C8.69265 6.54252 8.99776 6.23744 8.99776 5.8611C8.99776 5.48477 8.69265 5.17969 8.31626 5.17969C7.93988 5.17969 7.63477 5.48477 7.63477 5.8611C7.63477 6.23744 7.93988 6.54252 8.31626 6.54252Z" fill="white"/>
<path d="M16.4941 13.812H10.5877C10.407 13.812 10.2337 13.7403 10.1059 13.6125C9.97805 13.4847 9.90625 13.3114 9.90625 13.1306C9.90625 12.9499 9.97805 12.7766 10.1059 12.6488C10.2337 12.521 10.407 12.4492 10.5877 12.4492H16.4941C16.6748 12.4492 16.8482 12.521 16.976 12.6488C17.1038 12.7766 17.1756 12.9499 17.1756 13.1306C17.1756 13.3114 17.1038 13.4847 16.976 13.6125C16.8482 13.7403 16.6748 13.812 16.4941 13.812Z" fill="white"/>
<path d="M8.31626 13.812C8.69265 13.812 8.99776 13.507 8.99776 13.1306C8.99776 12.7543 8.69265 12.4492 8.31626 12.4492C7.93988 12.4492 7.63477 12.7543 7.63477 13.1306C7.63477 13.507 7.93988 13.812 8.31626 13.812Z" fill="white"/>
</svg>
