<svg width="24" height="24" viewBox="0 0 24 24" fill="none" xmlns="http://www.w3.org/2000/svg">
<path d="M9.99857 7.46782L12.0571 6.43854C12.2893 6.32277 12.5449 6.26168 12.8043 6.25997C12.9309 5.81063 13.0958 5.37297 13.2971 4.95176H3.0725C2.78832 4.95242 2.51596 5.06558 2.31498 5.26649C2.114 5.4674 2.00075 5.73972 2 6.0239V7.56782H9.56964C9.7185 7.56874 9.86547 7.53447 9.99857 7.46782ZM7.26107 6.61711H3.665C3.57023 6.61711 3.47935 6.57946 3.41234 6.51245C3.34532 6.44544 3.30768 6.35456 3.30768 6.25979C3.30768 6.16502 3.34532 6.07414 3.41234 6.00713C3.47935 5.94012 3.57023 5.90247 3.665 5.90247H7.26071C7.35548 5.90247 7.44637 5.94012 7.51338 6.00713C7.58039 6.07414 7.61804 6.16502 7.61804 6.25979C7.61804 6.35456 7.58039 6.44544 7.51338 6.51245C7.44637 6.57946 7.35548 6.61711 7.26071 6.61711H7.26107ZM21.2854 7.60354L17.7289 7.62854C17.6339 7.62854 17.5427 7.59103 17.4751 7.52415C17.4076 7.45728 17.3692 7.36644 17.3682 7.27139V3.00391C11.9196 3.63783 12.3075 11.3932 17.7254 11.56C18.805 11.5575 19.8443 11.1488 20.6363 10.4151C21.4284 9.68132 21.9152 8.67632 22 7.59996L21.2854 7.60354Z" fill="#62D68F"/>
<path d="M18.082 3V6.90999C18.6113 6.90713 21.537 6.8857 21.9956 6.88499C21.9041 5.88067 21.4616 4.94073 20.7459 4.23024C20.0302 3.51976 19.087 3.08417 18.082 3Z" fill="#62D68F"/>
<path d="M6.28874 15.5938H4.85945C4.66201 15.5938 4.50195 15.7538 4.50195 15.9512V20.4541C4.50195 20.6515 4.66201 20.8116 4.85945 20.8116H6.28874C6.48618 20.8116 6.64624 20.6515 6.64624 20.4541V15.9512C6.64624 15.7538 6.48618 15.5938 6.28874 15.5938Z" fill="#62D68F"/>
<path d="M9.14811 14.0938H7.71883C7.52139 14.0938 7.36133 14.2538 7.36133 14.4512V20.4552C7.36133 20.6526 7.52139 20.8127 7.71883 20.8127H9.14811C9.34556 20.8127 9.50561 20.6526 9.50561 20.4552V14.4512C9.50561 14.2538 9.34556 14.0938 9.14811 14.0938Z" fill="#62D68F"/>
<path d="M12.0075 12.5938H10.5782C10.3808 12.5938 10.2207 12.7538 10.2207 12.9512V20.4562C10.2207 20.6537 10.3808 20.8137 10.5782 20.8137H12.0075C12.2049 20.8137 12.365 20.6537 12.365 20.4562V12.9512C12.365 12.7538 12.2049 12.5938 12.0075 12.5938Z" fill="#62D68F"/>
<path d="M14.8669 15.5938H13.4376C13.2401 15.5938 13.0801 15.7538 13.0801 15.9512V20.4541C13.0801 20.6515 13.2401 20.8116 13.4376 20.8116H14.8669C15.0643 20.8116 15.2244 20.6515 15.2244 20.4541V15.9512C15.2244 15.7538 15.0643 15.5938 14.8669 15.5938Z" fill="#62D68F"/>
<path d="M12.7254 7.27125C12.7693 6.91304 12.6889 6.94268 12.3754 7.0784L10.3168 8.10768C10.4725 8.43625 2.24536 8.23018 2 8.28268V18.9834C2.00085 19.2675 2.11408 19.5397 2.31496 19.7405C2.51584 19.9414 2.78805 20.0547 3.07214 20.0555H3.78714V15.9527C3.78799 15.6686 3.90122 15.3964 4.1021 15.1955C4.30299 14.9946 4.5752 14.8814 4.85929 14.8805C5.15179 14.9034 6.39821 14.8209 6.64607 14.9448V14.4519C6.64673 14.1678 6.75989 13.8954 6.9608 13.6944C7.16171 13.4935 7.43403 13.3802 7.71821 13.3795C8.00179 13.4002 9.26357 13.3216 9.50536 13.4437V12.9509C9.50602 12.6667 9.61918 12.3943 9.82009 12.1934C10.021 11.9924 10.2933 11.8791 10.5775 11.8784H12.0071C12.2913 11.8791 12.5635 11.9923 12.7644 12.1932C12.9653 12.3941 13.0785 12.6664 13.0793 12.9505V14.9448C13.3214 14.823 14.59 14.9012 14.8664 14.8805C15.1505 14.8814 15.4227 14.9946 15.6236 15.1955C15.8245 15.3964 15.9377 15.6686 15.9386 15.9527V20.0555H19.3018C19.5859 20.0547 19.8581 19.9414 20.059 19.7405C20.2599 19.5397 20.3731 19.2675 20.3739 18.9834V11.5141C19.6171 11.9879 18.7471 12.2503 17.8545 12.274C16.9619 12.2976 16.0792 12.0817 15.2983 11.6486C14.5175 11.2155 13.8669 10.581 13.4143 9.81126C12.9618 9.04151 12.7237 8.16455 12.725 7.27161L12.7254 7.27125Z" fill="#62D68F"/>
</svg>
