<svg width="24" height="24" viewBox="0 0 24 24" fill="none" xmlns="http://www.w3.org/2000/svg">
<path d="M20.3762 8.37817L13.1361 2.41372C12.481 1.86209 11.5502 1.86209 10.8951 2.41372L3.65505 8.37817C3.24134 8.72293 3 9.2056 3 9.75723V20.9621C3 21.9275 3.79296 22.7204 4.7583 22.7204H19.2384C20.2038 22.7204 20.9967 21.9275 20.9967 20.9621V9.72275C21.0312 9.2056 20.7899 8.68846 20.3762 8.37817ZM17.9283 19.3072C17.9283 19.721 17.5836 20.0657 17.1698 20.0657H6.89585C6.48213 20.0657 6.13736 19.721 6.13736 19.3072V18.6177C6.13736 18.204 6.48213 17.8592 6.89585 17.8592H17.1698C17.5836 17.8592 17.9283 18.204 17.9283 18.6177V19.3072Z" fill="#62D68F"/>
</svg>
