<svg width="24" height="24" viewBox="0 0 24 24" fill="none" xmlns="http://www.w3.org/2000/svg">
<path d="M16.6938 6.07343C16.6938 5.65113 16.529 5.25359 16.2303 4.9549L14.7389 3.4635C14.4444 3.16893 14.0263 3 13.6102 3H13.5195V6.16406H16.6939L16.6938 6.07343Z" fill="#62D68F"/>
<path d="M12.6306 13.8822C12.7315 13.5757 12.9077 13.2904 13.1373 13.0592L16.7079 9.50306V7.21875H13.0024C12.7109 7.21875 12.4922 6.98289 12.4922 6.69141V3H4.58203C3.70966 3 3 3.70966 3 4.58203V19.418C3 20.2903 3.70966 21 4.58203 21H15.1118C15.9842 21 16.7079 20.2903 16.7079 19.418V15.4822L16.1284 16.0476C15.8936 16.2804 15.6186 16.4498 15.3085 16.5534L13.6318 17.1132L13.3763 17.1271C12.954 17.1271 12.5544 16.9216 12.3062 16.5776C12.06 16.2351 11.9931 15.7912 12.127 15.39L12.6306 13.8822ZM5.63672 12.4922H10.893C11.1845 12.4922 11.4204 12.7281 11.4204 13.0195C11.4204 13.311 11.1845 13.5469 10.893 13.5469H5.63672C5.34524 13.5469 5.10938 13.311 5.10938 13.0195C5.10938 12.7281 5.34524 12.4922 5.63672 12.4922ZM5.10938 10.9102C5.10938 10.6187 5.34524 10.3828 5.63672 10.3828H10.893C11.1845 10.3828 11.4204 10.6187 11.4204 10.9102C11.4204 11.2016 11.1845 11.4375 10.893 11.4375H5.63672C5.34524 11.4375 5.10938 11.2016 5.10938 10.9102ZM5.10938 15.1289C5.10938 14.8374 5.34524 14.6016 5.63672 14.6016H10.893C11.1845 14.6016 11.4204 14.8374 11.4204 15.1289C11.4204 15.4204 11.1845 15.6562 10.893 15.6562H5.63672C5.34524 15.6562 5.10938 15.4204 5.10938 15.1289ZM13.0024 17.7656C13.2939 17.7656 13.5298 18.0015 13.5298 18.293C13.5298 18.5844 13.2939 18.8203 13.0024 18.8203H9.83835C9.54687 18.8203 9.31101 18.5844 9.31101 18.293C9.31101 18.0015 9.54687 17.7656 9.83835 17.7656H13.0024ZM5.63672 9.32812C5.34524 9.32812 5.10938 9.09226 5.10938 8.80078C5.10938 8.5093 5.34524 8.27344 5.63672 8.27344H13.0024C13.2939 8.27344 13.5298 8.5093 13.5298 8.80078C13.5298 9.09226 13.2939 9.32812 13.0024 9.32812H5.63672Z" fill="#62D68F"/>
<path d="M13.586 14.3477L13.1273 15.7241C13.0585 15.9302 13.2547 16.1264 13.4609 16.0575L14.8365 15.5981L13.586 14.3477Z" fill="#62D68F"/>
<path d="M17.682 10.0078L14.209 13.4809L15.7068 14.9787C16.4918 14.1936 18.0192 12.666 19.1797 11.5055L17.682 10.0078Z" fill="#62D68F"/>
<path d="M20.6906 8.49615C20.5052 8.30972 20.2323 8.20312 19.9428 8.20312C19.6534 8.20312 19.3805 8.30973 19.194 8.49669L18.4277 9.26299L19.9253 10.7605C20.3449 10.341 20.6348 10.051 20.6917 9.99419C21.1036 9.58164 21.1036 8.90966 20.6906 8.49615Z" fill="#62D68F"/>
<path d="M20.6992 9.98362C20.7034 9.97937 20.7033 9.97946 20.6992 9.98362Z" fill="#62D68F"/>
</svg>
