<svg width="24" height="24" viewBox="0 0 24 24" fill="none" xmlns="http://www.w3.org/2000/svg">
<path d="M19.1563 19.7109V21.7266C19.1563 21.8773 19.034 22 18.8828 22H6.03903C5.88787 22 5.76561 21.8773 5.76561 21.7266V19.7109C5.76561 19.5602 5.88787 19.4375 6.03903 19.4375H18.8828C19.034 19.4375 19.1563 19.5602 19.1563 19.7109ZM19.491 10.8609C19.4702 10.811 19.4351 10.7684 19.3902 10.7384C19.3452 10.7083 19.2923 10.6923 19.2383 10.6922H15.765V2.27344C15.765 2.12266 15.6424 2 15.4912 2H9.43063C9.27947 2 9.15682 2.12266 9.15682 2.27344V10.6922H5.68358C5.62951 10.6923 5.57667 10.7083 5.53171 10.7384C5.48674 10.7684 5.45166 10.811 5.43086 10.8609C5.41024 10.911 5.40487 10.966 5.41543 11.0191C5.426 11.0722 5.45202 11.121 5.49023 11.1594L12.2676 17.9367C12.3188 17.9883 12.3883 18.0172 12.4609 18.0172C12.5336 18.0172 12.6031 17.9883 12.6543 17.9367L19.4316 11.1594C19.5097 11.0809 19.5332 10.9633 19.491 10.8609Z" fill="white"/>
</svg>
