<svg width="24" height="24" viewBox="0 0 24 24" fill="none" xmlns="http://www.w3.org/2000/svg">
<path d="M10.5 5.4375V4.875H9.75V5.4375C9.75 5.48723 9.73025 5.53492 9.69508 5.57008C9.65992 5.60525 9.61223 5.625 9.5625 5.625H10.6875C10.6378 5.625 10.5901 5.60525 10.5549 5.57008C10.5198 5.53492 10.5 5.48723 10.5 5.4375Z" fill="#62D68F"/>
<path d="M9.375 5.4375V3.9375C9.375 3.88777 9.39475 3.84008 9.42992 3.80492C9.46508 3.76975 9.51277 3.75 9.5625 3.75C9.61223 3.75 9.65992 3.76975 9.69508 3.80492C9.73025 3.84008 9.75 3.88777 9.75 3.9375V4.5H10.5V3.9375C10.5 3.88777 10.5198 3.84008 10.5549 3.80492C10.5901 3.76975 10.6378 3.75 10.6875 3.75C10.7372 3.75 10.7849 3.76975 10.8201 3.80492C10.8552 3.84008 10.875 3.88777 10.875 3.9375V5.4375C10.875 5.48723 10.8552 5.53492 10.8201 5.57008C10.7849 5.60525 10.7372 5.625 10.6875 5.625H13.875V3.9375C13.875 3.68886 13.7762 3.4504 13.6004 3.27459C13.4246 3.09877 13.1861 3 12.9375 3H7.3125C7.06386 3 6.8254 3.09877 6.64959 3.27459C6.47377 3.4504 6.375 3.68886 6.375 3.9375V5.625H9.5625C9.51277 5.625 9.46508 5.60525 9.42992 5.57008C9.39475 5.53492 9.375 5.48723 9.375 5.4375Z" fill="#62D68F"/>
<path d="M20.0625 18.75H3.9375C3.41973 18.75 3 19.1697 3 19.6875V20.0625C3 20.5803 3.41973 21 3.9375 21H20.0625C20.5803 21 21 20.5803 21 20.0625V19.6875C21 19.1697 20.5803 18.75 20.0625 18.75Z" fill="#62D68F"/>
<path d="M18.9375 10.875H16.5V18.375H19.875V11.8125C19.875 11.5639 19.7762 11.3254 19.6004 11.1496C19.4246 10.9738 19.1861 10.875 18.9375 10.875ZM18.75 15.5625C18.75 15.662 18.7105 15.7573 18.6402 15.8277C18.5698 15.898 18.4745 15.9375 18.375 15.9375H17.25C17.1505 15.9375 17.0552 15.898 16.9848 15.8277C16.9145 15.7573 16.875 15.662 16.875 15.5625V14.4375C16.875 14.338 16.9145 14.2427 16.9848 14.1723C17.0552 14.102 17.1505 14.0625 17.25 14.0625H18.375C18.4745 14.0625 18.5698 14.102 18.6402 14.1723C18.7105 14.2427 18.75 14.338 18.75 14.4375V15.5625Z" fill="#62D68F"/>
<path d="M4.125 6.9375V18.375H8.4375V15.75C8.4375 15.3024 8.61529 14.8732 8.93176 14.5568C9.24822 14.2403 9.67745 14.0625 10.125 14.0625C10.5726 14.0625 11.0018 14.2403 11.3182 14.5568C11.6347 14.8732 11.8125 15.3024 11.8125 15.75V18.375H16.125V6.9375C16.125 6.68886 16.0262 6.4504 15.8504 6.27459C15.6746 6.09877 15.4361 6 15.1875 6H5.0625C4.81386 6 4.5754 6.09877 4.39959 6.27459C4.22377 6.4504 4.125 6.68886 4.125 6.9375ZM12.9375 9.9375C12.9375 9.83804 12.977 9.74266 13.0473 9.67233C13.1177 9.60201 13.213 9.5625 13.3125 9.5625H14.4375C14.537 9.5625 14.6323 9.60201 14.7027 9.67233C14.773 9.74266 14.8125 9.83804 14.8125 9.9375V11.0625C14.8125 11.162 14.773 11.2573 14.7027 11.3277C14.6323 11.398 14.537 11.4375 14.4375 11.4375H13.3125C13.213 11.4375 13.1177 11.398 13.0473 11.3277C12.977 11.2573 12.9375 11.162 12.9375 11.0625V9.9375ZM12.9375 14.4375C12.9375 14.338 12.977 14.2427 13.0473 14.1723C13.1177 14.102 13.213 14.0625 13.3125 14.0625H14.4375C14.537 14.0625 14.6323 14.102 14.7027 14.1723C14.773 14.2427 14.8125 14.338 14.8125 14.4375V15.5625C14.8125 15.662 14.773 15.7573 14.7027 15.8277C14.6323 15.898 14.537 15.9375 14.4375 15.9375H13.3125C13.213 15.9375 13.1177 15.898 13.0473 15.8277C12.977 15.7573 12.9375 15.662 12.9375 15.5625V14.4375ZM9.1875 9.9375C9.1875 9.83804 9.22701 9.74266 9.29733 9.67233C9.36766 9.60201 9.46304 9.5625 9.5625 9.5625H10.6875C10.787 9.5625 10.8823 9.60201 10.9527 9.67233C11.023 9.74266 11.0625 9.83804 11.0625 9.9375V11.0625C11.0625 11.162 11.023 11.2573 10.9527 11.3277C10.8823 11.398 10.787 11.4375 10.6875 11.4375H9.5625C9.46304 11.4375 9.36766 11.398 9.29733 11.3277C9.22701 11.2573 9.1875 11.162 9.1875 11.0625V9.9375ZM5.4375 9.9375C5.4375 9.83804 5.47701 9.74266 5.54733 9.67233C5.61766 9.60201 5.71304 9.5625 5.8125 9.5625H6.9375C7.03696 9.5625 7.13234 9.60201 7.20266 9.67233C7.27299 9.74266 7.3125 9.83804 7.3125 9.9375V11.0625C7.3125 11.162 7.27299 11.2573 7.20266 11.3277C7.13234 11.398 7.03696 11.4375 6.9375 11.4375H5.8125C5.71304 11.4375 5.61766 11.398 5.54733 11.3277C5.47701 11.2573 5.4375 11.162 5.4375 11.0625V9.9375ZM5.4375 14.4375C5.4375 14.338 5.47701 14.2427 5.54733 14.1723C5.61766 14.102 5.71304 14.0625 5.8125 14.0625H6.9375C7.03696 14.0625 7.13234 14.102 7.20266 14.1723C7.27299 14.2427 7.3125 14.338 7.3125 14.4375V15.5625C7.3125 15.662 7.27299 15.7573 7.20266 15.8277C7.13234 15.898 7.03696 15.9375 6.9375 15.9375H5.8125C5.71304 15.9375 5.61766 15.898 5.54733 15.8277C5.47701 15.7573 5.4375 15.662 5.4375 15.5625V14.4375Z" fill="#62D68F"/>
</svg>
