<svg width="24" height="24" viewBox="0 0 24 24" fill="none" xmlns="http://www.w3.org/2000/svg">
<path fill-rule="evenodd" clip-rule="evenodd" d="M11.809 18.1332V19.0302C11.809 19.7496 11.4504 20.3706 10.8274 20.7302C10.5277 20.9033 10.1931 20.9998 9.84633 21C9.49916 21.0002 9.16472 20.9035 8.86476 20.7302L4.87606 18.4274C4.25298 18.0677 3.89453 17.4468 3.89453 16.7273V4.96305C3.89453 3.88056 4.77513 3 5.85759 3H14.6421C15.7247 3 16.6053 3.88049 16.6053 4.96305V7.44293C16.6053 7.79868 16.3165 8.08752 15.9607 8.08752C15.6049 8.08752 15.3163 7.79871 15.3163 7.44293V4.96305C15.3163 4.59134 15.0138 4.2889 14.6421 4.2889H6.94459L10.8274 6.53105C11.4502 6.8907 11.809 7.51156 11.809 8.23075V16.8441H14.6421C15.0138 16.8441 15.3163 16.5418 15.3163 16.1701V13.9962C15.3163 13.6402 15.6047 13.3516 15.9607 13.3516C16.3166 13.3516 16.6053 13.6403 16.6053 13.9962V16.1701C16.6053 17.2527 15.7247 18.1332 14.6421 18.1332H11.809ZM17.7814 11.211L17.0716 11.9208C16.8199 12.1725 16.82 12.5806 17.0716 12.8323C17.1927 12.9535 17.356 13.0208 17.5273 13.0208C17.6988 13.0208 17.8619 12.9537 17.9832 12.8323L19.7931 11.0221C20.0447 10.7705 20.0447 10.3627 19.7931 10.111L17.9832 8.3012C17.7315 8.04948 17.3235 8.04959 17.0716 8.30117C16.82 8.5526 16.8201 8.9608 17.0716 9.21231L17.7814 9.92197H13.0262C12.6701 9.92197 12.3817 10.2105 12.3817 10.5666C12.3817 10.9227 12.6701 11.211 13.0262 11.211H17.7814Z" fill="#DC3545"/>
</svg>
