<svg width="24" height="24" viewBox="0 0 24 24" fill="none" xmlns="http://www.w3.org/2000/svg">
<mask id="mask0_2082_3487" style="mask-type:luminance" maskUnits="userSpaceOnUse" x="2" y="2" width="20" height="20">
<path d="M22 2H2V22H22V2Z" fill="white"/>
</mask>
<g mask="url(#mask0_2082_3487)">
<path fill-rule="evenodd" clip-rule="evenodd" d="M12 10.1451C12.1279 10.145 12.2528 10.1071 12.3592 10.0359C12.4654 9.96488 12.5483 9.86388 12.5972 9.74571C12.646 9.62753 12.6588 9.49753 12.6337 9.37212C12.6087 9.24671 12.5472 9.13153 12.4567 9.04112C12.3662 8.95077 12.251 8.88924 12.1256 8.86429C12.0001 8.83941 11.8702 8.85229 11.752 8.90129C11.6339 8.95024 11.5329 9.03318 11.4619 9.13953C11.3909 9.24588 11.3531 9.37088 11.3531 9.49877C11.3534 9.67018 11.4217 9.83453 11.5429 9.95565C11.6642 10.0768 11.8286 10.1449 12 10.1451ZM12 8.185C12.2597 8.18506 12.5136 8.26212 12.7296 8.40647C12.9456 8.55082 13.1139 8.756 13.2133 8.996C13.3126 9.236 13.3386 9.50006 13.288 9.75482C13.2373 10.0096 13.1122 10.2436 12.9285 10.4273C12.7448 10.611 12.5108 10.7361 12.256 10.7868C12.0012 10.8375 11.7372 10.8115 11.4972 10.7121C11.2572 10.6127 11.052 10.4444 10.9076 10.2284C10.7633 10.0125 10.6862 9.75853 10.6862 9.49877C10.6865 9.15047 10.825 8.81647 11.0713 8.57018C11.3176 8.32388 11.6516 8.18535 12 8.185ZM14.4752 9.72482L14.1512 9.78341C14.0895 9.79465 14.0322 9.82306 13.9859 9.86535C13.9396 9.90765 13.9062 9.96212 13.8895 10.0226C13.8467 10.1765 13.7852 10.3246 13.7062 10.4635C13.6753 10.5182 13.6605 10.5805 13.6634 10.6432C13.6663 10.7059 13.6869 10.7665 13.7226 10.8182L13.9104 11.0885L13.5903 11.4092L13.3194 11.2209C13.2679 11.1851 13.2073 11.1646 13.1446 11.1618C13.082 11.159 13.0198 11.1739 12.9653 11.2049C12.8262 11.2838 12.6781 11.3454 12.5241 11.3883C12.4636 11.4048 12.409 11.4382 12.3667 11.4845C12.3244 11.5309 12.2962 11.5882 12.2852 11.65L12.2266 11.974H11.7734L11.7149 11.65C11.704 11.5882 11.6757 11.5309 11.6335 11.4846C11.5913 11.4382 11.5367 11.4048 11.4763 11.3883C11.3222 11.3456 11.174 11.284 11.0351 11.2049C10.9805 11.1739 10.9182 11.159 10.8555 11.1618C10.7927 11.1646 10.732 11.1851 10.6804 11.2209L10.4103 11.4092L10.09 11.0885L10.2778 10.8182C10.3134 10.7665 10.3337 10.7058 10.3367 10.6432C10.3396 10.5805 10.3249 10.5182 10.2943 10.4635C10.2153 10.3246 10.1537 10.1765 10.1109 10.0226C10.0942 9.96212 10.0607 9.90759 10.0143 9.86529C9.96798 9.823 9.91063 9.79465 9.84892 9.78341L9.52468 9.72482V9.27218L9.84892 9.21359C9.91068 9.20247 9.96804 9.17412 10.0144 9.13176C10.0607 9.08947 10.0942 9.03494 10.1109 8.97447C10.1539 8.82041 10.2154 8.67218 10.2943 8.53306C10.3249 8.47841 10.3396 8.41624 10.3367 8.35365C10.3337 8.29106 10.3134 8.23053 10.2778 8.17894L10.09 7.90853L10.4103 7.58789L10.6804 7.77571C10.732 7.81167 10.7926 7.8323 10.8554 7.83521C10.9182 7.83812 10.9805 7.82319 11.0351 7.79215C11.1742 7.71359 11.3223 7.65231 11.4763 7.60965C11.5367 7.59285 11.5912 7.55932 11.6334 7.51291C11.6756 7.4665 11.7039 7.40911 11.7149 7.34734L11.7734 7.02336H12.2266L12.2852 7.34734C12.2963 7.40912 12.3246 7.46652 12.3669 7.51292C12.4091 7.55933 12.4636 7.59285 12.5241 7.60965C12.678 7.65235 12.8262 7.71364 12.9653 7.79215C13.0198 7.82319 13.082 7.83812 13.1447 7.83521C13.2074 7.8323 13.268 7.81166 13.3194 7.77571L13.5903 7.58789L13.9104 7.90853L13.7226 8.17894C13.6869 8.23047 13.6663 8.291 13.6634 8.35365C13.6606 8.41624 13.6753 8.47847 13.7062 8.53306C13.785 8.67218 13.8466 8.82041 13.8895 8.97447C13.9062 9.03494 13.9396 9.08947 13.9859 9.13176C14.0322 9.17406 14.0895 9.20241 14.1512 9.21359L14.4752 9.27218V9.72482ZM14.7277 8.64012C14.844 8.66088 14.9492 8.72188 15.025 8.81247C15.1007 8.90306 15.1422 9.01741 15.1422 9.13547V9.86159C15.1423 9.97965 15.1009 10.0941 15.0251 10.1846C14.9493 10.2752 14.844 10.3362 14.7277 10.3569L14.4663 10.4041C14.4417 10.4713 14.4141 10.5369 14.3843 10.6019L14.5358 10.8206C14.6034 10.9174 14.6348 11.0349 14.6244 11.1525C14.614 11.2701 14.5624 11.3802 14.4789 11.4636L13.9649 11.9774C13.8814 12.0608 13.7713 12.1123 13.6537 12.1227C13.5362 12.1332 13.4187 12.1019 13.3219 12.0345L13.1032 11.8827C13.039 11.9129 12.9726 11.9396 12.9056 11.9651L12.8582 12.2265C12.8375 12.3427 12.7766 12.4479 12.6862 12.5237C12.5957 12.5995 12.4814 12.641 12.3634 12.6409H11.6369C11.5187 12.6411 11.4044 12.5996 11.3138 12.5238C11.2232 12.4481 11.1622 12.3428 11.1415 12.2266L11.0943 11.9651C11.0276 11.9397 10.9612 11.9129 10.8967 11.8828L10.678 12.0346C10.5812 12.102 10.4637 12.1332 10.3462 12.1228C10.2286 12.1123 10.1185 12.0608 10.0351 11.9774L9.52104 11.4636C9.43774 11.3801 9.38633 11.2701 9.37586 11.1526C9.36533 11.0351 9.39639 10.9176 9.46357 10.8207L9.61592 10.6019C9.58574 10.5369 9.55839 10.4714 9.53357 10.4041L9.2721 10.3569C9.15586 10.3362 9.05063 10.2752 8.97492 10.1846C8.89921 10.0941 8.8578 9.97965 8.85804 9.86159V9.13547C8.85792 9.01741 8.89933 8.90312 8.97504 8.81253C9.05074 8.72194 9.15592 8.66094 9.2721 8.64012L9.53357 8.59271C9.55839 8.52576 9.58574 8.46018 9.61592 8.39482L9.46439 8.17635C9.39674 8.07971 9.36533 7.96235 9.37568 7.84484C9.38604 7.72734 9.43751 7.61726 9.52104 7.53395L10.035 7.01996C10.1184 6.93641 10.2285 6.88485 10.346 6.87434C10.4636 6.86382 10.5811 6.89502 10.678 6.96246L10.8967 7.11481C10.9612 7.08441 11.0276 7.05707 11.0943 7.03222L11.1414 6.77051C11.1622 6.65441 11.2233 6.54934 11.3137 6.47371C11.4043 6.39809 11.5185 6.35676 11.6365 6.35695H12.363C12.481 6.35677 12.5952 6.39811 12.6856 6.47374C12.7761 6.54936 12.8371 6.65443 12.8578 6.77051L12.9052 7.03222C12.9722 7.05707 13.0386 7.08441 13.1028 7.11481L13.3219 6.96246C13.4187 6.89501 13.5362 6.86381 13.6537 6.87432C13.7712 6.88484 13.8812 6.9364 13.9645 7.01996L14.4786 7.53395C14.5621 7.6172 14.6137 7.72722 14.6242 7.84469C14.6347 7.96218 14.6035 8.07959 14.536 8.17635L14.3839 8.39482C14.4138 8.46018 14.4414 8.52576 14.466 8.59271L14.7277 8.64012ZM16.8726 12.5003C16.8725 12.6166 16.8263 12.7282 16.7442 12.8105C16.662 12.8928 16.5505 12.9391 16.4342 12.9392H13.2984C13.2399 12.9393 13.1824 12.9548 13.1317 12.984C13.0811 13.0132 13.039 13.0552 13.0096 13.1059L12 14.855L10.9906 13.1059C10.9613 13.0552 10.9192 13.0132 10.8684 12.984C10.8178 12.9548 10.7603 12.9393 10.7018 12.9392H7.56606C7.44968 12.9391 7.3381 12.8928 7.25581 12.8105C7.17352 12.7283 7.12723 12.6167 7.12711 12.5003V6.49672C7.12733 6.38037 7.17364 6.26885 7.25591 6.18658C7.33818 6.10431 7.4497 6.05799 7.56606 6.05777H16.4342C16.5504 6.05805 16.6619 6.10441 16.744 6.18668C16.8262 6.26895 16.8724 6.38044 16.8726 6.49672V12.5003ZM16.4342 5.39136C16.7273 5.39154 17.0084 5.50807 17.2157 5.71535C17.4229 5.92262 17.5394 6.2037 17.5396 6.49684V12.5003C17.5395 12.7935 17.423 13.0745 17.2157 13.2818C17.0084 13.4891 16.7273 13.6056 16.4342 13.6058H13.491L12.289 15.6884C12.2597 15.739 12.2176 15.7811 12.1669 15.8104C12.1162 15.8396 12.0587 15.8549 12.0001 15.8549C11.9416 15.8549 11.884 15.8396 11.8333 15.8104C11.7826 15.7811 11.7405 15.739 11.7112 15.6884L10.5093 13.6058H7.56606C7.27295 13.6055 6.99193 13.4889 6.78468 13.2817C6.57743 13.0744 6.46087 12.7934 6.46058 12.5003V6.49672C6.46087 6.20362 6.57743 5.9226 6.78468 5.71534C6.99193 5.50809 7.27295 5.39153 7.56606 5.39125L16.4342 5.39136ZM18.5343 21.5621C18.5532 21.6531 18.5366 21.7478 18.4878 21.8269C18.439 21.906 18.3619 21.9635 18.2722 21.9875C18.1824 22.0115 18.0869 22.0003 18.0051 21.9562C17.9234 21.912 17.8616 21.8382 17.8325 21.75L16.3722 17.3349H17.6589L18.5343 21.5621ZM6.16742 21.75C6.13831 21.8382 6.07658 21.9119 5.99487 21.956C5.91317 22.0001 5.81769 22.0114 5.72799 21.9873C5.63829 21.9633 5.56117 21.9059 5.51244 21.8268C5.46371 21.7478 5.44706 21.6531 5.4659 21.5622L6.34129 17.3351H7.62801L6.16742 21.75ZM15.9774 18.2656H8.02257L8.3301 17.3349H15.67L15.9774 18.2656ZM3.1782 15.7519V4.31422H20.8223V15.7517C20.8219 15.9948 20.7252 16.2277 20.5533 16.3995C20.3814 16.5712 20.1484 16.6679 19.9053 16.6681H4.09434C3.8514 16.6679 3.61848 16.5712 3.44672 16.3994C3.27496 16.2276 3.17839 15.9948 3.1782 15.7519ZM2 3.4441V2.20426C2.0006 2.15027 2.02231 2.09866 2.06049 2.06049C2.09866 2.02231 2.15027 2.0006 2.20426 2H21.7957C21.8497 2.00054 21.9013 2.02223 21.9395 2.06042C21.9777 2.09861 21.9994 2.15025 22 2.20426V3.4441C21.9993 3.49799 21.9775 3.54948 21.9393 3.58751C21.9012 3.62554 21.8496 3.64709 21.7957 3.64754H2.20426C2.15038 3.64704 2.09885 3.62546 2.06067 3.58744C2.0225 3.54942 2.00072 3.49798 2 3.4441Z" fill="#62D68F"/>
</g>
</svg>
