<svg width="24" height="24" viewBox="0 0 24 24" fill="none" xmlns="http://www.w3.org/2000/svg">
<path fill-rule="evenodd" clip-rule="evenodd" d="M5 3.82149C5 2.81551 5.81552 2 6.82151 2H16.9127C17.9187 2 18.7342 2.81551 18.7342 3.82149V20.1785C18.7342 21.1845 17.9187 22 16.9127 22H6.82151C5.81552 22 5 21.1845 5 20.1785V3.82149ZM15.8987 14.5156H15.6323V13.7664C15.6323 13.6284 15.5204 13.5166 15.3825 13.5166H12.8851C12.477 13.5166 12.1141 13.7134 11.8861 14.017C11.6581 13.7134 11.2951 13.5166 10.8871 13.5166H8.38963C8.2517 13.5166 8.13988 13.6284 8.13988 13.7664V14.5156H7.87349C7.73556 14.5156 7.62374 14.6274 7.62374 14.7653C7.62374 14.9033 7.73556 15.0151 7.87349 15.0151H10.2342C10.7425 15.0151 11.1405 15.1277 11.4173 15.3498C11.6893 15.5682 12.0799 15.5705 12.3548 15.3498C12.6316 15.1277 13.0297 15.0151 13.538 15.0151H15.8987C16.0366 15.0151 16.1484 14.9033 16.1484 14.7653C16.1484 14.6274 16.0366 14.5156 15.8987 14.5156ZM10.2342 14.5156H8.63937V14.0161H10.8871C11.3002 14.0161 11.6363 14.3522 11.6363 14.7653V14.8909C11.2785 14.642 10.8077 14.5156 10.2342 14.5156ZM12.1358 14.8909V14.7653C12.1358 14.3522 12.4719 14.0161 12.8851 14.0161H15.1328V14.5156H13.538C12.9644 14.5156 12.4937 14.642 12.1358 14.8909ZM10.1379 10.5294L8.32108 10.0103C8.08014 9.94144 8.08055 9.59873 8.32108 9.53002L11.8175 8.53104C11.8624 8.51822 11.9099 8.51822 11.9547 8.53104L15.4512 9.53002C15.6921 9.59886 15.6917 9.94158 15.4512 10.0103L14.6333 10.244V12.2676C14.6333 12.4055 14.5215 12.5173 14.3836 12.5173C14.2457 12.5173 14.1338 12.4055 14.1338 12.2676V10.3867L13.6343 10.5294V11.7681C13.6343 11.8627 13.5809 11.9492 13.4963 11.9915L12.3918 12.5437C12.2694 12.6049 12.1574 12.6838 12.0587 12.7781C11.9622 12.8704 11.8101 12.8704 11.7135 12.7781C11.6149 12.6838 11.5028 12.6049 11.3804 12.5437L10.276 11.9915C10.1914 11.9492 10.1379 11.8627 10.1379 11.7681V10.5294ZM12.1685 12.0969L13.1349 11.6137V10.6721L11.9547 11.0092C11.9097 11.0221 11.8622 11.022 11.8175 11.0092L10.6374 10.6721V11.6137L11.6038 12.0969C11.7032 12.1466 11.7976 12.2048 11.8861 12.271C11.9747 12.2048 12.0691 12.1466 12.1685 12.0969ZM14.4735 9.77015L11.8861 9.03091L9.29878 9.77015L11.8861 10.5094L14.4735 9.77015Z" fill="#62D68F"/>
</svg>
