<svg width="24" height="24" viewBox="0 0 24 24" fill="none" xmlns="http://www.w3.org/2000/svg">
<path fill-rule="evenodd" clip-rule="evenodd" d="M18.8211 12.0198C18.8211 15.5344 15.972 18.3835 12.4574 18.3835C8.94284 18.3835 6.09375 15.5344 6.09375 12.0198C6.09375 8.50534 8.94284 5.65625 12.4574 5.65625C15.972 5.65625 18.8211 8.50534 18.8211 12.0198ZM13.1645 11.7271L14.457 13.0197C14.5858 13.1531 14.6569 13.3316 14.6553 13.517C14.6537 13.7023 14.5793 13.8797 14.4482 14.0108C14.3171 14.1419 14.1397 14.2162 13.9543 14.2179C13.769 14.2195 13.5904 14.1482 13.457 14.0194L11.958 12.5204C11.8259 12.3872 11.7514 12.2075 11.7503 12.0199V9.8987C11.7503 9.71117 11.8248 9.53133 11.9574 9.39873C12.09 9.26612 12.2699 9.19163 12.4574 9.19163C12.6449 9.19163 12.8248 9.26612 12.9574 9.39873C13.09 9.53133 13.1645 9.71117 13.1645 9.8987V11.7271Z" fill="#62D68F"/>
<path d="M12.0038 2.00002C11.8141 2.00002 11.6321 2.0754 11.4979 2.20959C11.3637 2.34379 11.2883 2.52579 11.2883 2.71556C11.2883 2.90534 11.3637 3.08734 11.4979 3.22153C11.6321 3.35572 11.8141 3.43111 12.0038 3.43111C14.007 3.42283 15.9505 4.11226 17.5006 5.38099C19.0507 6.64972 20.1108 8.41858 20.4986 10.3838C20.8865 12.3491 20.578 14.388 19.6262 16.1506C18.6743 17.9131 17.1385 19.2892 15.2824 20.0427C13.4264 20.7961 11.3659 20.8797 9.45485 20.2792C7.54382 19.6788 5.90148 18.4317 4.80988 16.7521C3.71827 15.0725 3.24552 13.0653 3.47281 11.0751C3.70009 9.08485 4.61323 7.23588 6.05541 5.84566L6.0069 6.21574C5.98223 6.40394 6.03333 6.59423 6.14896 6.74475C6.26459 6.89528 6.43528 6.9937 6.62348 7.01837C6.81168 7.04304 7.00197 6.99194 7.1525 6.87631C7.30302 6.76067 7.40144 6.58998 7.42611 6.40178L7.7046 4.27331C7.72451 4.08593 7.67153 3.89808 7.55665 3.74872C7.44176 3.59936 7.2738 3.49995 7.08759 3.47111L4.95912 3.19283C4.86466 3.17781 4.76815 3.18188 4.67529 3.2048C4.58243 3.22771 4.4951 3.26902 4.41848 3.32626C4.34185 3.38351 4.27748 3.45553 4.22917 3.53808C4.18086 3.62063 4.14959 3.71203 4.13721 3.80687C4.12483 3.90172 4.13159 3.99808 4.15709 4.09026C4.18259 4.18245 4.22631 4.26859 4.28567 4.34359C4.34503 4.41858 4.41882 4.48092 4.50269 4.52691C4.58655 4.5729 4.67879 4.60161 4.77394 4.61134L5.21951 4.66973C3.5113 6.25483 2.41032 8.38674 2.10673 10.6972C1.80314 13.0077 2.31601 15.3517 3.55675 17.3243C4.7975 19.2969 6.6882 20.7742 8.90228 21.5011C11.1164 22.228 13.5148 22.1588 15.6833 21.3054C17.8518 20.4521 19.6542 18.8682 20.7791 16.8274C21.9041 14.7866 22.281 12.4169 21.8447 10.1278C21.4084 7.83863 20.1863 5.77374 18.3896 4.28976C16.5928 2.80578 14.3342 1.9959 12.0038 2.00002Z" fill="#62D68F"/>
</svg>
