<svg width="24" height="24" viewBox="0 0 24 24" fill="none" xmlns="http://www.w3.org/2000/svg">
<path d="M20.9459 12.3228L18.7621 4.17273C18.5363 3.33014 17.6672 2.82829 16.8246 3.0541L5.27872 6.14778C4.4361 6.37355 3.93428 7.24276 4.16005 8.08535L4.51235 9.40019C3.67222 9.43682 3 10.1315 3 10.9805V19.418C3 20.2903 3.7097 21 4.58203 21H16.5351C17.4075 21 18.1172 20.2903 18.1172 19.418V14.7186L19.8272 14.2604C20.6699 14.0345 21.1717 13.1654 20.9459 12.3228ZM18.3348 6.65301L18.6078 7.67177L12.1637 9.39843H8.08876L18.3348 6.65301ZM5.55171 7.16654L17.0975 4.07282C17.3784 3.99755 17.6681 4.16482 17.7434 4.44572L18.0619 5.63425L5.49725 9.00092L5.17877 7.81239C5.10354 7.53153 5.27081 7.24181 5.55171 7.16654ZM17.0625 19.418C17.0625 19.7087 16.8259 19.9453 16.5351 19.9453H4.58203C4.29125 19.9453 4.05469 19.7087 4.05469 19.418V10.9805C4.05469 10.6897 4.29125 10.4531 4.58203 10.4531H16.5351C16.8259 10.4531 17.0625 10.6897 17.0625 10.9805V19.418ZM19.5543 13.2416L18.1172 13.6267V10.9805C18.1172 10.1081 17.4075 9.39843 16.5351 9.39843H16.2387L18.8807 8.69053L19.9271 12.5958C20.0024 12.8766 19.8351 13.1663 19.5543 13.2416Z" fill="#62D68F"/>
<path d="M8.625 12.5625H6.16406V13.6172H8.625V12.5625Z" fill="#62D68F"/>
<path fill-rule="evenodd" clip-rule="evenodd" d="M17.3173 10.3633H3.4082V20.1815H17.3173V10.3633ZM13.7218 11.507H15.4796C15.7708 11.507 16.0069 11.7431 16.0069 12.0344C16.0069 12.3256 15.7708 12.5617 15.4796 12.5617H13.7218C13.4305 12.5617 13.1944 12.3256 13.1944 12.0344C13.1944 11.7431 13.4305 11.507 13.7218 11.507ZM15.4796 13.6164H13.7218C13.4305 13.6164 13.1944 13.8525 13.1944 14.1437C13.1944 14.435 13.4305 14.6711 13.7218 14.6711H15.4796C15.7708 14.6711 16.0069 14.435 16.0069 14.1437C16.0069 13.8525 15.7708 13.6164 15.4796 13.6164ZM5.63583 17.8352H9.15145C9.44268 17.8352 9.67879 18.0713 9.67879 18.3625C9.67879 18.6537 9.44268 18.8898 9.15145 18.8898H5.63583C5.34459 18.8898 5.10848 18.6537 5.10848 18.3625C5.10848 18.0713 5.34459 17.8352 5.63583 17.8352ZM5.63583 16.7805H6.69051C6.98175 16.7805 7.21786 16.5444 7.21786 16.2531C7.21786 15.9619 6.98175 15.7258 6.69051 15.7258H5.63583C5.34459 15.7258 5.10848 15.9619 5.10848 16.2531C5.10848 16.5444 5.34459 16.7805 5.63583 16.7805ZM8.79989 15.7258H9.85458C10.1458 15.7258 10.3819 15.9619 10.3819 16.2531C10.3819 16.5444 10.1458 16.7805 9.85458 16.7805H8.79989C8.50866 16.7805 8.27255 16.5444 8.27255 16.2531C8.27255 15.9619 8.50866 15.7258 8.79989 15.7258ZM13.0186 15.7258H11.9639C11.6727 15.7258 11.4366 15.9619 11.4366 16.2531C11.4366 16.5444 11.6727 16.7805 11.9639 16.7805H13.0186C13.3099 16.7805 13.546 16.5444 13.546 16.2531C13.546 15.9619 13.3099 15.7258 13.0186 15.7258ZM9.15145 14.6711H5.63583C5.34459 14.6711 5.10848 14.435 5.10848 14.1437V12.0344C5.10848 11.7431 5.34459 11.507 5.63583 11.507H9.15145C9.44268 11.507 9.67879 11.7431 9.67879 12.0344V14.1437C9.67879 14.435 9.44268 14.6711 9.15145 14.6711Z" fill="#62D68F"/>
</svg>
