<svg width="24" height="24" viewBox="0 0 24 24" fill="none" xmlns="http://www.w3.org/2000/svg">
<path fill-rule="evenodd" clip-rule="evenodd" d="M17.287 11.8701C17.4175 11.6441 17.6324 11.4792 17.8846 11.4116C18.1367 11.3441 18.4053 11.3794 18.6314 11.5099L20.3361 12.4941C20.5621 12.6246 20.7271 12.8396 20.7946 13.0917C20.8622 13.3438 20.8268 13.6125 20.6963 13.8385L16.8755 20.4562C16.7995 20.5886 16.6933 20.7012 16.5655 20.7849L14.729 21.9974C14.5765 22.0981 14.399 22.1543 14.2163 22.1597C14.0337 22.1652 13.8532 22.1197 13.6949 22.0284C13.5367 21.937 13.407 21.8035 13.3203 21.6426C13.2337 21.4818 13.1936 21.2999 13.2044 21.1176L13.3363 18.9209C13.345 18.7683 13.3895 18.62 13.4662 18.4878L17.287 11.8701ZM11.3108 21.8439C11.2463 21.5674 11.2221 21.2829 11.2389 20.9995L11.3708 18.8028C11.3984 18.3451 11.5322 17.9003 11.7615 17.5036L15.5823 10.886C15.9738 10.2078 16.6187 9.71302 17.3751 9.51036C18.1315 9.30771 18.9374 9.41381 19.6156 9.80532L19.7475 9.8811V5.11272C19.7475 4.32965 19.4364 3.57865 18.8827 3.02494C18.329 2.47123 17.5779 2.16016 16.7948 2.16016H6.95266C6.16922 2.16016 5.41826 2.47116 4.86513 3.02526C4.59076 3.29923 4.37311 3.62464 4.22466 3.98283C4.07621 4.34103 3.99987 4.72498 4 5.11272V18.8913C4 19.6748 4.31101 20.4257 4.86513 20.9788C5.13912 21.2532 5.46453 21.4708 5.82273 21.6192C6.18094 21.7677 6.56491 21.844 6.95266 21.8439H11.3108ZM7.93687 15.9388H10.0775C10.3386 15.9388 10.5889 15.8351 10.7735 15.6505C10.9581 15.4659 11.0618 15.2156 11.0618 14.9546C11.0618 14.6936 10.9581 14.4432 10.7735 14.2587C10.5889 14.0741 10.3386 13.9704 10.0775 13.9704H7.93687C7.67584 13.9704 7.4255 14.0741 7.24093 14.2587C7.05635 14.4432 6.95266 14.6936 6.95266 14.9546C6.95266 15.2156 7.05635 15.4659 7.24093 15.6505C7.4255 15.8351 7.67584 15.9388 7.93687 15.9388ZM7.93687 12.002H12.2182C12.4793 12.002 12.7296 11.8983 12.9142 11.7138C13.0987 11.5292 13.2024 11.2789 13.2024 11.0178C13.2024 10.7568 13.0987 10.5065 12.9142 10.3219C12.7296 10.1373 12.4793 10.0337 12.2182 10.0337H7.93687C7.67584 10.0337 7.4255 10.1373 7.24093 10.3219C7.05635 10.5065 6.95266 10.7568 6.95266 11.0178C6.95266 11.2789 7.05635 11.5292 7.24093 11.7138C7.4255 11.8983 7.67584 12.002 7.93687 12.002ZM7.93687 8.06528H13.8422C14.1032 8.06528 14.3536 7.96159 14.5381 7.77702C14.7227 7.59245 14.8264 7.34211 14.8264 7.08109C14.8264 6.82007 14.7227 6.56974 14.5381 6.38517C14.3536 6.2006 14.1032 6.0969 13.8422 6.0969H7.93687C7.67584 6.0969 7.4255 6.2006 7.24093 6.38517C7.05635 6.56974 6.95266 6.82007 6.95266 7.08109C6.95266 7.34211 7.05635 7.59245 7.24093 7.77702C7.4255 7.96159 7.67584 8.06528 7.93687 8.06528Z" fill="white"/>
</svg>
