<svg width="24" height="24" viewBox="0 0 24 24" fill="none" xmlns="http://www.w3.org/2000/svg">
<path d="M17.3489 8.45582C15.5728 6.67973 12.6928 6.68008 10.9167 8.45582C9.14101 10.2319 9.14066 13.1119 10.9167 14.888C12.6987 16.6699 15.5806 16.6578 17.3486 14.8876C19.119 13.1194 19.1305 10.2374 17.3489 8.45582ZM16.9411 11.0985L14.9471 13.0926C14.741 13.2987 14.4067 13.2978 14.2014 13.0926L13.1829 12.0741L12.1324 13.1246C11.9277 13.3293 11.5933 13.3314 11.3864 13.1246C11.1808 12.9185 11.1808 12.5849 11.3864 12.3789L12.8099 10.9554C13.0163 10.7491 13.3499 10.7494 13.5559 10.9554L14.5744 11.9739L16.1955 10.3528C16.4011 10.1468 16.7351 10.1468 16.9411 10.3528C17.1471 10.5589 17.1471 10.8925 16.9411 11.0985ZM20.5967 18.185C20.0595 18.7221 19.1876 18.7222 18.6504 18.185L16.9696 16.5041C17.7674 16.0361 18.4468 15.3666 18.9285 14.5705L20.5967 16.2387C21.1339 16.7762 21.1339 17.6474 20.5967 18.185ZM6.0223 6.0223H3.30859L6.0223 3.30859V6.0223Z" fill="#62D68F"/>
<path d="M14.1336 6.06949C14.6996 6.06949 15.2544 6.15316 15.7895 6.31875V3.52734C15.7895 3.23625 15.5532 3 15.2621 3H7.07742V6.55008C7.07742 6.84117 6.84117 7.07742 6.55008 7.07742H3V20.4727C3 20.7637 3.23625 21 3.52734 21H15.2621C15.5532 21 15.7895 20.7637 15.7895 20.4727V17.0252C15.2528 17.1909 14.6943 17.2752 14.1326 17.2752C11.0388 17.2752 8.53043 14.7679 8.53043 11.6723C8.53043 8.58703 11.0293 6.06949 14.1336 6.06949ZM7.02961 16.7461H4.82812C4.53703 16.7461 4.30078 16.5098 4.30078 16.2188C4.30078 15.9277 4.53703 15.6914 4.82812 15.6914H7.02961C7.32105 15.6914 7.55695 15.9277 7.55695 16.2188C7.55695 16.5098 7.32105 16.7461 7.02961 16.7461ZM7.02961 14.6367H4.82812C4.53703 14.6367 4.30078 14.4005 4.30078 14.1094C4.30078 13.8183 4.53703 13.582 4.82812 13.582H7.02961C7.32105 13.582 7.55695 13.8183 7.55695 14.1094C7.55695 14.4005 7.32105 14.6367 7.02961 14.6367ZM7.02961 12.5273H4.82812C4.53703 12.5273 4.30078 12.2911 4.30078 12C4.30078 11.7089 4.53703 11.4727 4.82812 11.4727H7.02961C7.32105 11.4727 7.55695 11.7089 7.55695 12C7.55695 12.2911 7.32105 12.5273 7.02961 12.5273ZM7.02961 10.418H4.82812C4.53703 10.418 4.30078 10.1817 4.30078 9.89062C4.30078 9.59953 4.53703 9.36328 4.82812 9.36328H7.02961C7.32105 9.36328 7.55695 9.59953 7.55695 9.89062C7.55695 10.1817 7.32105 10.418 7.02961 10.418Z" fill="#62D68F"/>
</svg>
