<svg width="24" height="24" viewBox="0 0 24 24" fill="none" xmlns="http://www.w3.org/2000/svg">
<path d="M6.03398 3.33203C5.31789 3.33203 4.63114 3.6165 4.12479 4.12285C3.61844 4.62919 3.33398 5.31595 3.33398 6.03203V18.6321C3.33398 19.3482 3.61844 20.0349 4.12479 20.5413C4.63114 21.0476 5.31789 21.3321 6.03398 21.3321H12.6868C11.9266 20.8735 11.2714 20.2602 10.7635 19.5321H6.03398C5.79528 19.5321 5.56636 19.4373 5.39758 19.2685C5.2288 19.0997 5.13398 18.8708 5.13398 18.6321C5.13398 18.3934 5.2288 18.1645 5.39758 17.9957C5.56636 17.8269 5.79528 17.7321 6.03398 17.7321H9.89498C9.56994 16.6434 9.54537 15.4871 9.82385 14.3856C10.1024 13.2841 10.6735 12.2784 11.4769 11.475C12.2803 10.6716 13.286 10.1004 14.3875 9.82191C15.489 9.54342 16.6453 9.568 17.734 9.89303V6.03203C17.734 5.31595 17.4495 4.62919 16.9432 4.12285C16.4368 3.6165 15.7501 3.33203 15.034 3.33203H6.03398Z" fill="#62D68F"/>
<path fill-rule="evenodd" clip-rule="evenodd" d="M15.9332 10.5352C14.5011 10.5352 13.1276 11.1042 12.1149 12.1168C11.1022 13.1295 10.5332 14.5031 10.5332 15.9352C10.5332 17.3674 11.1022 18.7409 12.1149 19.7536C13.1276 20.7663 14.5011 21.3352 15.9332 21.3352C17.3654 21.3352 18.7389 20.7663 19.7516 19.7536C20.7643 18.7409 21.3332 17.3674 21.3332 15.9352C21.3332 14.5031 20.7643 13.1295 19.7516 12.1168C18.7389 11.1042 17.3654 10.5352 15.9332 10.5352ZM16.916 13.8454C16.7541 13.6829 16.5363 13.5884 16.3071 13.5811C16.0778 13.5738 15.8544 13.6544 15.6825 13.8062C15.5106 13.9581 15.4032 14.1699 15.3823 14.3983C15.3613 14.6268 15.4283 14.8546 15.5696 15.0352H14.1332C13.8946 15.0352 13.6656 15.13 13.4969 15.2988C13.3281 15.4676 13.2332 15.6965 13.2332 15.9352C13.2332 16.1739 13.3281 16.4028 13.4969 16.5716C13.6656 16.7404 13.8946 16.8352 14.1332 16.8352H15.5696C15.4283 17.0159 15.3613 17.2437 15.3823 17.4721C15.4032 17.7005 15.5106 17.9123 15.6825 18.0642C15.8544 18.2161 16.0778 18.2966 16.3071 18.2893C16.5363 18.2821 16.7541 18.1875 16.916 18.025L18.3695 16.5715C18.5383 16.4028 18.6331 16.1739 18.6331 15.9352C18.6331 15.6966 18.5383 15.4677 18.3695 15.2989L16.916 13.8454Z" fill="#62D68F"/>
</svg>
