<svg width="24" height="24" viewBox="0 0 24 24" fill="none" xmlns="http://www.w3.org/2000/svg">
<path d="M8.27344 12.5273C7.11061 12.5273 6.16406 13.4734 6.16406 14.6367V15.1641C6.16406 15.455 6.40095 15.6914 6.69141 15.6914H9.85547C10.1459 15.6914 10.3828 15.455 10.3828 15.1641V14.6367C10.3828 13.4734 9.43627 12.5273 8.27344 12.5273ZM8.27344 8.30859C7.6915 8.30859 7.21875 8.78187 7.21875 9.36328C7.21875 9.9447 7.6915 10.418 8.27344 10.418C8.85538 10.418 9.32812 9.9447 9.32812 9.36328C9.32812 8.78187 8.85538 8.30859 8.27344 8.30859Z" fill="#62D68F"/>
<path d="M19.418 5.14453H4.58203C3.70966 5.14453 3 5.8542 3 6.72656V17.2734C3 18.1458 3.70966 18.8555 4.58203 18.8555H19.418C20.2903 18.8555 21 18.1458 21 17.2734V6.72656C21 5.8542 20.2903 5.14453 19.418 5.14453ZM14.1445 8.30859H17.3086C18.0037 8.30859 18.0066 9.36328 17.3086 9.36328H14.1445C13.4494 9.36328 13.4465 8.30859 14.1445 8.30859ZM11.4375 15.1641C11.4375 16.0364 10.7278 16.7461 9.85547 16.7461H6.69141C5.81904 16.7461 5.10938 16.0364 5.10938 15.1641V14.6367C5.10938 12.8919 6.52867 11.4727 8.27344 11.4727C7.11061 11.4727 6.16406 10.5266 6.16406 9.36328C6.16406 8.19993 7.11061 7.25391 8.27344 7.25391C9.43627 7.25391 10.3828 8.19993 10.3828 9.36328C10.3828 10.5266 9.43627 11.4727 8.27344 11.4727C10.0182 11.4727 11.4375 12.8919 11.4375 14.6367V15.1641ZM18.3633 15.6914H13.0898C12.3947 15.6914 12.3919 14.6367 13.0898 14.6367H18.3633C19.0584 14.6367 19.0613 15.6914 18.3633 15.6914ZM18.3633 13.582H13.0898C12.3947 13.582 12.3919 12.5273 13.0898 12.5273H18.3633C19.0584 12.5273 19.0613 13.582 18.3633 13.582ZM18.3633 11.4727H13.0898C12.3947 11.4727 12.3919 10.418 13.0898 10.418H18.3633C19.0584 10.418 19.0613 11.4727 18.3633 11.4727Z" fill="#62D68F"/>
</svg>
