<svg width="12" height="12" viewBox="0 0 12 12" fill="none" xmlns="http://www.w3.org/2000/svg">
<g clip-path="url(#clip0_1868_2658)">
<path d="M8.01553 10.246L11.5125 5.477C11.7853 5.10452 11.9496 4.66377 11.9872 4.20363C12.0248 3.74349 11.9342 3.28193 11.7256 2.8701C11.5169 2.45827 11.1983 2.11226 10.805 1.87042C10.4118 1.62859 9.9592 1.50038 9.49753 1.5L2.50003 1.5C2.0379 1.49928 1.58464 1.62683 1.1907 1.86843C0.796758 2.11003 0.477592 2.45622 0.268728 2.86845C0.059864 3.28068 -0.0305033 3.74279 0.00768471 4.20334C0.0458717 4.66389 0.211117 5.1048 0.485025 5.477L3.98203 10.246C4.21425 10.5624 4.51772 10.8198 4.86787 10.9971C5.21803 11.1745 5.60502 11.2669 5.99753 11.2669C6.39003 11.2669 6.77703 11.1745 7.12718 10.9971C7.47733 10.8198 7.7808 10.5624 8.01303 10.246H8.01553Z" fill="#172B4D"/>
</g>
<defs>
<clipPath id="clip0_1868_2658">
<rect x="12" width="12" height="12" transform="rotate(90 12 0)" fill="white"/>
</clipPath>
</defs>
</svg>
