<svg xmlns="http://www.w3.org/2000/svg" version="1.1" xmlns:xlink="http://www.w3.org/1999/xlink" xmlns:svgjs="http://svgjs.com/svgjs" width="60" height="60"><svg width="60" height="60" viewBox="0 0 60 60" fill="none" xmlns="http://www.w3.org/2000/svg">
<path d="M14.0502 11.417C14.0502 11.417 15.5944 13.9663 27.6322 13.7737V44.2275C27.6322 44.2275 25.1712 46.9985 14 46.1315L14.0502 11.417Z" fill="#EC1E29"></path>
<path d="M44.4601 11.417C44.4601 11.417 42.9157 13.9663 30.8779 13.7737V44.2275C30.8779 44.2275 33.3391 46.9985 44.5101 46.1315L44.4601 11.417Z" fill="#EC1E29"></path>
<path d="M29.2943 1.09375C29.2943 1.09375 29.607 1.44852 29.8082 1.67247C30.4722 2.41409 31.0294 3.2448 31.4636 4.14054C31.8986 5.02573 32.2158 5.96403 32.4073 6.93155C32.4933 7.37185 32.5502 7.81733 32.5777 8.2651C32.6968 10.2312 32.3078 12.9698 30.4376 14.0687C28.7733 15.0466 27.0859 13.7356 26.449 12.1769C25.4796 9.80462 26.8574 7.59979 28.2384 5.80929C29.5953 4.05102 29.2943 1.09375 29.2943 1.09375Z" fill="#EC1E29"></path>
<path d="M29.2549 12.961C28.7364 12.961 28.0913 12.3764 27.7864 11.6301C27.4858 10.8947 27.4958 10.1464 27.8177 9.27541C28.1667 8.33073 28.8374 7.39844 29.3825 6.69183C29.7688 6.1819 30.0702 5.61291 30.2751 5.00684C30.5993 5.70963 30.839 6.4484 30.9892 7.20767C31.063 7.58564 31.112 7.96806 31.1357 8.35245C31.2338 9.96977 30.9182 12.111 29.7058 12.8233C29.5708 12.9092 29.4149 12.9568 29.2549 12.961Z" fill="#E4E437"></path>
<path d="M24.3481 16.9121C23.7878 19.5 23.0857 22.2397 22.2045 25.0986C20.6705 30.0718 18.7464 34.9162 16.4501 39.5865C16.3879 39.7129 16.3556 39.8518 16.3555 39.9926V43.3955C16.3556 43.5529 16.4155 43.7043 16.5229 43.8193C16.6304 43.9343 16.7774 44.0043 16.9345 44.0151C17.7958 44.0767 18.6609 44.0588 19.519 43.9618C20.84 43.8121 21.5142 43.7268 22.1834 43.219C23.334 42.3452 23.5383 40.9727 23.5709 40.7215C23.6555 39.9831 23.5405 39.2356 23.2379 38.5569C22.8045 37.5159 22.3509 37.5295 21.9056 36.4477C21.6551 35.8109 21.5234 35.1336 21.517 34.4494C21.4842 33.6039 21.5969 32.7591 21.8501 31.9518C22.3683 30.2358 23.9353 24.7945 26.1237 17.4102L24.3481 16.9121Z" fill="#E4E437"></path>
<path d="M19.5134 39.7475C18.6935 41.4504 17.7083 41.9441 17.2468 41.7218C16.7853 41.4994 17.0219 40.6455 17.8419 38.9426C18.6619 37.2398 19.3131 35.6491 19.7747 35.8714C20.2363 36.0938 20.3334 38.0447 19.5134 39.7475Z" fill="white"></path>
<path d="M26.9005 19.5117H21.6641V20.0895H26.9005V19.5117Z" fill="#E4E437"></path>
<path d="M26.4757 20.7754H21.2393V21.3532H26.4757V20.7754Z" fill="#E4E437"></path>
<path d="M24.4273 22.04H20.8154V22.6178H24.4273V22.04Z" fill="#E4E437"></path>
<path d="M34.2722 22.8723L35.6717 22.5145C35.8647 22.4651 36.0655 22.4542 36.2627 22.4825C36.4598 22.5107 36.6495 22.5775 36.8209 22.6791C36.9922 22.7807 37.1419 22.915 37.2614 23.0744C37.3808 23.2338 37.4677 23.4152 37.517 23.6082L42.008 41.1721C42.1551 41.7474 42.0677 42.3576 41.7649 42.8685C41.4621 43.3793 40.9688 43.7489 40.3934 43.896C39.8181 44.0432 39.2079 43.9557 38.6971 43.6529C38.1862 43.3501 37.8166 42.8568 37.6695 42.2814L33.1785 24.7175C33.0788 24.3278 33.1381 23.9144 33.3432 23.5684C33.5483 23.2224 33.8825 22.972 34.2722 22.8723Z" fill="#E4E437"></path>
<path d="M33.9648 16.4219C33.8858 16.1128 33.5711 15.9263 33.2619 16.0053C32.9528 16.0844 32.7662 16.3991 32.8453 16.7082L37.9805 36.7913C38.0595 37.1005 38.3742 37.287 38.6834 37.208C38.9925 37.1289 39.1791 36.8142 39.1 36.5051L33.9648 16.4219Z" fill="#E4E437"></path>
<path d="M42.8068 19.0991L41.9721 19.4755L40.6238 19.2108L39.6608 18.3681L40.0942 17.622H41.1873C40.6655 17.3646 40.0934 17.2251 39.5117 17.2137C38.93 17.2022 38.3528 17.3189 37.8213 17.5556C37.2898 17.7923 36.8169 18.1431 36.4362 18.5832C36.0555 19.0232 35.7764 19.5416 35.6186 20.1017L36.5793 18.8017L37.9515 19.2592L37.8069 20.4871L36.9162 21.4017H36.0254L35.6182 20.1017C35.4659 20.6467 35.4318 21.2181 35.5183 21.7774C35.6048 22.3367 35.8098 22.871 36.1197 23.3446C36.1572 23.4018 36.1963 23.4579 36.2368 23.513L36.9643 23.4L37.9515 24.2185L38.1646 24.9262C38.9361 25.1864 39.769 25.2026 40.5499 24.9726C41.3309 24.7425 42.0221 24.2775 42.5293 23.6407C43.0366 23.0039 43.3354 22.2263 43.3849 21.4136C43.4345 20.601 43.2326 19.7928 42.8065 19.0991H42.8068ZM41.7468 23.6611L40.4872 24.3884L39.2276 23.6611V22.2065L40.4872 21.4792L41.7468 22.2065V23.6611Z" fill="#FDFCF1"></path>
<path d="M41.7468 22.2068V23.6614L40.4872 24.3887L39.2275 23.6614V22.2068L40.4872 21.4795L41.7468 22.2068Z" fill="#231F20"></path>
<path d="M37.9514 19.259L37.807 20.4869L36.9161 21.4017H36.0253L35.6182 20.1017L36.5788 18.8018L37.9514 19.259Z" fill="#231F20"></path>
<path d="M42.807 19.0991L41.9724 19.4756L40.6241 19.2109L39.6611 18.3681L40.0945 17.6221H41.1876C41.8551 17.953 42.4163 18.4648 42.807 19.0991Z" fill="#231F20"></path>
<path d="M38.1645 24.9266C37.3917 24.665 36.7184 24.1715 36.2363 23.5134L36.9639 23.4004L37.951 24.2189L38.1645 24.9266Z" fill="#231F20"></path>
<path d="M12.9685 15.6108V15.6099C12.9685 15.4992 12.9245 15.393 12.8462 15.3147C12.7679 15.2364 12.6617 15.1924 12.551 15.1924H11.4033C11.3941 15.1924 11.3854 15.1888 11.3787 15.1825C11.3732 15.1773 11.3695 15.1704 11.3682 15.1628L11.1565 13.9465C11.1471 13.8925 11.1272 13.8408 11.0979 13.7945C11.0685 13.7482 11.0303 13.7082 10.9855 13.6766C10.9407 13.6451 10.8901 13.6227 10.8366 13.6107C10.7831 13.5987 10.7277 13.5974 10.6737 13.6068H10.6728C10.5637 13.6257 10.4666 13.6873 10.4029 13.7778C10.3392 13.8683 10.314 13.9805 10.333 14.0896L10.5721 15.4644C10.573 15.4697 10.5728 15.4752 10.5713 15.4803C10.5698 15.4855 10.5672 15.4903 10.5636 15.4943C8.56762 17.7172 6.96928 20.2672 5.83858 23.0325C4.25353 26.9106 3.62926 31.1143 4.01896 35.2856C4.40865 39.4569 5.80076 43.4722 8.07671 46.9896C8.87571 48.2235 9.77717 49.388 10.7715 50.4707C10.809 50.5115 10.8542 50.5445 10.9046 50.5676C10.9549 50.5908 11.0094 50.6037 11.0647 50.6056C11.1201 50.6075 11.1753 50.5984 11.2271 50.5787C11.2789 50.559 11.3263 50.5292 11.3665 50.4911V50.4904C11.4459 50.4151 11.4926 50.3115 11.4963 50.2021C11.5001 50.0927 11.4607 49.9862 11.3866 49.9056C7.15248 45.2937 4.78732 39.2705 4.75211 33.0098C4.71689 26.7491 7.01413 20.6997 11.1961 16.0405C11.1995 16.0367 11.2036 16.0337 11.2082 16.0317C11.2127 16.0296 11.2177 16.0286 11.2227 16.0286H12.5503C12.6052 16.0287 12.6596 16.018 12.7103 15.997C12.7611 15.976 12.8072 15.9453 12.8461 15.9065C12.8849 15.8677 12.9157 15.8216 12.9367 15.7708C12.9577 15.7201 12.9685 15.6657 12.9685 15.6108Z" fill="#2E2D76"></path>
<path d="M12.687 49.8447H12.6861C12.5754 49.8447 12.4692 49.8887 12.3909 49.967C12.3126 50.0452 12.2686 50.1514 12.2686 50.2621V51.4098C12.2686 51.419 12.2651 51.4278 12.2587 51.4345C12.2534 51.44 12.2465 51.4437 12.239 51.445L11.0227 51.6566C10.9136 51.6755 10.8165 51.7371 10.7528 51.8277C10.6891 51.9182 10.664 52.0304 10.6829 52.1395V52.1404C10.7019 52.2495 10.7635 52.3465 10.854 52.4103C10.9445 52.474 11.0567 52.4992 11.1657 52.4803L12.5406 52.2405C12.5459 52.2395 12.5513 52.2398 12.5565 52.2413C12.5617 52.2428 12.5664 52.2455 12.5704 52.2491C14.7934 54.2451 17.3434 55.8434 20.1087 56.9741C23.9867 58.5592 28.1904 59.1834 32.3617 58.7937C36.5329 58.4039 40.5482 57.0117 44.0655 54.7357C45.2994 53.9368 46.4638 53.0354 47.5464 52.041C47.5872 52.0036 47.6202 51.9583 47.6434 51.908C47.6665 51.8577 47.6794 51.8032 47.6814 51.7478C47.6833 51.6925 47.6741 51.6373 47.6545 51.5854C47.6348 51.5336 47.6051 51.4863 47.5669 51.4461V51.4454C47.4916 51.3659 47.388 51.3193 47.2786 51.3155C47.1692 51.3117 47.0626 51.3511 46.982 51.4251C42.3701 55.6593 36.3469 58.0245 30.0863 58.0597C23.8256 58.095 17.7761 55.7977 13.1169 51.6158C13.1132 51.6124 13.1102 51.6083 13.1082 51.6037C13.1061 51.5991 13.1051 51.5942 13.1051 51.5891V50.2614C13.1048 50.1508 13.0607 50.0447 12.9823 49.9665C12.9039 49.8884 12.7977 49.8446 12.687 49.8447Z" fill="#2E2D76"></path>
<path d="M46.9199 50.1248V50.1259C46.9199 50.2366 46.9639 50.3428 47.0422 50.4211C47.1205 50.4994 47.2267 50.5434 47.3374 50.5434H48.4852C48.4943 50.5434 48.5031 50.5469 48.5097 50.5532C48.5153 50.5584 48.519 50.5654 48.5202 50.573L48.7319 51.7893C48.7413 51.8433 48.7612 51.8949 48.7905 51.9412C48.8199 51.9875 48.8581 52.0276 48.9029 52.0591C48.9477 52.0907 48.9983 52.1131 49.0518 52.1251C49.1053 52.1371 49.1607 52.1384 49.2147 52.129H49.2156C49.3247 52.11 49.4218 52.0485 49.4855 51.9579C49.5493 51.8673 49.5744 51.7552 49.5555 51.6461L49.3157 50.2713C49.3147 50.266 49.315 50.2606 49.3164 50.2554C49.3179 50.2503 49.3206 50.2455 49.3242 50.2415C51.3202 48.0185 52.9185 45.4685 54.0492 42.7031C55.6342 38.8251 56.2585 34.6213 55.8688 30.45C55.4791 26.2787 54.087 22.2634 51.811 18.746C51.012 17.5121 50.1105 16.3477 49.1162 15.2649C49.0787 15.2241 49.0335 15.1912 48.9832 15.1681C48.9328 15.1449 48.8784 15.132 48.823 15.1301C48.7676 15.1282 48.7124 15.1374 48.6606 15.157C48.6088 15.1767 48.5614 15.2064 48.5213 15.2445H48.5206C48.4412 15.3199 48.3946 15.4235 48.3908 15.5329C48.387 15.6423 48.4264 15.7489 48.5005 15.8295C52.7346 20.4414 55.0998 26.4646 55.135 32.7253C55.1702 38.9859 52.8729 45.0354 48.691 49.6946C48.6876 49.6983 48.6835 49.7013 48.6789 49.7034C48.6743 49.7054 48.6694 49.7065 48.6643 49.7065H47.3368C47.2819 49.7066 47.2277 49.7175 47.177 49.7385C47.1264 49.7596 47.0804 49.7904 47.0417 49.8293C47.003 49.8681 46.9723 49.9142 46.9514 49.9649C46.9305 50.0156 46.9198 50.07 46.9199 50.1248Z" fill="#2E2D76"></path>
<path d="M36.2392 18.8434L36.2373 18.8238L36.575 18.7928L37.1941 17.8955L37.2104 17.9068L36.5861 18.8115H36.5814L36.2392 18.8434Z" fill="#231F20"></path>
<path d="M40.0926 17.6312L38.7197 17.2857L38.7245 17.2666L40.0974 17.6122L40.0926 17.6312Z" fill="#231F20"></path>
<path d="M37.9509 24.2302L37.9462 24.2263L36.9557 23.4049V23.4002L36.9078 21.4116H36.0294L35.478 21.7464L35.4678 21.7293L36.024 21.3916H36.9272V21.4013L36.9753 23.395L37.9542 24.2069L39.2252 23.6519L39.233 23.6698L37.9509 24.2302Z" fill="#231F20"></path>
<path d="M39.2258 22.2195L39.2206 22.213L37.7969 20.4901V20.4859L37.9418 19.2528L37.9465 19.2504L39.6618 18.3564L39.667 18.3608L40.6337 19.2067V19.2116L40.497 21.4854L40.4925 21.4881L39.2258 22.2195ZM37.817 20.4839L39.2299 22.1939L40.4777 21.4736L40.6133 19.2152L39.6591 18.3802L37.9603 19.2654L37.817 20.4839Z" fill="#231F20"></path>
<path d="M42.3944 23.8102L41.7461 23.6707L41.7502 23.6514L42.3985 23.7909L42.3944 23.8102Z" fill="#231F20"></path>
<path d="M40.4984 24.3887H40.4785V24.9915H40.4984V24.3887Z" fill="#231F20"></path>
<path d="M43.3471 20.6153L41.9668 19.483L41.9793 19.4678L43.3596 20.6002L43.3471 20.6153Z" fill="#231F20"></path>
<path d="M41.7497 22.2161L41.7441 22.1971L43.3493 21.7285L43.3549 21.7476L41.7497 22.2161Z" fill="#231F20"></path>
<path d="M47.6627 48.5339C44.1711 49.6432 40.586 50.4332 36.9516 50.8943L37.0041 54.9453C37.0041 54.9453 31.5114 54.0777 29.6845 54.1013C27.7919 54.1259 22.1267 55.1384 22.1267 55.1384L22.0722 50.9367C18.5101 50.5056 14.9933 49.7588 11.5635 48.7049L12.5451 45.5084C17.9227 47.1611 23.5148 48.0108 29.1407 48.0302C35.0812 48.0515 40.9887 47.1461 46.6502 45.3467L47.6627 48.5339Z" fill="#2E2D76"></path>
<path d="M26.4472 52.045L26.235 52.0478L26.2005 51.9698C26.2192 51.8874 26.2671 51.8145 26.3353 51.7645C26.4057 51.7086 26.4927 51.6775 26.5826 51.6763C26.6994 51.6741 26.8149 51.7016 26.9182 51.7563C27.0196 51.8177 27.1174 51.8847 27.2113 51.9572L27.2687 51.9993L27.2571 51.9291C27.2383 51.8145 27.1312 51.711 26.9299 51.6128C26.792 51.5375 26.6387 51.4946 26.4817 51.4873C26.3638 51.4917 26.2507 51.5352 26.1601 51.6108C26.1107 51.6438 26.0697 51.688 26.0406 51.7399C26.0115 51.7918 25.9951 51.8498 25.9927 51.9092C26.0006 51.9646 26.0291 52.0149 26.0726 52.05L25.875 52.0526L25.7789 52.0538L25.732 52.0544C25.711 52.0342 25.6964 52.0084 25.6897 51.9801C25.6823 51.9452 25.6755 51.9091 25.6694 51.8727L25.6676 51.8621L25.561 51.7735L25.5661 51.8418C25.5729 51.9339 25.5806 52.0283 25.589 52.1216C25.5912 52.1472 25.5936 52.1718 25.5961 52.1955L25.5924 52.1897C25.5375 52.1017 25.4767 52.0576 25.4121 52.0584L25.3608 52.0591L25.2173 52.061L24.0166 52.0765L24.1585 52.2555L24.1739 52.2541C24.1967 52.2523 24.2322 52.2485 24.2825 52.2429C24.3306 52.2375 24.3672 52.2347 24.3916 52.2343C24.4935 52.2329 24.5208 52.2516 24.521 52.2617C24.5187 52.3074 24.5025 52.3513 24.4745 52.3875C24.4543 52.4215 24.4235 52.448 24.3868 52.4629C24.3526 52.4455 24.3201 52.4249 24.2897 52.4013L24.2607 52.3798L24.2146 52.4823L24.2174 52.4925C24.2347 52.5442 24.2663 52.5901 24.3085 52.6248C24.3463 52.665 24.398 52.6893 24.453 52.6927C24.5158 52.6918 24.5729 52.6453 24.6294 52.551C24.6532 52.5122 24.6736 52.4716 24.6906 52.4295C24.7043 52.4557 24.72 52.4808 24.7375 52.5047C24.7551 52.5298 24.7752 52.5531 24.7974 52.5743C24.7536 52.5875 24.7119 52.607 24.6737 52.6321C24.6396 52.6498 24.6108 52.676 24.5902 52.7083C24.5695 52.7406 24.5577 52.7778 24.5559 52.8161C24.5554 52.8352 24.5597 52.8542 24.5684 52.8713C24.5771 52.8884 24.5899 52.903 24.6057 52.9138C24.6366 52.9345 24.6733 52.9448 24.7104 52.9434C24.7682 52.9417 24.8233 52.9187 24.8652 52.8788C24.9044 52.8467 24.9298 52.8008 24.9362 52.7505C24.9509 52.7465 24.9552 52.746 24.9556 52.7459C24.9716 52.7455 24.9875 52.7487 25.0021 52.7552C25.0167 52.7617 25.0298 52.7713 25.0403 52.7834C25.0639 52.8077 25.0773 52.8402 25.0776 52.8741C25.0744 52.8877 25.0703 52.9011 25.0655 52.9141C24.9985 52.9842 24.9101 53.03 24.8142 53.0443C24.7027 53.0467 24.5925 53.02 24.4945 52.9667L24.4108 52.921L24.5921 53.2696L24.6054 53.2728C24.8879 53.3313 25.1482 53.4678 25.3569 53.6668L25.435 53.7493L25.368 53.4944L25.3609 53.4884C25.3199 53.4542 25.2537 53.405 25.1583 53.3379C25.0934 53.2931 25.04 53.2544 24.9984 53.2221C25.1798 53.1486 25.2708 53.0421 25.269 52.9053C25.2661 52.8378 25.2426 52.7727 25.2017 52.7188C25.1805 52.6878 25.1548 52.66 25.1254 52.6366C25.1553 52.6228 25.1825 52.6036 25.2053 52.5799C25.2291 52.559 25.2483 52.5335 25.2617 52.505C25.2752 52.4764 25.2827 52.4454 25.2837 52.4139C25.2824 52.3535 25.2672 52.2943 25.2394 52.2407L25.4026 52.2385H25.4034L25.4154 52.2377H25.4421C25.4642 52.2374 25.4859 52.2436 25.5045 52.2556C25.5231 52.2676 25.5378 52.2848 25.5467 52.305C25.5676 52.3625 25.5769 52.4235 25.5741 52.4846L25.5854 53.3569L25.767 53.4966L25.7506 52.2337L25.9571 52.2311L26.0564 52.2299L26.1067 52.2292L26.1212 53.35L26.3028 53.4896L26.2864 52.2268L26.5995 52.2228L26.4472 52.045ZM25.079 52.3985C25.0554 52.4123 25.0306 52.4239 25.0048 52.433C24.9764 52.4337 24.9481 52.4287 24.9216 52.4184C24.895 52.4081 24.8708 52.3926 24.8503 52.3728C24.8144 52.3397 24.7917 52.2948 24.7864 52.2463L25.0461 52.2429C25.0605 52.2429 25.0744 52.2608 25.0834 52.276C25.0974 52.2967 25.1059 52.3206 25.1082 52.3455C25.1084 52.3561 25.1058 52.3666 25.1007 52.3759C25.0955 52.3852 25.0881 52.393 25.079 52.3985Z" fill="white"></path>
<path d="M26.7742 52.5359C26.7942 52.5248 26.8161 52.5178 26.8387 52.5152C26.8475 52.5152 26.8592 52.5178 26.8711 52.5391C26.8831 52.5598 26.8896 52.5833 26.8899 52.6073C26.8869 52.6365 26.8734 52.6637 26.8519 52.6838C26.8253 52.7104 26.7994 52.7385 26.774 52.7661L26.7443 52.7982L26.9755 52.8816L27.3595 52.4469C27.4641 52.5216 27.5193 52.6948 27.5223 52.9621C27.5223 53.001 27.5211 53.0608 27.5172 53.1398C27.5134 53.2188 27.5115 53.2797 27.512 53.3188V53.3329L27.6936 53.4724L27.6772 52.2098L27.9178 52.2066H27.919L27.9374 52.2573C28.0344 52.525 28.0839 52.6627 28.0907 52.6795C28.1516 52.8361 28.2349 52.9829 28.3381 53.1154C28.3839 53.1768 28.4429 53.227 28.5108 53.2623C28.5787 53.2976 28.6537 53.317 28.7302 53.3192C28.797 53.3208 28.8635 53.3082 28.9251 53.2823C28.9867 53.2564 29.0422 53.2177 29.0878 53.1688C29.1784 53.0692 29.226 52.9379 29.2202 52.8034C29.2228 52.6687 29.1769 52.5376 29.091 52.434C29.0468 52.3832 28.9918 52.3431 28.9299 52.3166C28.8681 52.2901 28.801 52.2779 28.7338 52.281C28.6593 52.2836 28.5876 52.3094 28.5285 52.3548C28.4949 52.3738 28.4668 52.401 28.4467 52.4338C28.4265 52.4667 28.4151 52.5042 28.4135 52.5427C28.4137 52.6065 28.4315 52.669 28.4648 52.7235C28.4807 52.7533 28.5046 52.7782 28.5337 52.7953C28.5628 52.8125 28.5961 52.8213 28.6299 52.8208C28.8297 52.8183 28.8709 52.7021 28.8697 52.6052C28.8694 52.5667 28.8595 52.529 28.8408 52.4954C28.8509 52.494 28.8611 52.4933 28.8713 52.4931C28.8952 52.4936 28.9188 52.4996 28.94 52.5107C28.9613 52.5218 28.9797 52.5376 28.9938 52.5569C29.0292 52.5943 29.0498 52.6432 29.0519 52.6945C29.0535 52.7415 29.0455 52.7883 29.0282 52.8321C29.011 52.8758 28.9849 52.9155 28.9516 52.9487C28.9197 52.9831 28.8809 53.0104 28.8378 53.029C28.7947 53.0476 28.7482 53.057 28.7013 53.0566C28.5719 53.0582 28.4431 52.959 28.3187 52.7614C28.2272 52.6021 28.1466 52.4369 28.0773 52.2668L28.0724 52.2553L27.9365 52.2064L28.0211 52.2052L29.5072 52.186L29.3188 52.0087L27.8254 52.028L27.739 52.0291L27.657 52.0302C27.6516 52.0301 27.6464 52.0283 27.6422 52.025C27.638 52.0216 27.635 52.017 27.6338 52.0118C27.6233 51.9642 27.6134 51.9161 27.6045 51.8691L27.6029 51.8607L27.4915 51.7441L27.4983 52.2598C27.4983 52.2612 27.4983 52.2626 27.5108 52.4013C27.4804 52.335 27.4424 52.2724 27.3976 52.2148C27.355 52.1629 27.3008 52.1216 27.2395 52.0942C27.1781 52.0669 27.1113 52.0541 27.0441 52.0571C26.9318 52.0619 26.8235 52.0999 26.7328 52.1663C26.6822 52.193 26.6392 52.2322 26.608 52.2802C26.5768 52.3282 26.5585 52.3834 26.5547 52.4405C26.5549 52.4574 26.5588 52.4741 26.5663 52.4892C26.5738 52.5044 26.5846 52.5177 26.5979 52.5282C26.6226 52.5502 26.6547 52.5622 26.6878 52.5619C26.7181 52.5591 26.7475 52.5503 26.7742 52.5359ZM26.8675 52.354C26.8879 52.3235 26.9142 52.2974 26.9449 52.2772C26.9902 52.254 27.0406 52.243 27.0914 52.2451C27.118 52.2434 27.1446 52.2476 27.1693 52.2574C27.1941 52.2672 27.2164 52.2822 27.2347 52.3015L27.0215 52.517C27.0132 52.4772 26.9937 52.4406 26.9653 52.4116C26.9393 52.383 26.9054 52.3629 26.8679 52.3538L26.8675 52.354Z" fill="white"></path>
<path d="M29.8647 53.3401C29.9039 53.3385 29.9422 53.3274 29.9763 53.3079C30.0104 53.2884 30.0393 53.261 30.0605 53.2281C30.1088 53.1675 30.135 53.0923 30.135 53.0149C30.1332 52.9392 30.1015 52.8674 30.0468 52.8151C30.0213 52.7872 29.9903 52.7651 29.9557 52.75C29.9211 52.7349 29.8837 52.7273 29.8459 52.7275C29.7727 52.7285 29.7028 52.7578 29.6508 52.8093C29.6238 52.8335 29.6023 52.8631 29.5878 52.8962C29.5732 52.9294 29.5659 52.9653 29.5664 53.0015C29.5678 53.0841 29.5975 53.1638 29.6506 53.2273C29.6746 53.2619 29.7066 53.2902 29.7439 53.3099C29.7811 53.3295 29.8226 53.3399 29.8647 53.3401ZM29.8305 52.9412C29.863 52.9415 29.895 52.9496 29.9237 52.9649C29.9573 52.9805 29.9744 52.9973 29.9746 53.015C29.9671 53.0581 29.9429 53.0964 29.9072 53.1216C29.8766 53.1552 29.8356 53.1776 29.7908 53.1852C29.781 53.1853 29.7714 53.1825 29.7633 53.1771C29.7552 53.1716 29.7489 53.1639 29.7453 53.1548C29.7338 53.1318 29.7279 53.1063 29.7282 53.0806C29.7264 52.9583 29.782 52.9419 29.8305 52.9412Z" fill="white"></path>
<path d="M29.8623 52.6314C29.9009 52.6299 29.9386 52.6197 29.9727 52.6015C30.0067 52.5833 30.0361 52.5575 30.0587 52.5263C30.1071 52.4673 30.1334 52.3932 30.1329 52.317C30.1315 52.2392 30.0998 52.165 30.0444 52.1103C30.0183 52.0815 29.9863 52.0586 29.9506 52.0431C29.9149 52.0277 29.8763 52.02 29.8374 52.0205C29.7659 52.0217 29.6973 52.049 29.6445 52.0973C29.6169 52.1198 29.5947 52.1482 29.5796 52.1806C29.5646 52.2129 29.5571 52.2482 29.5576 52.2838C29.5586 52.3691 29.5881 52.4517 29.6416 52.5183C29.6666 52.5534 29.6998 52.582 29.7382 52.6017C29.7766 52.6214 29.8192 52.6315 29.8623 52.6314ZM29.7526 52.2887C29.7638 52.2748 29.7782 52.2638 29.7946 52.2566C29.811 52.2494 29.8289 52.2462 29.8467 52.2473C29.8747 52.2465 29.9025 52.2517 29.9283 52.2625C29.9654 52.2798 29.9657 52.2991 29.9658 52.3063C29.9658 52.3364 29.9421 52.3701 29.8944 52.4068C29.8588 52.4391 29.814 52.4596 29.7663 52.4656C29.7492 52.4656 29.7206 52.4663 29.7198 52.4013C29.7173 52.3611 29.7289 52.3213 29.7526 52.2887Z" fill="white"></path>
<path d="M31.1982 52.8477C31.1301 52.8486 31.0643 52.8727 31.0117 52.9161C30.9833 52.9362 30.9601 52.9628 30.9441 52.9938C30.9281 53.0247 30.9197 53.0591 30.9198 53.0939C30.9204 53.1232 30.9287 53.1517 30.9439 53.1767C30.9591 53.2017 30.9806 53.2222 31.0063 53.2362C31.0519 53.2681 31.1063 53.2848 31.162 53.2842C31.2846 53.2788 31.401 53.2284 31.4889 53.1427C31.5364 53.1054 31.575 53.0581 31.602 53.0041C31.629 52.9501 31.6436 52.8908 31.6449 52.8304C31.642 52.6117 31.5005 52.3863 31.2241 52.1603V52.1141C31.2219 51.9578 31.1441 51.926 31.0794 51.9268C31.0565 51.9275 31.034 51.933 31.0134 51.9429C30.9927 51.9528 30.9744 51.9669 30.9595 51.9843C30.9433 52.0005 30.9304 52.0197 30.9216 52.0408C30.9128 52.062 30.9082 52.0847 30.9082 52.1076C30.909 52.1752 30.9592 52.2514 31.0617 52.3407C31.1492 52.4176 31.2367 52.4945 31.3244 52.5713C31.4024 52.6407 31.4509 52.7373 31.46 52.8413C31.4567 52.8698 31.4434 52.896 31.4224 52.9155C31.3577 52.8679 31.2785 52.844 31.1982 52.8477Z" fill="white"></path>
<path d="M32.1066 52.4072L32.1083 52.4078C32.2495 52.4571 32.3916 52.5064 32.5346 52.5557C32.6769 52.6175 32.7467 52.6972 32.7478 52.7992C32.7488 52.8211 32.7449 52.8428 32.7364 52.863C32.7278 52.8831 32.7149 52.9011 32.6986 52.9156C32.6962 52.9177 32.6853 52.9258 32.64 52.9571C32.6408 52.9473 32.6411 52.9371 32.6409 52.9267C32.6401 52.8814 32.6294 52.8368 32.6095 52.7961C32.5896 52.7553 32.561 52.7194 32.5257 52.6909C32.4579 52.6285 32.3689 52.5942 32.2767 52.5949C32.2282 52.5945 32.1802 52.6042 32.1356 52.6234C32.0911 52.6426 32.0511 52.6709 32.0181 52.7064C31.9846 52.7415 31.9584 52.7829 31.9411 52.8282C31.9238 52.8735 31.9157 52.9218 31.9173 52.9703C31.9168 53.0406 31.937 53.1094 31.9753 53.1683C31.9935 53.201 32.0203 53.228 32.0527 53.2466C32.0852 53.2652 32.1221 53.2746 32.1595 53.2738C32.2094 53.2731 32.2927 53.2509 32.2909 53.1097C32.2895 52.9886 32.2149 52.9715 32.171 52.972H32.1359C32.1288 52.9646 32.1233 52.9558 32.1199 52.9461C32.1165 52.9364 32.1151 52.9261 32.116 52.9158C32.1159 52.8773 32.1302 52.8402 32.156 52.8116C32.1665 52.7974 32.1802 52.7856 32.1959 52.7774C32.2116 52.7691 32.229 52.7645 32.2467 52.7638C32.2949 52.7637 32.3413 52.7819 32.3765 52.8148C32.3945 52.8291 32.4092 52.8471 32.4194 52.8677C32.4296 52.8883 32.4351 52.9109 32.4355 52.9339C32.4322 53.0353 32.4189 53.1361 32.3955 53.2348L32.3882 53.2702H32.4243C32.5487 53.2608 32.6667 53.2113 32.7606 53.1292C32.813 53.0961 32.8572 53.0512 32.8895 52.9982C32.9219 52.9452 32.9416 52.8855 32.9471 52.8236C32.9509 52.7401 32.9342 52.6568 32.8983 52.5813C32.8624 52.5057 32.8085 52.4401 32.7414 52.3903C32.6237 52.3195 32.495 52.269 32.3606 52.2409C32.2771 52.2263 32.1981 52.1926 32.1299 52.1423C32.1478 52.1187 32.1568 52.0895 32.1553 52.0599C32.1551 52.0406 32.1511 52.0216 32.1435 52.0039C32.1359 51.9862 32.1249 51.9701 32.1111 51.9567C32.0974 51.9433 32.0811 51.9326 32.0632 51.9255C32.0453 51.9184 32.0262 51.9148 32.0069 51.9151C31.9832 51.9153 31.96 51.9219 31.9397 51.9341C31.9194 51.9464 31.9027 51.9638 31.8914 51.9846C31.8668 52.0243 31.854 52.0702 31.8545 52.1169C31.8564 52.24 31.9411 52.3376 32.1066 52.4072Z" fill="white"></path>
<path d="M33.4799 52.132V52.0858C33.4778 51.9294 33.4 51.8975 33.3353 51.8985C33.3124 51.8991 33.2899 51.9046 33.2692 51.9145C33.2486 51.9244 33.2302 51.9386 33.2154 51.956C33.1991 51.9721 33.1862 51.9913 33.1774 52.0124C33.1686 52.0336 33.1641 52.0562 33.1641 52.0791C33.1649 52.1468 33.2152 52.2231 33.3175 52.3122L33.5802 52.543C33.6582 52.6124 33.7067 52.709 33.7159 52.813C33.7126 52.8414 33.6992 52.8677 33.6783 52.8871C33.614 52.8399 33.5355 52.8159 33.4558 52.8193C33.3877 52.8202 33.3219 52.8443 33.2693 52.8876C33.2409 52.9077 33.2177 52.9344 33.2017 52.9654C33.1857 52.9963 33.1773 53.0306 33.1774 53.0655C33.178 53.0947 33.1864 53.1233 33.2016 53.1483C33.2168 53.1732 33.2383 53.1938 33.264 53.2078C33.3095 53.2397 33.364 53.2565 33.4196 53.2559C33.5423 53.2504 33.6586 53.2 33.7465 53.1142C33.794 53.077 33.8326 53.0296 33.8596 52.9756C33.8866 52.9216 33.9012 52.8623 33.9025 52.802C33.898 52.5834 33.7564 52.3579 33.4799 52.132Z" fill="white"></path>
<path d="M35.2847 52.239L35.2246 52.222L35.2141 52.2442C35.2054 52.265 35.1916 52.2832 35.1739 52.2972C35.1562 52.3112 35.1353 52.3205 35.1131 52.3242C35.0645 52.3305 35.0151 52.3375 34.9666 52.3453L34.9627 52.3461C34.9357 52.3551 34.911 52.3697 34.89 52.3889C34.869 52.4081 34.8523 52.4314 34.8409 52.4575C34.827 52.4431 34.8059 52.4214 34.7743 52.3888C34.7565 52.3681 34.7344 52.3514 34.7096 52.3399C34.6848 52.3284 34.6578 52.3224 34.6304 52.3222C34.5761 52.3235 34.523 52.3382 34.4756 52.3648C34.4555 52.3755 34.4366 52.3882 34.4192 52.4029C34.4192 52.3934 34.4204 52.3834 34.4209 52.3726C34.4232 52.3252 34.4241 52.2858 34.4237 52.2555C34.4206 52.0096 34.3488 51.8859 34.2105 51.8877C34.1599 51.8877 34.075 51.9096 34.0773 52.0444C34.0764 52.0645 34.0795 52.0845 34.0866 52.1034C34.0936 52.1222 34.1044 52.1394 34.1183 52.1539C34.1454 52.1778 34.1799 52.1914 34.216 52.1924L34.2263 52.9905C34.2263 53.0322 34.2584 53.0825 34.3254 53.1485C34.3924 53.2146 34.4431 53.2453 34.4852 53.2447C34.6084 53.2233 34.7216 53.1636 34.8089 53.074C34.8961 52.9845 34.9529 52.8697 34.9711 52.7461C34.9689 52.7126 34.9606 52.6797 34.9466 52.6492C34.9373 52.6285 34.9307 52.6067 34.9269 52.5843C34.9518 52.5763 34.9778 52.5718 35.004 52.571C35.0725 52.5685 35.14 52.5544 35.2038 52.5293H35.205C35.2373 52.5107 35.2635 52.4833 35.2806 52.4502C35.2976 52.4171 35.3048 52.3798 35.3012 52.3428C35.3018 52.3133 35.298 52.2839 35.2902 52.2554L35.2847 52.239ZM34.7293 52.6327C34.7252 52.7278 34.6917 52.8193 34.6335 52.8946C34.6132 52.9316 34.5852 52.9638 34.5516 52.9893C34.5179 53.0147 34.4792 53.0328 34.4381 53.0422C34.4164 52.9726 34.4073 52.8996 34.4114 52.8268C34.4114 52.801 34.4114 52.7621 34.4121 52.7112C34.4121 52.6669 34.4129 52.6327 34.4128 52.6071C34.4654 52.5699 34.5279 52.5494 34.5923 52.5481C34.626 52.5483 34.659 52.5575 34.6879 52.5747C34.7248 52.5957 34.7292 52.6178 34.7293 52.6327Z" fill="white"></path>
<path d="M45.02 47.1964C44.9404 47.2694 44.8418 47.3183 44.7356 47.3376C44.6757 47.3515 44.6137 47.3532 44.5531 47.3426C44.4569 47.3219 44.4441 47.2785 44.4403 47.2626L44.4343 47.2188L44.46 47.1922L45.5371 46.9485L45.2606 46.7705L43.3007 47.2137L43.1808 47.2404L41.6184 47.5937L41.4769 47.6257L40.6187 47.8198L40.511 47.8441L38.5479 48.2882L38.8324 48.4643L39.7454 48.2578L39.7587 48.3166C39.4712 48.4881 39.2166 48.7094 39.0067 48.9701L38.9836 48.9997L39.2927 49.2458L39.3074 49.2447C39.4477 49.2289 39.5898 49.2452 39.7229 49.2925C39.845 49.3523 39.9505 49.4411 40.0303 49.5511C40.0946 49.6397 40.1739 49.7163 40.2646 49.7776L40.3397 49.8212L40.0474 48.5289C40.1456 48.5101 40.2473 48.5284 40.3329 48.5802C40.4053 48.616 40.4628 48.6762 40.4953 48.7502C40.4556 48.7349 40.4123 48.7316 40.3707 48.7409C40.337 48.7508 40.3041 48.7632 40.2723 48.778L40.2644 48.7814L40.2587 48.7878C40.2319 48.8151 40.2124 48.8487 40.2019 48.8856C40.1914 48.9224 40.1903 48.9613 40.1987 48.9987C40.2058 49.0292 40.2195 49.0579 40.239 49.0825C40.2584 49.1071 40.2832 49.1271 40.3113 49.1409C40.3655 49.172 40.4292 49.1819 40.4902 49.1686C40.5304 49.1602 40.568 49.1426 40.6002 49.1171C40.6323 49.0917 40.6582 49.0592 40.6757 49.0221C40.7136 48.9487 40.7239 48.8642 40.705 48.7838C40.6675 48.6216 40.5732 48.4782 40.4392 48.3794C40.3778 48.3257 40.3051 48.2865 40.2265 48.2648C40.1479 48.243 40.0654 48.2392 39.9852 48.2537L39.9743 48.205L40.7515 48.0293L40.8912 47.9978L41.2014 47.9275C41.0815 48.1252 41.0344 48.3585 41.0681 48.5873C41.105 48.7733 41.1852 48.9481 41.3021 49.0975C41.3585 49.1772 41.4375 49.2382 41.5288 49.2727C41.6201 49.3072 41.7197 49.3137 41.8147 49.2913C41.893 49.2746 41.963 49.231 42.0126 49.1681C42.0379 49.138 42.0557 49.1023 42.0647 49.064C42.0737 49.0257 42.0736 48.9859 42.0644 48.9476C42.0578 48.9171 42.0447 48.8883 42.026 48.8632C42.0074 48.8381 41.9836 48.8173 41.9562 48.8021C41.9036 48.7699 41.8405 48.7594 41.7804 48.773C41.7309 48.7863 41.6872 48.8155 41.6559 48.8561C41.6371 48.8749 41.6232 48.8979 41.6152 48.9233C41.6073 48.9487 41.6056 48.9756 41.6104 49.0017C41.6195 49.0495 41.6427 49.0934 41.677 49.1279C41.6413 49.1263 41.6064 49.1174 41.5743 49.1017C41.5422 49.0861 41.5137 49.064 41.4905 49.0369C41.4206 48.9652 41.3723 48.8752 41.3511 48.7774C41.2904 48.5845 41.2988 48.3765 41.3748 48.1891C41.4888 48.0271 41.6359 47.8912 41.8065 47.7906L42.9514 47.5316L43.0036 47.7627C42.9705 47.7249 42.9281 47.6964 42.8806 47.6801C42.8331 47.6637 42.7821 47.6601 42.7328 47.6695C42.6803 47.688 42.6363 47.7249 42.6089 47.7733C42.59 47.799 42.5742 47.8269 42.5618 47.8564C42.5103 47.8183 42.4508 47.7924 42.3878 47.7804C42.3249 47.7685 42.26 47.7709 42.1981 47.7875C42.142 47.8003 42.0903 47.8276 42.048 47.8666C42.0057 47.9056 41.9744 47.955 41.9571 48.0099C41.9177 48.1153 41.9107 48.2302 41.9372 48.3396C41.9493 48.4018 41.974 48.4608 42.0099 48.513C42.0457 48.5652 42.0919 48.6095 42.1456 48.6431C42.1992 48.6768 42.2592 48.699 42.3219 48.7085C42.3845 48.718 42.4484 48.7146 42.5096 48.6984C42.5727 48.6842 42.6301 48.6513 42.6743 48.604C42.701 48.5816 42.7212 48.5522 42.7326 48.5191C42.744 48.4861 42.7461 48.4505 42.7389 48.4163C42.724 48.3498 42.6892 48.2894 42.6391 48.2431C42.6178 48.2192 42.5912 48.2006 42.5615 48.1887C42.5317 48.1769 42.4995 48.1722 42.4676 48.175C42.4357 48.1778 42.4049 48.1881 42.3777 48.2049C42.3504 48.2218 42.3275 48.2448 42.3107 48.2721C42.2946 48.2945 42.2834 48.32 42.2779 48.347C42.2723 48.374 42.2725 48.4019 42.2785 48.4289C42.2839 48.4501 42.2929 48.4703 42.3051 48.4885C42.2841 48.4838 42.264 48.4758 42.2456 48.4648C42.2267 48.4538 42.2105 48.4388 42.198 48.4209C42.1855 48.403 42.1769 48.3827 42.173 48.3612C42.1592 48.2975 42.171 48.2309 42.2059 48.1758C42.2408 48.1208 42.296 48.0817 42.3595 48.0669C42.4285 48.0476 42.5024 48.0552 42.5661 48.0881C42.6286 48.1304 42.6824 48.1843 42.7245 48.2469L42.7469 48.2771L42.8596 48.1945L42.8452 48.1659C42.8352 48.145 42.8277 48.123 42.8229 48.1003C42.7931 47.9688 42.8389 47.9585 42.854 47.9551C42.9015 47.9464 42.9505 47.9554 42.9917 47.9804C43.012 47.9888 43.0301 48.0016 43.0448 48.0178C43.0594 48.0341 43.0703 48.0535 43.0765 48.0745L43.2763 48.9594L43.5459 49.0882L43.1824 47.4808L43.4588 47.4184L43.5902 47.3887L44.0088 47.2939C43.9704 47.3643 43.9457 47.4128 43.9339 47.4416C43.8981 47.5251 43.8888 47.6176 43.9072 47.7067C43.9316 47.8134 43.9937 47.9077 44.0822 47.9722C44.1251 48.0078 44.1756 48.0332 44.2297 48.0466C44.2839 48.0599 44.3404 48.0609 44.395 48.0493C44.45 48.0334 44.5017 48.0077 44.5476 47.9736C44.5818 47.947 44.6201 47.9262 44.661 47.9121C44.661 47.9121 44.6711 47.9121 44.6925 47.9353C44.7091 47.9509 44.7216 47.9705 44.7288 47.9922C44.7405 48.0441 44.7143 48.0947 44.6489 48.1463C44.5916 48.1907 44.5252 48.2221 44.4545 48.2381C44.3854 48.2571 44.3123 48.2566 44.2434 48.2365C44.1746 48.2165 44.1127 48.1777 44.0646 48.1244C43.97 48.0119 43.8922 47.8863 43.8337 47.7514C43.7227 47.5231 43.6592 47.4755 43.6205 47.4597L43.5647 47.4364L43.5693 47.5138L43.5701 47.5199C43.6219 47.7816 43.7249 48.0306 43.873 48.2526C44.065 48.519 44.2976 48.623 44.5646 48.5626C44.6824 48.5357 44.7858 48.4655 44.8543 48.3658C44.8908 48.3183 44.9163 48.2634 44.929 48.2048C44.9417 48.1463 44.9413 48.0857 44.9279 48.0273C44.8979 47.9302 44.848 47.8404 44.7813 47.7637C44.6825 47.6386 44.5992 47.5857 44.5269 47.6021C44.515 47.6047 44.5015 47.6078 44.3818 47.7093C44.3382 47.7531 44.2858 47.7873 44.2282 47.8096C44.1569 47.8258 44.1441 47.7963 44.1377 47.7689C44.1273 47.6969 44.1382 47.6234 44.1692 47.5576C44.1915 47.4974 44.2226 47.4408 44.2613 47.3896C44.2747 47.4 44.2961 47.4176 44.3305 47.4481C44.3858 47.4987 44.4504 47.5381 44.5207 47.564C44.6271 47.5973 44.7407 47.6003 44.8487 47.5726L45.0107 47.536C44.9958 47.5947 44.9859 47.6546 44.9811 47.7151C44.9705 47.7985 44.9726 47.8831 44.9874 47.9659C45.0154 48.0783 45.0567 48.1869 45.1105 48.2895C45.1631 48.3872 45.2159 48.4861 45.2689 48.5862L45.2762 48.5995L45.2912 48.6042C45.3534 48.6216 45.4189 48.6232 45.4819 48.6088L45.5467 48.5955L45.503 48.5461C45.3967 48.4385 45.3177 48.307 45.2725 48.1627C45.205 47.9189 45.2302 47.6587 45.3434 47.4324L45.3592 47.4032L45.043 47.1727L45.02 47.1964ZM39.8236 48.6015L39.9684 49.241C39.8995 49.1789 39.8255 49.1226 39.7472 49.0729C39.649 49.0157 39.5422 48.9749 39.4308 48.952C39.5428 48.8156 39.6753 48.6973 39.8236 48.6015Z" fill="white"></path>
<path d="M26.6007 50.2871C26.5503 50.2872 26.5019 50.3062 26.4649 50.3404C26.4459 50.3572 26.4307 50.3781 26.4206 50.4014C26.4105 50.4247 26.4056 50.45 26.4063 50.4754C26.4058 50.5032 26.4115 50.5309 26.423 50.5562C26.4345 50.5816 26.4516 50.604 26.4729 50.6219C26.5152 50.6576 26.5692 50.6763 26.6244 50.6744C26.649 50.6741 26.6732 50.6684 26.6953 50.6577C26.7175 50.6469 26.737 50.6315 26.7524 50.6123C26.7855 50.5755 26.8035 50.5275 26.8027 50.4779C26.8025 50.452 26.7968 50.4265 26.786 50.4029C26.7752 50.3794 26.7595 50.3584 26.74 50.3414C26.7025 50.3056 26.6525 50.2862 26.6007 50.2871Z" fill="white"></path>
<path d="M33.4689 49.1341L33.237 48.9119L30.9943 48.941L30.8928 48.9424L29.0906 48.9657L28.9488 48.9676L28.0881 48.9787L28.0013 48.9798L27.909 48.981C27.8826 48.9558 27.8641 48.9234 27.8557 48.8878C27.8464 48.8441 27.8377 48.7989 27.8303 48.7533L27.828 48.74L27.6948 48.6289L27.701 48.7146C27.7097 48.8298 27.7193 48.9477 27.7297 49.0649C27.7326 49.097 27.7356 49.1281 27.7386 49.1582L27.734 49.1507C27.6652 49.0407 27.5893 48.9854 27.5083 48.9865L27.4056 48.9878L27.2643 48.9897L25.8418 49.0081L26.0652 49.2303L27.0096 49.218V49.258C26.698 49.3747 26.4025 49.5308 26.1304 49.7224L26.0992 49.7438L26.3345 50.0563H26.3528C26.487 50.048 26.6204 50.083 26.7332 50.1562C26.8201 50.2306 26.8933 50.3196 26.9497 50.4191C27.0199 50.5359 27.1007 50.646 27.1911 50.7479L27.2546 50.8138L27.234 49.2159L27.4955 49.2126L27.4964 49.2134L27.5113 49.2123H27.5453C27.573 49.2118 27.6003 49.2196 27.6236 49.2346C27.6469 49.2496 27.6653 49.2711 27.6764 49.2965C27.7024 49.3685 27.7141 49.4449 27.7106 49.5214L27.7249 50.6138L27.9522 50.7886L27.9317 49.2074L28.1884 49.204L28.3147 49.2023L28.6309 49.1982C28.4791 49.3599 28.3884 49.5695 28.3746 49.7909C28.3721 49.9729 28.4124 50.1529 28.4923 50.3164C28.5293 50.4025 28.5913 50.4755 28.6701 50.5262C28.749 50.5768 28.8411 50.6028 28.9348 50.6007C29.0117 50.6007 29.0861 50.5738 29.1452 50.5245C29.1749 50.5013 29.1988 50.4714 29.2149 50.4372C29.2309 50.4031 29.2388 50.3656 29.2378 50.3279C29.2377 50.2979 29.2311 50.2683 29.2186 50.241C29.2061 50.2138 29.1879 50.1895 29.1653 50.1699C29.1223 50.1289 29.0648 50.1065 29.0054 50.1074C28.9564 50.1101 28.9096 50.1289 28.8722 50.1607C28.8508 50.1746 28.8332 50.1935 28.8207 50.2157C28.8082 50.2379 28.8012 50.2628 28.8004 50.2883C28.7995 50.335 28.8126 50.3808 28.8378 50.4201C28.8048 50.4114 28.7738 50.3961 28.7469 50.375C28.72 50.3539 28.6976 50.3276 28.6813 50.2975C28.63 50.2163 28.6026 50.1222 28.6023 50.0261C28.5838 49.833 28.6332 49.6394 28.742 49.4787C28.8812 49.3494 29.0464 49.2512 29.2266 49.1907L29.712 49.1844C29.6619 49.2428 29.6292 49.2834 29.6122 49.3081C29.562 49.3793 29.5347 49.4643 29.5342 49.5515C29.5356 49.6566 29.5752 49.7575 29.6456 49.8356C29.6787 49.8776 29.721 49.9116 29.7691 49.935C29.8173 49.9583 29.8701 49.9705 29.9236 49.9706C29.9784 49.9666 30.0321 49.9528 30.082 49.9298C30.1194 49.9118 30.1595 49.8999 30.2007 49.8948C30.2007 49.8948 30.2103 49.8968 30.2256 49.9229C30.2382 49.9409 30.246 49.9617 30.2484 49.9835C30.249 50.0347 30.2144 50.0768 30.1429 50.1122C30.0802 50.1425 30.0117 50.1587 29.9421 50.1596C29.8734 50.1637 29.8049 50.1487 29.7443 50.1161C29.6837 50.0835 29.6333 50.0348 29.5988 49.9753C29.5325 49.8507 29.4846 49.7173 29.4565 49.579C29.3979 49.3424 29.3478 49.2852 29.3152 49.2626L29.2673 49.2297L29.256 49.3031V49.3091C29.2525 49.5651 29.2995 49.8192 29.3943 50.0569C29.5214 50.3449 29.719 50.4892 29.9815 50.4859C30.0975 50.4841 30.2086 50.4389 30.2927 50.3591C30.3364 50.3217 30.3714 50.2752 30.395 50.2228C30.4186 50.1704 30.4304 50.1135 30.4294 50.056C30.4208 49.9589 30.3919 49.8647 30.3447 49.7794C30.2769 49.6422 30.2093 49.576 30.1382 49.5769C30.1265 49.5769 30.1133 49.5769 29.9806 49.6486C29.9309 49.681 29.8749 49.7026 29.8163 49.712C29.7463 49.7129 29.74 49.6835 29.7397 49.6558C29.7442 49.5862 29.7691 49.5194 29.8113 49.4638C29.8441 49.4117 29.8845 49.3647 29.9312 49.3245C29.9416 49.3367 29.9578 49.3576 29.9845 49.3931C30.0262 49.4516 30.079 49.5014 30.1399 49.5396C30.2332 49.5922 30.3394 49.6177 30.4464 49.6132L30.6062 49.6112C30.5805 49.6633 30.5592 49.7175 30.5427 49.7733C30.516 49.8495 30.5011 49.9292 30.4984 50.0099C30.5024 50.121 30.5195 50.2312 30.5495 50.3383C30.5793 50.4408 30.6092 50.5441 30.6391 50.6483L30.6431 50.6627L30.6564 50.67C30.7114 50.6988 30.7727 50.7134 30.8347 50.7125L30.898 50.7134L30.8668 50.6583C30.7884 50.5361 30.7404 50.3969 30.7271 50.2524C30.7123 50.01 30.7879 49.7709 30.9393 49.581L30.9599 49.5568L30.7089 49.277L30.683 49.294C30.5937 49.3465 30.4913 49.3728 30.3877 49.3698C30.3288 49.3708 30.2702 49.36 30.2155 49.3379C30.1293 49.2994 30.126 49.2561 30.1257 49.2399L30.1288 49.1976L30.1581 49.178L31.0649 49.1663L31.2178 49.1643L31.9423 49.1549L31.9462 49.458C31.903 49.4124 31.8556 49.371 31.8047 49.3343C31.7268 49.2706 31.6308 49.2329 31.5304 49.2265C31.4902 49.2264 31.4504 49.2344 31.4134 49.25C31.3763 49.2657 31.3428 49.2886 31.3148 49.3174C31.2862 49.3456 31.2637 49.3795 31.2488 49.4168C31.2338 49.4541 31.2267 49.4941 31.228 49.5343C31.2291 49.5634 31.237 49.5919 31.251 49.6174C31.265 49.643 31.2848 49.665 31.3087 49.6816C31.3521 49.7193 31.4074 49.7404 31.4648 49.7413C31.5162 49.7383 31.5658 49.7216 31.6084 49.693C31.6326 49.6818 31.6533 49.6643 31.6684 49.6424C31.6835 49.6204 31.6924 49.5948 31.6941 49.5683C31.6942 49.545 31.6902 49.5218 31.6824 49.4999C31.7361 49.5105 31.7852 49.5375 31.8229 49.5772C31.8689 49.6247 31.9113 49.6756 31.9498 49.7295L31.9527 49.9579L32.2101 50.1884L32.2307 50.1439C32.2887 50.0202 32.3701 49.909 32.4705 49.8164C32.5511 49.7408 32.645 49.6806 32.7474 49.6389C32.7283 49.6938 32.7168 49.7511 32.7131 49.8091L32.7155 49.999C32.7192 50.0577 32.7297 50.1159 32.7471 50.1722C32.7625 50.2226 32.7722 50.2746 32.776 50.3272L32.7768 50.3938C32.6616 50.3028 32.4725 50.2599 32.2032 50.2635C32.0682 50.2653 31.9767 50.2635 31.9304 50.2593C31.8472 50.2517 31.7673 50.2225 31.6988 50.1746C31.6878 50.1461 31.6799 50.1166 31.6751 50.0865C31.6703 50.0541 31.6659 50.0208 31.6617 49.9875L31.6599 49.9729L31.5357 49.8725L31.5152 49.9117C31.4883 49.9671 31.4757 50.0284 31.4784 50.09C31.4785 50.1475 31.49 50.2045 31.5121 50.2576C31.5343 50.3108 31.5667 50.359 31.6075 50.3996C31.6471 50.4413 31.6951 50.4742 31.7483 50.4962C31.8015 50.5182 31.8587 50.5287 31.9162 50.5271L32.3012 50.5221C32.4206 50.5162 32.5403 50.5223 32.6585 50.5402C32.7129 50.5516 32.7639 50.5758 32.8071 50.6108C32.8504 50.6458 32.8847 50.6906 32.9072 50.7414L32.9788 50.8962L32.9722 50.3941C32.968 50.0625 32.9708 49.9606 32.974 49.934C33.0022 49.7814 33.0532 49.6339 33.1253 49.4965L33.1386 49.4682L32.8322 49.2613L32.8142 49.2688C32.6869 49.3244 32.5654 49.3926 32.4516 49.4725L32.174 49.6672L32.1673 49.1521L33.4689 49.1341ZM27.0147 49.5564L27.0233 50.2242C26.8973 50.0503 26.7308 49.9097 26.5381 49.8146C26.6821 49.7035 26.843 49.6164 27.0147 49.5564Z" fill="white"></path>
<path d="M15.6637 48.7571C15.6156 48.747 15.5656 48.7554 15.5235 48.7806C15.502 48.7927 15.4834 48.8094 15.469 48.8295C15.4546 48.8496 15.4449 48.8727 15.4404 48.897C15.4342 48.9234 15.4339 48.9509 15.4397 48.9774C15.4455 49.0039 15.4571 49.0287 15.4737 49.0502C15.5065 49.0927 15.554 49.1215 15.6069 49.1309C15.6303 49.1356 15.6545 49.1351 15.6778 49.1294C15.701 49.1237 15.7227 49.113 15.7413 49.098C15.7802 49.0696 15.807 49.0276 15.8165 48.9804C15.8215 48.9557 15.8213 48.9302 15.8158 48.9056C15.8103 48.881 15.7997 48.8579 15.7846 48.8377C15.7564 48.796 15.713 48.767 15.6637 48.7571Z" fill="white"></path>
<path d="M20.1607 49.6575C20.1127 49.6474 20.0627 49.6558 20.0206 49.681C19.999 49.6931 19.9804 49.7098 19.966 49.7299C19.9517 49.75 19.9419 49.773 19.9374 49.7973C19.9312 49.8237 19.931 49.8512 19.9368 49.8777C19.9426 49.9042 19.9542 49.9291 19.9709 49.9505C20.0037 49.993 20.0512 50.0218 20.1041 50.0312C20.1275 50.036 20.1517 50.0355 20.1749 50.0298C20.1981 50.0241 20.2198 50.0134 20.2384 49.9983C20.2774 49.97 20.3042 49.9279 20.3135 49.8807C20.3186 49.856 20.3184 49.8306 20.3129 49.806C20.3074 49.7814 20.2968 49.7583 20.2817 49.7381C20.2536 49.6964 20.2101 49.6674 20.1607 49.6575Z" fill="white"></path>
<path d="M19.8241 48.3123L19.6999 48.2874L19.5708 48.2616L19.5494 48.1599C19.5928 48.0665 19.6685 47.9919 19.7625 47.9498C19.8606 47.9011 19.9722 47.8863 20.0796 47.9079C20.2192 47.9349 20.3497 47.9971 20.4587 48.0884C20.564 48.1873 20.6636 48.2921 20.7569 48.4024L20.8146 48.4673L20.8187 48.3807C20.8255 48.2393 20.7244 48.0889 20.5096 47.9205C20.3645 47.7958 20.1929 47.7057 20.0078 47.657C19.8663 47.6321 19.7205 47.655 19.5935 47.722C19.5261 47.7487 19.466 47.7909 19.4181 47.8453C19.3702 47.8996 19.3358 47.9645 19.3178 48.0347C19.3133 48.1027 19.3346 48.1699 19.3777 48.2228L19.1417 48.1755L19.0269 48.1525L18.9709 48.1413C18.9511 48.1119 18.9403 48.0774 18.9396 48.0419C18.9396 47.9985 18.9407 47.9537 18.9427 47.9087L18.9433 47.8954L18.8394 47.7621L18.828 47.8449C18.8127 47.9562 18.7979 48.0703 18.7839 48.1839C18.7802 48.2151 18.7767 48.2449 18.7735 48.2738L18.7706 48.2658C18.7275 48.1473 18.6665 48.0793 18.5894 48.0637L18.4945 48.0447L18.3568 48.0171L16.6939 47.6841L16.5516 47.6556L15.3126 47.407L15.203 47.385L13.6484 47.0732L13.7083 47.1488C13.7418 47.197 13.7719 47.2477 13.7982 47.3003C13.8251 47.3562 13.8611 47.4072 13.9048 47.4513C13.9655 47.5011 14.0383 47.5339 14.1158 47.5466C14.1688 47.552 14.2188 47.574 14.2586 47.6095C14.3002 47.6852 14.3132 47.7735 14.2951 47.8581C14.2484 47.903 14.2025 47.9474 14.1573 47.9913C14.1187 48.0308 14.0707 48.0598 14.0179 48.0757L13.9816 48.0491C13.9584 47.9987 13.9442 47.9446 13.9398 47.8892L13.9385 47.8258L13.752 47.9466L13.7577 47.9709C13.8164 48.2182 13.9022 48.3498 14.0201 48.3734C14.069 48.382 14.1192 48.3789 14.1667 48.3644C14.2142 48.3499 14.2575 48.3243 14.2932 48.2898L14.2962 48.2872C14.359 48.2203 14.4207 48.1542 14.4813 48.0888C14.5011 48.0636 14.5267 48.0437 14.556 48.0307C14.5852 48.0177 14.6172 48.012 14.6491 48.0142C14.7806 48.0408 14.7556 48.3087 14.7114 48.529C14.7034 48.5689 14.6894 48.625 14.67 48.696C14.6491 48.7736 14.6348 48.8314 14.6276 48.8676L14.6242 48.8844L14.8048 49.0976L15.1072 47.5895L15.3713 47.6428L15.4852 47.6655L16.272 47.8234L16.2645 47.8609C15.9444 47.9085 15.6317 47.9968 15.334 48.1236L15.3 48.1377L15.4599 48.4827L15.4774 48.4862C15.6069 48.5059 15.7265 48.5666 15.8189 48.6594C15.8863 48.7478 15.9379 48.8473 15.9713 48.9534C16.0143 49.0788 16.0687 49.1999 16.1338 49.3154L16.181 49.3909L16.4865 47.8671L16.7283 47.9156L16.8705 47.9441L17.5849 48.0873L17.5738 48.1425C17.2636 48.1792 16.9623 48.2707 16.6842 48.4129L16.6533 48.4293L16.8229 48.7568L16.8362 48.7614C16.9618 48.8014 17.0767 48.8695 17.172 48.9605C17.2534 49.0579 17.3096 49.1737 17.3356 49.2979C17.3565 49.398 17.3947 49.4937 17.4486 49.5806L17.496 49.6463L17.7392 48.434C17.83 48.4553 17.9097 48.5096 17.9628 48.5864C18.0109 48.6445 18.0371 48.7176 18.0366 48.793C18.0086 48.7649 17.9729 48.7456 17.9339 48.7377C17.9014 48.7333 17.8687 48.7313 17.8359 48.7319H17.8279L17.8206 48.7352C17.7873 48.7482 17.7579 48.7694 17.7349 48.7968C17.712 48.8241 17.6963 48.8568 17.6893 48.8919C17.6836 48.9206 17.6844 48.9503 17.6916 48.9787C17.6988 49.0071 17.7123 49.0336 17.731 49.0561C17.7653 49.1033 17.8159 49.1359 17.8729 49.1478C17.9101 49.1559 17.9487 49.1553 17.9857 49.146C18.0227 49.1368 18.057 49.1191 18.0861 49.0945C18.1463 49.0463 18.1873 48.9782 18.2017 48.9025C18.2316 48.75 18.2059 48.5919 18.1292 48.4568C18.0974 48.3876 18.0504 48.3266 17.9917 48.2782C17.933 48.2297 17.8642 48.1952 17.7903 48.177L17.7995 48.1314L18.5333 48.2786L18.534 48.2796L18.5485 48.2816L18.581 48.2881C18.6074 48.2934 18.6316 48.3063 18.6507 48.3252C18.6698 48.3442 18.6829 48.3683 18.6884 48.3947C18.6984 48.4685 18.6939 48.5436 18.675 48.6157L18.4661 49.6574L18.6468 49.8705L18.9492 48.3624L19.1958 48.4119L19.3144 48.4356L19.3745 48.4477L19.1061 49.7863L19.2868 49.9995L19.5892 48.4914L19.869 48.5473L19.9636 48.5664L20.7697 48.728L20.7622 48.7656C20.4421 48.8132 20.1294 48.9015 19.8317 49.0283L19.7977 49.0424L19.9576 49.3873L19.9752 49.3909C20.1045 49.4103 20.2242 49.4708 20.3166 49.5633C20.384 49.6518 20.4356 49.7513 20.469 49.8575C20.512 49.9828 20.5664 50.1039 20.6315 50.2193L20.6787 50.2948L20.9842 48.771L21.3683 48.848L21.1929 48.5896L19.8241 48.3123ZM20.7033 49.0479L20.5756 49.6848C20.4912 49.4937 20.3614 49.3261 20.1976 49.1964C20.3571 49.1202 20.5278 49.0701 20.7032 49.0481L20.7033 49.0479ZM17.5193 48.4084L17.3994 49.0087C17.3644 48.9295 17.3228 48.8535 17.275 48.7813C17.2131 48.6952 17.1376 48.6197 17.0515 48.5579C17.1986 48.4843 17.3562 48.434 17.5188 48.4089L17.5193 48.4084ZM16.2062 48.1458L16.0784 48.7828C15.994 48.5916 15.8643 48.4239 15.7005 48.2942C15.8598 48.2181 16.0304 48.1682 16.2056 48.1463L16.2062 48.1458ZM14.8915 47.5463L14.8197 47.9043C14.8101 47.8834 14.8005 47.8627 14.7911 47.8427L14.7898 47.8401C14.7754 47.8093 14.7546 47.7819 14.7287 47.7599C14.7027 47.738 14.6724 47.7219 14.6396 47.7128C14.5947 47.7041 14.5481 47.7095 14.5064 47.7283L14.4648 47.7464C14.4758 47.6799 14.4684 47.6117 14.4432 47.5491C14.4273 47.5126 14.408 47.4777 14.3854 47.4448L14.8915 47.5463Z" fill="white"></path>
</svg><style>@media (prefers-color-scheme: light) { :root { filter: none; } }
</style></svg>