<svg width="119" height="24" viewBox="0 0 119 24" fill="none" xmlns="http://www.w3.org/2000/svg">
<path d="M17.8191 8.23234C15.0311 6.67294 10.5562 4.1689 3.61527 0.282579C3.14739 -0.0265413 2.60895 -0.0669824 2.14371 0.0904577L14.0524 11.9991L17.8191 8.23234Z" fill="#32BBFF"/>
<path d="M2.14444 0.0904541C2.0572 0.119974 1.97236 0.155616 1.89124 0.198576C1.37752 0.476496 1 1.01122 1 1.68742V22.3106C1 22.987 1.37752 23.5217 1.89124 23.7995C1.97224 23.8424 2.05696 23.8782 2.14408 23.908L14.053 11.999L2.14444 0.0904541Z" fill="#32BBFF"/>
<path d="M14.0526 11.9991L2.14371 23.908C2.60907 24.0666 3.14751 24.0292 3.61563 23.7156C10.3468 19.9464 14.7712 17.4721 17.5915 15.8994C17.67 15.8553 17.7469 15.8121 17.8229 15.7694L14.0526 11.9991Z" fill="#32BBFF"/>
<path d="M1 11.9991V22.3108C1 22.987 1.37752 23.5217 1.89124 23.7995C1.97224 23.8424 2.05696 23.8782 2.14408 23.908L14.053 11.9991H1Z" fill="#2C9FD9"/>
<path d="M3.61538 0.282584C3.05966 -0.0843764 2.40434 -0.073937 1.89062 0.198703L13.8717 12.1797L17.8191 8.23235C15.0311 6.67295 10.5563 4.16891 3.61538 0.282584Z" fill="#29CC5E"/>
<path d="M13.8718 11.8184L1.89062 23.7995C2.40434 24.072 3.05966 24.0878 3.61538 23.7156C10.3465 19.9464 14.7709 17.472 17.5913 15.8994C17.6698 15.8552 17.7467 15.8121 17.8228 15.7694L13.8718 11.8184Z" fill="#D93F21"/>
<path d="M22.7921 11.9992C22.7921 11.4277 22.5038 10.851 21.9323 10.5313C21.9323 10.5313 20.8636 9.93491 17.5878 8.10275L13.6914 11.9992L17.5917 15.8994C20.8314 14.0803 21.9322 13.4669 21.9322 13.4669C22.5038 13.1472 22.7921 12.5705 22.7921 11.9992Z" fill="#FFD500"/>
<path d="M21.9323 13.467C22.5038 13.1472 22.7921 12.5705 22.7921 11.9991H13.6914L17.5917 15.8994C20.8314 14.0803 21.9323 13.467 21.9323 13.467Z" fill="#FFAA00"/>
<path fill-rule="evenodd" clip-rule="evenodd" d="M66.7493 19.9349C66.2168 19.5089 65.7907 18.7633 65.5777 18.3373L67.2819 17.5917C67.3884 17.8047 67.6014 18.1243 67.8144 18.4438C68.2405 18.8698 68.8795 19.2959 69.5186 19.2959C70.1576 19.2959 70.9032 18.9763 71.3292 18.4438C71.6487 17.9112 71.8617 17.3787 71.8617 16.6331V15.9941C70.5836 17.5917 67.9209 17.3787 66.4298 15.6746C64.8321 13.9704 64.8321 11.0947 66.4298 9.3905C68.0274 7.7929 70.3706 7.5799 71.7552 9.071V8.3254H73.5659V16.3136C73.5659 18.3373 72.8203 19.5089 71.8617 20.2544C71.2227 20.787 70.2641 21 69.4121 21C68.4535 20.8935 67.4949 20.574 66.7493 19.9349ZM111.377 20.3609L113.187 16.1006L109.992 8.7515H111.803L114.039 13.9704L116.276 8.7515H118.087L113.187 20.3609H111.377ZM102.749 16.3136C102.217 15.7811 102.004 15.0355 102.004 14.2899C102.004 13.6509 102.217 13.0118 102.643 12.5858C103.388 11.8402 104.453 11.5207 105.625 11.5207C106.371 11.5207 107.01 11.6272 107.542 11.9467C107.542 10.6686 106.477 10.1361 105.625 10.1361C104.88 10.1361 104.134 10.5621 103.814 11.3077L102.217 10.6686C102.536 9.9231 103.388 8.5385 105.519 8.5385C106.584 8.5385 107.649 8.858 108.288 9.6036C108.927 10.3491 109.14 11.2012 109.14 12.3728V16.8462H107.329V16.1006C107.116 16.4201 106.69 16.6331 106.371 16.8462C105.945 17.0592 105.412 17.1657 104.879 17.1657C104.24 17.0592 103.282 16.8462 102.749 16.3136ZM45.9801 12.4793C45.9801 10.3491 47.5777 8.0059 50.4535 8.0059C53.2227 8.0059 54.9268 10.3491 54.9268 12.4793C54.9268 14.6095 53.3292 16.9527 50.4535 16.9527C47.5777 16.9527 45.9801 14.6095 45.9801 12.4793ZM55.5659 12.4793C55.5659 10.3491 57.1635 8.0059 60.0393 8.0059C62.8085 8.0059 64.5126 10.3491 64.5126 12.4793C64.5126 14.6095 62.915 16.9527 60.0393 16.9527C57.27 16.9527 55.5659 14.6095 55.5659 12.4793ZM33.9446 14.8225C31.2819 12.1598 31.3884 7.7929 34.0511 5.0237C35.4357 3.6391 37.1399 3 38.9505 3C40.6546 3 42.3588 3.6391 43.6369 4.9172L42.3588 6.3018C40.4416 4.3846 37.3529 4.4911 35.5422 6.4083C33.6251 8.432 33.6251 11.5207 35.5422 13.5444C37.4594 15.568 40.6546 15.6746 42.5718 13.6509C43.2109 13.0118 43.4239 12.1598 43.5304 11.3077H39.057V9.3905H45.341C45.4475 9.8166 45.4476 10.3491 45.4476 10.8817C45.4476 12.4793 44.8085 14.0769 43.7434 15.142C42.5718 16.3136 40.8677 16.9527 39.1635 16.9527C37.2464 16.8462 35.3292 16.2071 33.9446 14.8225ZM78.998 15.568C77.4 13.8639 77.4 10.9882 78.998 9.1775C80.595 7.4734 83.258 7.4734 84.749 9.1775C85.282 9.7101 85.601 10.4556 85.921 11.2012L80.063 13.6509C80.382 14.3964 81.128 15.0355 82.193 15.0355C83.152 15.0355 83.791 14.716 84.43 13.7574L86.027 14.8225C85.814 15.0355 85.601 15.2485 85.495 15.4615C83.684 17.2722 80.595 17.2722 78.998 15.568ZM90.075 16.8462V5.0237H93.909C96.146 5.0237 97.956 6.6213 97.956 8.5385C97.956 10.4556 96.359 12.0533 94.335 12.0533H91.992V16.7396H90.075V16.8462ZM99.022 16.8462V5.0237H100.832V16.8462H99.022ZM74.9505 16.6331V3.426H76.868V16.6331H74.9505ZM107.436 13.3314C107.01 13.0118 106.371 12.9053 105.732 12.9053C104.453 12.9053 103.708 13.5444 103.708 14.2899C103.708 15.0355 104.453 15.4615 105.199 15.4615C106.264 15.4615 107.436 14.6095 107.436 13.3314ZM52.9032 12.4793C52.9032 11.2012 52.0511 9.8166 50.4535 9.8166C48.8558 9.8166 48.0038 11.2012 48.0038 12.4793C48.0038 13.7574 48.8558 15.142 50.4535 15.142C51.9446 15.142 52.9032 13.7574 52.9032 12.4793ZM62.489 12.4793C62.489 11.2012 61.6369 9.8166 60.0393 9.8166C58.4416 9.8166 57.5896 11.2012 57.5896 12.4793C57.5896 13.7574 58.4416 15.142 60.0393 15.142C61.6369 15.142 62.489 13.7574 62.489 12.4793ZM71.9683 13.2248C71.9683 13.1183 71.9683 13.0118 72.0748 12.9053C72.0748 12.7988 72.0748 12.5858 72.0748 12.4793C72.0748 12.3728 72.0748 12.1598 72.0748 12.0533V11.9467C72.0748 11.8402 71.9683 11.6272 71.9683 11.5207C71.6487 10.4556 70.6901 9.7101 69.7316 9.7101C68.4535 9.7101 67.3884 10.9882 67.3884 12.3728C67.3884 13.8639 68.4535 15.0355 69.8381 15.0355C70.6902 15.142 71.5422 14.3964 71.9683 13.2248ZM79.743 12.2663L83.684 10.5621C83.258 9.8166 82.619 9.6036 82.087 9.6036C80.489 9.7101 79.53 11.4142 79.743 12.2663ZM96.039 8.645C96.039 7.5799 95.187 6.8343 94.016 6.8343H91.885V10.5621H94.122C95.187 10.5621 96.039 9.7101 96.039 8.645Z" fill="#172B4D"/>
</svg>
