<svg width="24" height="24" viewBox="0 0 24 24" fill="none" xmlns="http://www.w3.org/2000/svg">
<path d="M21.0751 7.6875L13.2001 1.2C12.4876 0.6 11.4751 0.6 10.7626 1.2L2.88755 7.6875C2.43755 8.0625 2.17505 8.5875 2.17505 9.1875V21.375C2.17505 22.425 3.03755 23.2875 4.08755 23.2875H19.8376C20.8876 23.2875 21.7501 22.425 21.7501 21.375V9.15C21.7876 8.5875 21.5251 8.025 21.0751 7.6875V7.6875ZM18.4125 19.575C18.4125 20.025 18.0376 20.4 17.5876 20.4H6.41255C5.96255 20.4 5.58755 20.025 5.58755 19.575V18.825C5.58755 18.375 5.96255 18 6.41255 18H17.5876C18.0376 18 18.4125 18.375 18.4125 18.825V19.575Z" fill="#172B4D"/>
</svg>
