<svg width="250" height="126" viewBox="0 0 250 126" fill="none" xmlns="http://www.w3.org/2000/svg">
<path fill-rule="evenodd" clip-rule="evenodd" d="M74.2438 5.0708C65.6 5.29739 58.2447 8.19744 52.1777 13.7713C50.5139 15.2975 49.0354 16.9512 47.7425 18.733C43.5372 24.5244 41.4346 31.2456 41.4346 38.8964C41.4346 59.8339 41.4112 80.7717 41.3646 101.709C41.3602 103.879 41.3279 105.24 41.2679 105.791C40.6148 111.8 37.899 116.612 33.1206 120.226C32.9207 120.377 32.945 120.453 33.1939 120.453C38.5498 120.453 43.9071 120.435 49.2653 120.4C57.2184 120.346 63.7229 117.316 68.7789 111.309C71.4647 108.119 73.1875 104.438 73.9473 100.266C74.2095 98.8245 74.3405 96.6109 74.3405 93.6252V18.1532C74.3405 18.1452 74.3473 17.3667 74.3608 15.8177C74.3699 14.7783 74.382 13.3919 74.3971 11.6586C74.4148 9.49268 74.3961 7.32773 74.3405 5.1641C74.3388 5.11245 74.2955 5.0708 74.2438 5.0708ZM1.78757 95.0214C2.53633 99.0577 4.50235 102.512 7.68565 105.385C11.2488 108.599 15.3341 110.206 19.9416 110.206H32.5275C32.6918 110.206 32.7085 110.156 32.5775 110.056C28.5122 106.96 26.4252 102.816 26.3162 97.6272C26.2872 96.192 26.2729 93.9707 26.2729 90.9627V54.478C26.2729 51.4146 26.1553 49.1987 25.9197 47.8301C25.1909 43.6025 23.4182 39.7928 20.6014 36.4005C15.8273 30.6447 9.51605 27.6111 1.66762 27.3002H1.66759C1.66593 27.3002 1.66428 27.3002 1.66229 27.2998C1.54732 27.2975 1.45035 27.3898 1.44769 27.5051V27.5101V88.3769C1.44769 91.5915 1.56098 93.8061 1.78757 95.0214Z" fill="white"/>
<path d="M248.485 35.8138C248.522 35.8486 248.522 35.9058 248.485 35.9407L237.628 46.6572C237.591 46.6921 237.533 46.6921 237.5 46.6572L232.866 42.084C232.828 42.0491 232.828 41.9919 232.866 41.957L243.723 31.2405C243.76 31.2056 243.818 31.2056 243.851 31.2405L248.485 35.8138Z" fill="#172B4D"/>
<path d="M101.272 54.2206L86.5811 54.2007C86.4316 54.2007 86.3083 54.0807 86.3083 53.9348V48.7235C86.3083 48.6287 86.3875 48.5506 86.4835 48.5506H117.841C117.85 48.5506 117.86 48.55 117.869 48.5486C117.96 48.5347 118.023 48.4473 118.009 48.3555C118.007 48.3472 118.005 48.3393 118.003 48.3313C116.86 44.8193 114.574 42.3721 111.146 40.9895C109.002 40.1254 106.56 39.6312 103.821 39.5072C99.0094 39.2902 94.2655 39.7432 89.5886 40.8666C89.5849 40.8676 89.5812 40.8682 89.5771 40.8689C89.4987 40.8815 89.4239 40.8297 89.4114 40.7542C89.4108 40.7506 89.4105 40.7472 89.4101 40.7436C89.2778 39.115 89.2845 37.4875 89.4303 35.8613C89.4387 35.7592 89.5101 35.6728 89.6088 35.6452C95.4375 33.9768 101.157 33.3762 106.768 33.8439C108.097 33.9545 109.55 34.2351 111.126 34.6847C112.691 35.1324 114.056 35.6742 115.221 36.31C119.258 38.5102 122.013 41.8792 123.486 46.4169C124.287 48.8853 124.659 51.378 124.6 53.8949C124.597 54.0638 124.454 54.2007 124.28 54.2007H108.597C108.477 54.2007 108.378 54.2958 108.374 54.4134C108.293 57.5286 108.28 60.5753 108.334 63.5532C108.361 65.0332 108.484 66.0416 108.704 66.5776C109.165 67.692 110.063 68.3581 111.399 68.5751C112.613 68.7722 114.059 68.6074 115.736 68.0799C118.954 67.0652 121.968 65.6979 124.779 63.9786C124.785 63.9746 124.792 63.971 124.798 63.968C124.892 63.9238 125.005 63.963 125.05 64.0551C125.053 64.0614 125.056 64.068 125.058 64.075C125.786 66.1622 126.278 68.2527 126.534 70.3466C126.814 72.6355 126.856 74.7659 126.658 76.7378C126.38 79.5296 125.555 82.1396 124.183 84.5681C123.031 86.6088 121.61 88.3038 119.919 89.6532C117.638 91.4788 114.988 92.6444 111.968 93.1495C110.65 93.3689 109.169 93.4753 107.526 93.4686C99.6068 93.4354 93.7478 90.144 89.949 83.5943C88.6648 81.3785 87.7599 78.8094 87.2345 75.887C86.5788 72.2467 86.5229 68.2926 87.0661 64.0252C87.0779 63.9304 87.1594 63.8583 87.2547 63.859L93.5424 63.8424C93.5475 63.8424 93.5525 63.8424 93.5579 63.8427C93.7165 63.85 93.8408 63.9866 93.8334 64.1448C93.8331 64.1505 93.8327 64.1561 93.8321 64.1614C93.4727 67.3544 93.4592 70.4596 93.7916 73.4774C93.9981 75.3542 94.4494 77.1509 95.1455 78.8682C95.8908 80.7118 96.852 82.2715 98.0283 83.5478C100.918 86.6786 104.785 87.9748 109.63 87.4363C113.241 87.0352 115.966 85.5309 117.808 82.9229C118.775 81.5513 119.463 79.8709 119.872 77.8811C120.236 76.1196 120.351 74.2817 120.219 72.3673C120.218 72.3563 120.216 72.3454 120.213 72.3351C120.189 72.2546 120.102 72.2081 120.021 72.2317C120.01 72.235 120 72.239 119.99 72.2443C117.298 73.7044 114.538 74.4588 111.712 74.5077C109.529 74.5432 107.647 74.1278 106.064 73.2613C104.171 72.2244 102.862 70.6813 102.137 68.6316C101.749 67.5348 101.535 65.7012 101.497 63.1311C101.45 60.2154 101.431 57.3006 101.44 54.3868V54.3852C101.441 54.2958 101.366 54.2216 101.273 54.2206H101.272Z" fill="#172B4D"/>
<path d="M136.394 72.57C134.05 70.5736 132.491 68.1763 131.717 65.3778C131.11 63.1866 130.931 61.0396 131.178 58.9368C131.45 56.6259 132.345 54.5806 133.865 52.8015C135.015 51.4564 136.402 50.4128 138.028 49.6707C139.615 48.9485 141.348 48.5197 143.224 48.3845C145.373 48.2316 147.363 48.4067 149.196 48.9096C153.565 50.1127 156.322 52.7307 157.467 56.7632C157.824 58.0218 157.986 59.319 157.952 60.6551C157.921 61.9955 157.708 63.3029 157.315 64.5769C157.221 64.878 156.937 65.0847 156.618 65.0854H150.573C150.558 65.0854 150.543 65.0844 150.529 65.0817C150.403 65.0588 150.319 64.9385 150.342 64.8145C150.345 64.8005 150.349 64.7866 150.354 64.773C151.014 63.0823 151.288 61.2742 151.176 59.3489C151.021 56.721 149.767 55.0116 147.414 54.2206C146.121 53.7862 144.783 53.6955 143.4 53.9481C142.028 54.1964 140.897 54.7348 140.008 55.5634C138.987 56.5162 138.409 57.7027 138.277 59.1229C137.891 63.2664 139.337 66.6175 142.615 69.1767C143.773 70.0807 144.866 70.8318 145.892 71.4301C148.126 72.7352 150.35 74.059 152.563 75.4017C153.843 76.1771 155.06 77.0346 156.214 77.9741C157.528 79.042 158.56 80.1012 159.312 81.1515C161.095 83.6418 162.047 86.54 162.168 89.8459C162.238 91.7513 162.248 93.1429 162.199 94.0203C162.194 94.1154 162.117 94.1915 162.024 94.1931L155.413 94.2696C155.318 94.2716 155.236 94.1995 155.224 94.1034C155.121 93.122 155.068 92.1382 155.066 91.1521C155.059 89.8293 154.981 88.8532 154.833 88.224C154.095 85.1042 152.304 82.6461 149.462 80.849C147.241 79.4422 144.973 78.1127 142.659 76.8608C140.416 75.6467 138.328 74.2162 136.394 72.57Z" fill="#172B4D"/>
<path fill-rule="evenodd" clip-rule="evenodd" d="M167.473 54.1676C174.089 54.2583 180.706 54.3038 187.323 54.3038C187.417 54.3038 187.494 54.3766 187.494 54.4667L187.508 58.6777C187.508 58.8146 187.41 58.9339 187.272 58.9635C184.962 59.4464 182.814 60.1334 180.829 61.0241C175.201 63.5566 170.116 66.8945 165.577 71.038C165.497 71.1101 165.452 71.2115 165.452 71.3172V77.8613C165.452 78.0281 165.532 78.185 165.668 78.2834L187.211 94.0836C187.36 94.1936 187.545 94.2531 187.74 94.2531L194.018 94.3096H194.021C194.099 94.3106 194.163 94.2498 194.163 94.175V94.1733L194.267 64.8562V64.8545C194.267 64.7651 194.345 64.6923 194.435 64.6933C197.268 64.7242 199.723 65.3879 201.804 66.6841C203.337 67.6413 204.222 68.9983 204.458 70.7555C204.569 71.5864 204.589 72.4581 204.515 73.3711C204.431 74.3705 204.158 75.2157 203.697 75.907C202.919 77.0726 201.818 77.7393 200.396 77.9078C199.753 77.9852 198.992 78.0341 198.12 78.054C197.887 78.0593 197.699 78.2514 197.699 78.4828V83.2687C197.699 83.2863 197.692 83.405 197.679 83.6243C197.648 84.1362 197.887 84.3721 198.389 84.3322C198.78 84.3013 198.995 84.2857 199.036 84.2857C202.252 84.3366 204.97 83.4691 207.193 81.6834C209.426 79.8863 210.726 77.4834 211.086 74.4746C211.608 70.1383 210.52 66.6432 207.823 63.9887C206.432 62.6171 204.539 61.4485 202.151 60.4823C199.72 59.5009 197.177 58.9326 194.523 58.7774C194.368 58.7684 194.247 58.6418 194.25 58.4915L194.264 54.4667C194.264 54.3773 194.341 54.3038 194.435 54.3038L217.367 54.2839C217.525 54.2839 217.653 54.4115 217.653 54.5664V59.0532C217.653 59.1755 217.717 59.2918 217.825 59.3623L229.373 67.0298C229.38 67.0334 229.383 67.0377 229.39 67.0427C229.44 67.0889 229.44 67.1687 229.393 67.2189C229.389 67.2218 229.387 67.2247 229.384 67.2273C229.381 67.2291 229.379 67.2309 229.377 67.2325L217.694 75.7907C217.562 75.8864 217.485 76.0383 217.485 76.1995V82.5973C217.485 82.7732 217.589 82.9353 217.751 83.0128C225.527 86.6597 233.249 90.2804 240.918 93.8742C241.42 94.1112 241.952 94.2331 242.508 94.2398C244.458 94.2621 246.411 94.2587 248.364 94.2298C248.455 94.2298 248.533 94.1547 248.533 94.0636L248.553 48.82C248.553 48.7179 248.469 48.6338 248.364 48.6338H166.462C166.335 48.6338 166.23 48.7359 166.23 48.8598L166.21 53.6851C166.21 53.7008 166.211 54.0127 166.213 54.0283C166.238 54.1995 166.404 54.3198 166.579 54.2945C166.595 54.2922 166.612 54.2886 166.627 54.2839C166.904 54.2018 167.185 54.1633 167.473 54.1676ZM222.126 54.2841C221.897 54.2841 221.876 54.3482 222.065 54.4768L241.48 67.6814C241.693 67.8276 241.797 67.7734 241.797 67.5185V54.55C241.797 54.4041 241.672 54.2841 241.524 54.2841H222.126ZM171.602 74.7539C171.597 74.7506 171.593 74.7473 171.589 74.7436C171.522 74.6831 171.519 74.5781 171.582 74.511C171.585 74.5076 171.588 74.5043 171.591 74.5013C173.282 72.9702 174.947 71.6065 176.586 70.41C179.842 68.028 183.407 66.2233 187.282 64.9959C187.292 64.9933 187.299 64.9909 187.309 64.9896C187.403 64.975 187.494 65.0398 187.508 65.1332C187.511 65.1418 187.511 65.1501 187.511 65.1588V86.5559C187.511 86.7045 187.451 86.7344 187.333 86.6456L171.602 74.7539ZM224.503 78.9595C224.517 78.9692 224.53 78.9778 224.544 78.9848L241.4 87.1874C241.42 87.1973 241.44 87.205 241.464 87.2103C241.615 87.2452 241.77 87.1515 241.807 87.0022C241.81 86.9813 241.814 86.9597 241.814 86.9381L241.716 74.9101C241.716 74.8068 241.659 74.7097 241.568 74.6542L235.247 70.6493C235.159 70.5938 235.044 70.5991 234.964 70.6626L224.507 78.6292C224.493 78.6392 224.483 78.6505 224.473 78.6628C224.399 78.7518 224.412 78.8858 224.503 78.9595Z" fill="#172B4D"/>
</svg>
