<svg width="24" height="24" viewBox="0 0 24 24" fill="none" xmlns="http://www.w3.org/2000/svg">
<path fill-rule="evenodd" clip-rule="evenodd" d="M11.8083 18.1332V19.0302C11.8083 19.7496 11.4497 20.3706 10.8267 20.7302C10.527 20.9033 10.1924 20.9998 9.8456 21C9.49843 21.0002 9.16399 20.9035 8.86403 20.7302L4.87533 18.4274C4.25225 18.0677 3.8938 17.4468 3.8938 16.7273V4.96305C3.8938 3.88056 4.7744 3 5.85686 3H14.6414C15.724 3 16.6046 3.88049 16.6046 4.96305V7.44293C16.6046 7.79868 16.3158 8.08752 15.96 8.08752C15.6042 8.08752 15.3156 7.79871 15.3156 7.44293V4.96305C15.3156 4.59134 15.0131 4.2889 14.6414 4.2889H6.94386L10.8267 6.53105C11.4495 6.8907 11.8083 7.51156 11.8083 8.23075V16.8441H14.6414C15.0131 16.8441 15.3156 16.5418 15.3156 16.1701V13.9962C15.3156 13.6402 15.604 13.3516 15.96 13.3516C16.3159 13.3516 16.6046 13.6403 16.6046 13.9962V16.1701C16.6046 17.2527 15.724 18.1332 14.6414 18.1332H11.8083ZM17.7807 11.211L17.0709 11.9208C16.8192 12.1725 16.8193 12.5806 17.0709 12.8323C17.192 12.9535 17.3553 13.0208 17.5266 13.0208C17.6981 13.0208 17.8612 12.9537 17.9825 12.8323L19.7924 11.0221C20.044 10.7705 20.044 10.3627 19.7924 10.111L17.9825 8.3012C17.7308 8.04948 17.3228 8.04959 17.0709 8.30117C16.8193 8.5526 16.8194 8.9608 17.0709 9.21231L17.7807 9.92197H13.0255C12.6694 9.92197 12.381 10.2105 12.381 10.5666C12.381 10.9227 12.6694 11.211 13.0255 11.211H17.7807V11.211Z" fill="#DC3545"/>
</svg>
