<svg width="34" height="34" viewBox="0 0 34 34" fill="none" xmlns="http://www.w3.org/2000/svg">
<g clip-path="url(#clip0_770_6391)">
<path fill-rule="evenodd" clip-rule="evenodd" d="M16.9985 13.8466C17.2159 13.8465 17.4283 13.782 17.6091 13.6611C17.7898 13.5403 17.9306 13.3686 18.0137 13.1677C18.0968 12.9668 18.1185 12.7458 18.0759 12.5326C18.0334 12.3194 17.9287 12.1236 17.7749 11.9699C17.6211 11.8163 17.4252 11.7117 17.212 11.6693C16.9987 11.627 16.7778 11.6489 16.5769 11.7322C16.3761 11.8154 16.2045 11.9564 16.0838 12.1372C15.9631 12.318 15.8988 12.5305 15.8988 12.7479C15.8993 13.0393 16.0154 13.3187 16.2215 13.5246C16.4277 13.7306 16.7071 13.8464 16.9985 13.8466ZM16.9985 10.5145C17.4401 10.5146 17.8717 10.6456 18.2389 10.891C18.606 11.1364 18.8921 11.4852 19.0611 11.8932C19.23 12.3012 19.2742 12.7501 19.1881 13.1832C19.1019 13.6163 18.8892 14.0142 18.577 14.3264C18.2647 14.6387 17.8669 14.8513 17.4338 14.9375C17.0006 15.0237 16.5517 14.9795 16.1437 14.8106C15.7357 14.6416 15.3869 14.3555 15.1415 13.9883C14.8961 13.6212 14.7651 13.1895 14.765 12.7479C14.7656 12.1558 15.0011 11.588 15.4198 11.1693C15.8385 10.7506 16.4063 10.5151 16.9985 10.5145ZM21.2064 13.1322L20.6556 13.2318C20.5507 13.2509 20.4533 13.2992 20.3746 13.3711C20.2959 13.443 20.2391 13.5356 20.2107 13.6384C20.1379 13.9001 20.0333 14.1518 19.899 14.3879C19.8466 14.4809 19.8214 14.5868 19.8264 14.6934C19.8313 14.8 19.8662 14.9031 19.927 14.9909L20.2463 15.4505L19.7021 15.9957L19.2415 15.6755C19.1539 15.6147 19.0509 15.5799 18.9444 15.5751C18.8379 15.5703 18.7322 15.5957 18.6395 15.6484C18.4031 15.7825 18.1513 15.8871 17.8895 15.9601C17.7867 15.9882 17.6939 16.045 17.622 16.1237C17.5501 16.2025 17.502 16.3 17.4834 16.405L17.3838 16.9558H16.6134L16.5138 16.405C16.4953 16.3 16.4473 16.2025 16.3755 16.1238C16.3037 16.045 16.211 15.9882 16.1082 15.9601C15.8463 15.8875 15.5944 15.7828 15.3582 15.6484C15.2654 15.5957 15.1595 15.5703 15.0529 15.5751C14.9462 15.5799 14.843 15.6147 14.7553 15.6755L14.2961 15.9957L13.7515 15.4505L14.0708 14.9909C14.1313 14.903 14.1659 14.7999 14.1709 14.6934C14.1758 14.5868 14.1508 14.481 14.0988 14.3879C13.9646 14.1518 13.8599 13.9001 13.7871 13.6384C13.7586 13.5356 13.7017 13.4429 13.6229 13.371C13.5441 13.2991 13.4466 13.2509 13.3417 13.2318L12.7905 13.1322V12.3627L13.3417 12.2631C13.4467 12.2442 13.5442 12.196 13.623 12.124C13.7018 12.0521 13.7587 11.9594 13.7871 11.8566C13.8601 11.5947 13.9647 11.3427 14.0988 11.1062C14.1508 11.0133 14.1758 10.9076 14.1709 10.8012C14.1659 10.6948 14.1313 10.5919 14.0708 10.5042L13.7515 10.0445L14.2961 9.49941L14.7553 9.8187C14.8429 9.87984 14.946 9.91491 15.0527 9.91986C15.1594 9.92481 15.2654 9.89943 15.3582 9.84665C15.5947 9.71311 15.8465 9.60892 16.1082 9.5364C16.211 9.50785 16.3036 9.45084 16.3753 9.37194C16.4471 9.29305 16.4951 9.19548 16.5138 9.09048L16.6134 8.53971H17.3838L17.4834 9.09048C17.5022 9.19551 17.5503 9.29308 17.6222 9.37197C17.694 9.45086 17.7867 9.50785 17.8895 9.5364C18.1512 9.609 18.403 9.71318 18.6395 9.84665C18.7322 9.89943 18.838 9.92481 18.9445 9.91986C19.0511 9.91491 19.1541 9.87983 19.2415 9.8187L19.7021 9.49941L20.2463 10.0445L19.927 10.5042C19.8662 10.5918 19.8313 10.6947 19.8264 10.8012C19.8215 10.9076 19.8466 11.0134 19.899 11.1062C20.0331 11.3427 20.1378 11.5947 20.2107 11.8566C20.239 11.9594 20.2958 12.0521 20.3745 12.124C20.4532 12.1959 20.5507 12.2441 20.6556 12.2631L21.2064 12.3627V13.1322ZM21.6357 11.2882C21.8333 11.3235 22.0122 11.4272 22.141 11.5812C22.2698 11.7352 22.3403 11.9296 22.3402 12.1303V13.3647C22.3405 13.5654 22.27 13.7599 22.1412 13.9139C22.0123 14.0679 21.8334 14.1715 21.6357 14.2067L21.1912 14.2869C21.1495 14.4012 21.1025 14.5127 21.0518 14.6233L21.3094 14.9951C21.4244 15.1596 21.4777 15.3593 21.46 15.5592C21.4423 15.7591 21.3547 15.9464 21.2126 16.0881L20.3388 16.9615C20.197 17.1034 20.0098 17.1909 19.8099 17.2086C19.6101 17.2264 19.4104 17.1733 19.2458 17.0587L18.8739 16.8006C18.7648 16.8519 18.6519 16.8974 18.538 16.9406L18.4574 17.3851C18.4223 17.5826 18.3188 17.7615 18.165 17.8903C18.0112 18.0191 17.8169 18.0897 17.6163 18.0896H16.3812C16.1804 18.0898 15.986 18.0194 15.832 17.8905C15.678 17.7617 15.5743 17.5828 15.5391 17.3852L15.4589 16.9406C15.3455 16.8975 15.2326 16.852 15.123 16.8007L14.7511 17.0588C14.5865 17.1734 14.3868 17.2264 14.187 17.2087C13.9872 17.1909 13.8 17.1034 13.6582 16.9616L12.7843 16.0882C12.6427 15.9462 12.5553 15.7591 12.5375 15.5594C12.5196 15.3597 12.5724 15.16 12.6866 14.9952L12.9456 14.6233C12.8943 14.5128 12.8478 14.4013 12.8056 14.287L12.3611 14.2068C12.1635 14.1716 11.9846 14.0679 11.8559 13.9139C11.7272 13.7599 11.6568 13.5654 11.6572 13.3647V12.1303C11.657 11.9296 11.7274 11.7353 11.8561 11.5813C11.9848 11.4273 12.1636 11.3236 12.3611 11.2882L12.8056 11.2076C12.8478 11.0938 12.8943 10.9823 12.9456 10.8712L12.688 10.4998C12.573 10.3355 12.5196 10.136 12.5372 9.93623C12.5548 9.73648 12.6423 9.54934 12.7843 9.40771L13.6581 8.53393C13.7998 8.39189 13.987 8.30425 14.1868 8.28638C14.3867 8.2685 14.5864 8.32154 14.7511 8.43618L15.123 8.69517C15.2325 8.6435 15.3454 8.59702 15.4588 8.55478L15.539 8.10986C15.5743 7.91249 15.6781 7.73387 15.8319 7.60531C15.9858 7.47676 16.18 7.40649 16.3806 7.40682H17.6157C17.8162 7.40651 18.0103 7.47679 18.1641 7.60535C18.3179 7.73391 18.4216 7.91253 18.4568 8.10986L18.5374 8.55478C18.6513 8.59702 18.7642 8.6435 18.8733 8.69517L19.2457 8.43618C19.4103 8.32152 19.61 8.26847 19.8098 8.28635C20.0095 8.30422 20.1966 8.39188 20.3382 8.53393L21.2121 9.40771C21.3541 9.54924 21.4418 9.73627 21.4596 9.93598C21.4775 10.1357 21.4245 10.3353 21.3098 10.4998L21.0512 10.8712C21.102 10.9823 21.149 11.0938 21.1907 11.2076L21.6357 11.2882ZM25.2819 17.8505C25.2818 18.0483 25.2033 18.2379 25.0636 18.3778C24.9239 18.5177 24.7344 18.5964 24.5366 18.5967H19.2059C19.1064 18.5968 19.0087 18.6231 18.9225 18.6728C18.8364 18.7225 18.7648 18.7939 18.7149 18.88L16.9985 21.8535L15.2826 18.88C15.2327 18.7939 15.1611 18.7225 15.0749 18.6728C14.9888 18.6231 14.8911 18.5968 14.7916 18.5967H9.46083C9.26299 18.5965 9.07331 18.5178 8.93341 18.3779C8.79352 18.2381 8.71483 18.0484 8.71462 17.8505V7.64442C8.71499 7.44663 8.79373 7.25704 8.93359 7.11718C9.07345 6.97732 9.26303 6.89858 9.46083 6.89821H24.5366C24.7343 6.89869 24.9237 6.97749 25.0634 7.11735C25.2031 7.25722 25.2817 7.44675 25.2819 7.64442V17.8505ZM24.5366 5.76532C25.035 5.76562 25.5128 5.96372 25.8652 6.31609C26.2175 6.66846 26.4156 7.14629 26.4159 7.64462V17.8505C26.4157 18.3489 26.2176 18.8267 25.8652 19.1791C25.5128 19.5315 25.035 19.7295 24.5366 19.7298H19.5332L17.4899 23.2702C17.4401 23.3563 17.3685 23.4278 17.2822 23.4776C17.196 23.5273 17.0983 23.5534 16.9987 23.5534C16.8992 23.5534 16.8014 23.5273 16.7152 23.4776C16.629 23.4278 16.5574 23.3563 16.5075 23.2702L14.4643 19.7298H9.46083C8.96255 19.7294 8.48482 19.5312 8.13249 19.1789C7.78016 18.8265 7.58201 18.3488 7.58153 17.8505V7.64442C7.58201 7.14615 7.78016 6.66842 8.13249 6.31608C8.48482 5.96375 8.96255 5.7656 9.46083 5.76513L24.5366 5.76532ZM28.1069 33.2556C28.139 33.4102 28.1107 33.5713 28.0278 33.7058C27.9449 33.8402 27.8138 33.9379 27.6612 33.9788C27.5086 34.0196 27.3462 34.0005 27.2072 33.9255C27.0683 33.8504 26.9633 33.725 26.9138 33.575L24.4313 26.0694H26.6187L28.1069 33.2556ZM7.08315 33.575C7.03367 33.7249 6.92872 33.8502 6.78982 33.9252C6.65092 34.0002 6.4886 34.0193 6.33611 33.9784C6.18362 33.9376 6.05252 33.84 5.96968 33.7056C5.88684 33.5713 5.85853 33.4103 5.89056 33.2557L7.37873 26.0696H9.56615L7.08315 33.575ZM23.7602 27.6516H10.2369L10.7597 26.0694H23.2375L23.7602 27.6516ZM2.00148 23.3782V3.93417H31.9965V23.3779C31.9958 23.7911 31.8313 24.1871 31.5391 24.4791C31.2469 24.7711 30.8508 24.9354 30.4376 24.9358H3.55891C3.14591 24.9354 2.74995 24.7711 2.45796 24.479C2.16597 24.1869 2.0018 23.7912 2.00148 23.3782ZM-0.00146484 2.45497V0.347238C-0.00044644 0.255461 0.0364645 0.16773 0.101365 0.10283C0.166265 0.0379293 0.253996 0.0010184 0.345773 0L33.6512 0C33.743 0.000916405 33.8308 0.0377925 33.8957 0.102713C33.9606 0.167633 33.9975 0.255423 33.9985 0.347238V2.45497C33.9973 2.54659 33.9603 2.63412 33.8954 2.69877C33.8305 2.76342 33.7428 2.80006 33.6512 2.80082H0.345773C0.254187 2.79996 0.166574 2.76329 0.101679 2.69865C0.0367846 2.63402 -0.000237025 2.54656 -0.00146484 2.45497Z" fill="#0291F7"/>
</g>
<defs>
<clipPath id="clip0_770_6391">
<rect width="34" height="34" fill="white"/>
</clipPath>
</defs>
</svg>
