<svg width="24" height="24" viewBox="0 0 24 24" fill="none" xmlns="http://www.w3.org/2000/svg">
<path fill-rule="evenodd" clip-rule="evenodd" d="M18.8202 12.0196C18.8202 15.5342 15.9711 18.3833 12.4565 18.3833C8.94199 18.3833 6.0929 15.5342 6.0929 12.0196C6.0929 8.5051 8.94199 5.65601 12.4565 5.65601C15.9711 5.65601 18.8202 8.5051 18.8202 12.0196ZM13.1636 11.7269L14.4561 13.0195L14.4559 13.0194C14.5847 13.1528 14.656 13.3314 14.6544 13.5168C14.6528 13.7021 14.5784 13.8795 14.4473 14.0106C14.3162 14.1417 14.1389 14.216 13.9535 14.2177C13.7681 14.2193 13.5895 14.148 13.4561 14.0192L11.9571 12.5202C11.825 12.387 11.7505 12.2073 11.7494 12.0197V9.89846C11.7494 9.71093 11.8239 9.53109 11.9565 9.39849C12.0891 9.26588 12.269 9.19139 12.4565 9.19139C12.644 9.19139 12.8239 9.26588 12.9565 9.39849C13.0891 9.53109 13.1636 9.71093 13.1636 9.89846V11.7269Z" fill="#62D68F"/>
<path d="M12.0039 2.00002C11.8142 2.00002 11.6322 2.0754 11.498 2.20959C11.3638 2.34379 11.2884 2.52579 11.2884 2.71556C11.2884 2.90534 11.3638 3.08734 11.498 3.22153C11.6322 3.35572 11.8142 3.43111 12.0039 3.43111C14.0071 3.42283 15.9506 4.11226 17.5007 5.38099C19.0508 6.64972 20.1109 8.41859 20.4987 10.3838C20.8866 12.3491 20.5781 14.388 19.6263 16.1506C18.6744 17.9131 17.1386 19.2892 15.2825 20.0427C13.4265 20.7961 11.366 20.8797 9.45497 20.2792C7.54394 19.6788 5.9016 18.4317 4.81 16.7521C3.71839 15.0725 3.24564 13.0653 3.47293 11.0751C3.70021 9.08485 4.61335 7.23588 6.05553 5.84566L6.00702 6.21574C5.98235 6.40394 6.03345 6.59423 6.14908 6.74475C6.26471 6.89528 6.4354 6.9937 6.6236 7.01837C6.8118 7.04304 7.00209 6.99194 7.15262 6.87631C7.30314 6.76067 7.40156 6.58998 7.42623 6.40178L7.70472 4.27331C7.72463 4.08593 7.67165 3.89808 7.55677 3.74872C7.44188 3.59936 7.27392 3.49995 7.08771 3.47111L4.95924 3.19283C4.86478 3.17781 4.76827 3.18188 4.67541 3.2048C4.58255 3.22771 4.49522 3.26902 4.4186 3.32626C4.34197 3.38351 4.2776 3.45553 4.22929 3.53808C4.18098 3.62063 4.14971 3.71203 4.13733 3.80687C4.12495 3.90172 4.13171 3.99808 4.15721 4.09026C4.18271 4.18245 4.22643 4.26859 4.28579 4.34359C4.34515 4.41858 4.41894 4.48092 4.50281 4.52691C4.58667 4.5729 4.67891 4.60161 4.77406 4.61134L5.21963 4.66973C3.51142 6.25483 2.41044 8.38675 2.10685 10.6972C1.80326 13.0077 2.31613 15.3517 3.55687 17.3243C4.79762 19.2969 6.68832 20.7742 8.9024 21.5011C11.1165 22.228 13.5149 22.1588 15.6834 21.3054C17.8519 20.4521 19.6543 18.8682 20.7792 16.8274C21.9042 14.7866 22.2811 12.4169 21.8448 10.1278C21.4085 7.83863 20.1864 5.77374 18.3897 4.28976C16.5929 2.80578 14.3343 1.9959 12.0039 2.00002V2.00002Z" fill="#62D68F"/>
</svg>
