<svg width="25" height="24" viewBox="0 0 25 24" fill="none" xmlns="http://www.w3.org/2000/svg">
<path d="M23.4822 12.3815L20.8131 2.4204C20.53 1.3639 19.4403 0.734687 18.3837 1.01782L4.27216 4.79898C3.21561 5.08208 2.58645 6.17185 2.86954 7.22835L3.28426 8.77616C2.25996 8.8528 1.45 9.71034 1.45 10.7539V21.0664C1.45 22.1602 2.3398 23.05 3.43359 23.05H18.043C19.1368 23.05 20.0265 22.1602 20.0265 21.0664V15.361L22.0796 14.811C23.1361 14.5278 23.7653 13.438 23.4822 12.3815ZM8.09938 8.7703L20.2072 5.52602L20.5149 6.67457L12.6936 8.7703H8.09938ZM4.6317 6.14072L18.7433 2.35952C19.0599 2.27467 19.3866 2.46328 19.4714 2.77993L19.8477 4.18428L4.58755 8.27321L4.21124 6.86887C4.21124 6.86887 4.21124 6.86887 4.21124 6.86886C4.12643 6.55226 4.31505 6.22557 4.6317 6.14072ZM18.6375 21.0664C18.6375 21.3942 18.3707 21.6609 18.043 21.6609H3.43359C3.10581 21.6609 2.83906 21.3942 2.83906 21.0664V10.7539C2.83906 10.4261 3.10581 10.1594 3.43359 10.1594H18.043C18.3707 10.1594 18.6375 10.4261 18.6375 10.7539V21.0664ZM21.72 13.4692L20.0265 13.923V10.7539C20.0265 9.66585 19.1461 8.77967 18.0602 8.77037L20.8744 8.01631L22.1404 12.7411C22.2253 13.0576 22.0366 13.3844 21.72 13.4692Z" fill="white" stroke="white" stroke-width="0.1"/>
<path d="M4.72266 15.2651H9.01953C9.37548 15.2651 9.66406 14.9766 9.66406 14.6206V12.0425C9.66406 11.6865 9.37548 11.3979 9.01953 11.3979H4.72266C4.3667 11.3979 4.07812 11.6865 4.07812 12.0425V14.6206C4.07812 14.9766 4.3667 15.2651 4.72266 15.2651ZM5.36719 12.687H8.375V13.9761H5.36719V12.687Z" fill="white"/>
<path d="M16.7539 11.3979H14.6055C14.2495 11.3979 13.9609 11.6865 13.9609 12.0425C13.9609 12.3984 14.2495 12.687 14.6055 12.687H16.7539C17.1099 12.687 17.3984 12.3984 17.3984 12.0425C17.3984 11.6865 17.1099 11.3979 16.7539 11.3979Z" fill="white"/>
<path d="M16.7539 13.9761H14.6055C14.2495 13.9761 13.9609 14.2647 13.9609 14.6206C13.9609 14.9766 14.2495 15.2651 14.6055 15.2651H16.7539C17.1099 15.2651 17.3984 14.9766 17.3984 14.6206C17.3984 14.2647 17.1099 13.9761 16.7539 13.9761Z" fill="white"/>
<path d="M9.01953 19.1323H4.72266C4.3667 19.1323 4.07812 19.4209 4.07812 19.7769C4.07812 20.1328 4.3667 20.4214 4.72266 20.4214H9.01953C9.37548 20.4214 9.66406 20.1328 9.66406 19.7769C9.66406 19.4209 9.37548 19.1323 9.01953 19.1323Z" fill="white"/>
<path d="M4.72266 17.8433H6.01172C6.36767 17.8433 6.65625 17.5547 6.65625 17.1987C6.65625 16.8428 6.36767 16.5542 6.01172 16.5542H4.72266C4.3667 16.5542 4.07812 16.8428 4.07812 17.1987C4.07812 17.5547 4.3667 17.8433 4.72266 17.8433Z" fill="white"/>
<path d="M9.8789 16.5542H8.58984C8.23389 16.5542 7.94531 16.8428 7.94531 17.1987C7.94531 17.5547 8.23389 17.8433 8.58984 17.8433H9.8789C10.2349 17.8433 10.5234 17.5547 10.5234 17.1987C10.5234 16.8428 10.2349 16.5542 9.8789 16.5542Z" fill="white"/>
<path d="M13.7461 16.5542H12.457C12.1011 16.5542 11.8125 16.8428 11.8125 17.1987C11.8125 17.5547 12.1011 17.8433 12.457 17.8433H13.7461C14.102 17.8433 14.3906 17.5547 14.3906 17.1987C14.3906 16.8428 14.102 16.5542 13.7461 16.5542Z" fill="white"/>
</svg>
