<svg width="24" height="24" viewBox="0 0 24 24" fill="none" xmlns="http://www.w3.org/2000/svg">
<path d="M20.9459 12.3228L18.7621 4.17273C18.5363 3.33014 17.6672 2.82829 16.8246 3.0541L5.27872 6.14778C4.4361 6.37355 3.93428 7.24276 4.16005 8.08535L4.51235 9.40019C3.67222 9.43682 3 10.1315 3 10.9805V19.418C3 20.2903 3.7097 21 4.58203 21H16.5351C17.4075 21 18.1172 20.2903 18.1172 19.418V14.7186L19.8272 14.2604C20.6699 14.0345 21.1717 13.1654 20.9459 12.3228ZM18.3348 6.65301L18.6078 7.67177L12.1637 9.39843H8.08876L18.3348 6.65301ZM5.55171 7.16654L17.0975 4.07282C17.3784 3.99755 17.6681 4.16482 17.7434 4.44572L18.0619 5.63425L5.49725 9.00092L5.17877 7.81239C5.10354 7.53153 5.27081 7.24181 5.55171 7.16654ZM17.0625 19.418C17.0625 19.7087 16.8259 19.9453 16.5351 19.9453H4.58203C4.29125 19.9453 4.05469 19.7087 4.05469 19.418V10.9805C4.05469 10.6897 4.29125 10.4531 4.58203 10.4531H16.5351C16.8259 10.4531 17.0625 10.6897 17.0625 10.9805V19.418ZM19.5543 13.2416L18.1172 13.6267V10.9805C18.1172 10.1081 17.4075 9.39843 16.5351 9.39843H16.2387L18.8807 8.69053L19.9271 12.5958C20.0024 12.8766 19.8351 13.1663 19.5543 13.2416Z" fill="#62D68F"/>
<path d="M8.625 12.562H6.16406V13.6167H8.625V12.562Z" fill="#62D68F"/>
<path fill-rule="evenodd" clip-rule="evenodd" d="M17.3182 10.3636H3.40909V20.1818H17.3182V10.3636ZM13.7227 11.5073H15.4805C15.7717 11.5073 16.0078 11.7434 16.0078 12.0347C16.0078 12.3259 15.7717 12.562 15.4805 12.562H13.7227C13.4314 12.562 13.1953 12.3259 13.1953 12.0347C13.1953 11.7434 13.4314 11.5073 13.7227 11.5073ZM15.4805 13.6167H13.7227C13.4314 13.6167 13.1953 13.8528 13.1953 14.144C13.1953 14.4353 13.4314 14.6714 13.7227 14.6714H15.4805C15.7717 14.6714 16.0078 14.4353 16.0078 14.144C16.0078 13.8528 15.7717 13.6167 15.4805 13.6167ZM5.63672 17.8355H9.15234C9.44357 17.8355 9.67968 18.0716 9.67968 18.3628C9.67968 18.654 9.44357 18.8901 9.15234 18.8901H5.63672C5.34548 18.8901 5.10937 18.654 5.10937 18.3628C5.10937 18.0716 5.34548 17.8355 5.63672 17.8355ZM5.63672 16.7808H6.6914C6.98264 16.7808 7.21875 16.5447 7.21875 16.2534C7.21875 15.9622 6.98264 15.7261 6.6914 15.7261H5.63672C5.34548 15.7261 5.10937 15.9622 5.10937 16.2534C5.10937 16.5447 5.34548 16.7808 5.63672 16.7808ZM8.80078 15.7261H9.85547C10.1467 15.7261 10.3828 15.9622 10.3828 16.2534C10.3828 16.5447 10.1467 16.7808 9.85547 16.7808H8.80078C8.50955 16.7808 8.27344 16.5447 8.27344 16.2534C8.27344 15.9622 8.50955 15.7261 8.80078 15.7261ZM13.0195 15.7261H11.9648C11.6736 15.7261 11.4375 15.9622 11.4375 16.2534C11.4375 16.5447 11.6736 16.7808 11.9648 16.7808H13.0195C13.3108 16.7808 13.5469 16.5447 13.5469 16.2534C13.5469 15.9622 13.3108 15.7261 13.0195 15.7261ZM9.15234 14.6714H5.63672C5.34548 14.6714 5.10937 14.4353 5.10937 14.144V12.0347C5.10937 11.7434 5.34548 11.5073 5.63672 11.5073H9.15234C9.44357 11.5073 9.67968 11.7434 9.67968 12.0347V14.144C9.67968 14.4353 9.44357 14.6714 9.15234 14.6714Z" fill="#62D68F"/>
</svg>
