<svg width="24" height="24" viewBox="0 0 24 24" fill="none" xmlns="http://www.w3.org/2000/svg">
<path d="M17.3494 8.45631C15.5733 6.68022 12.6933 6.68057 10.9172 8.45631C9.1415 10.2324 9.14115 13.1124 10.9172 14.8885C12.6992 16.6704 15.5811 16.6583 17.3491 14.8881C19.1195 13.1199 19.131 10.2379 17.3494 8.45631ZM16.9416 11.099L14.9476 13.0931C14.7415 13.2992 14.4072 13.2983 14.2019 13.0931L13.1834 12.0746L12.1329 13.1251C11.9282 13.3298 11.5938 13.3319 11.3869 13.1251C11.1813 12.919 11.1813 12.5854 11.3869 12.3794L12.8104 10.9559C13.0168 10.7496 13.3504 10.7499 13.5564 10.9559L14.5749 11.9744L16.196 10.3533C16.4016 10.1473 16.7356 10.1473 16.9416 10.3533C17.1476 10.5594 17.1476 10.893 16.9416 11.099ZM20.5972 18.1855C20.06 18.7226 19.1881 18.7227 18.6509 18.1855L16.9701 16.5046H16.9704C17.7682 16.0366 18.4473 15.3671 18.929 14.571L20.5972 16.2392C21.1344 16.7767 21.1344 17.6479 20.5972 18.1855ZM6.02279 6.02279H3.30908L6.02279 3.30908V6.02279Z" fill="#62D68F"/>
<path d="M14.1336 6.06949C14.6996 6.06949 15.2544 6.15316 15.7895 6.31875V3.52734C15.7895 3.23625 15.5532 3 15.2621 3H7.07742V6.55008C7.07742 6.84117 6.84117 7.07742 6.55008 7.07742H3V20.4727C3 20.7637 3.23625 21 3.52734 21H15.2621C15.5532 21 15.7895 20.7637 15.7895 20.4727V17.0252C15.2528 17.1909 14.6943 17.2752 14.1326 17.2752C11.0388 17.2752 8.53043 14.7679 8.53043 11.6723C8.53043 8.58703 11.0293 6.06949 14.1336 6.06949ZM7.02961 16.7461H4.82812C4.53703 16.7461 4.30078 16.5098 4.30078 16.2188C4.30078 15.9277 4.53703 15.6914 4.82812 15.6914H7.02961C7.32105 15.6914 7.55695 15.9277 7.55695 16.2188C7.55695 16.5098 7.32105 16.7461 7.02961 16.7461ZM7.02961 14.6367H4.82812C4.53703 14.6367 4.30078 14.4005 4.30078 14.1094C4.30078 13.8183 4.53703 13.582 4.82812 13.582H7.02961C7.32105 13.582 7.55695 13.8183 7.55695 14.1094C7.55695 14.4005 7.32105 14.6367 7.02961 14.6367ZM7.02961 12.5273H4.82812C4.53703 12.5273 4.30078 12.2911 4.30078 12C4.30078 11.7089 4.53703 11.4727 4.82812 11.4727H7.02961C7.32105 11.4727 7.55695 11.7089 7.55695 12C7.55695 12.2911 7.32105 12.5273 7.02961 12.5273ZM7.02961 10.418H4.82812C4.53703 10.418 4.30078 10.1817 4.30078 9.89062C4.30078 9.59953 4.53703 9.36328 4.82812 9.36328H7.02961C7.32105 9.36328 7.55695 9.59953 7.55695 9.89062C7.55695 10.1817 7.32105 10.418 7.02961 10.418Z" fill="#62D68F"/>
</svg>
