<svg width="24" height="24" viewBox="0 0 24 24" fill="none" xmlns="http://www.w3.org/2000/svg">
<path d="M6.0335 3.33337C5.31741 3.33337 4.63066 3.61784 4.12431 4.12419C3.61796 4.63053 3.3335 5.31729 3.3335 6.03337V18.6334C3.3335 19.3495 3.61796 20.0362 4.12431 20.5426C4.63066 21.0489 5.31741 21.3334 6.0335 21.3334H12.6863C11.9261 20.8748 11.2709 20.2615 10.763 19.5334H6.0335C5.7948 19.5334 5.56588 19.4386 5.3971 19.2698C5.22832 19.101 5.1335 18.8721 5.1335 18.6334C5.1335 18.3947 5.22832 18.1658 5.3971 17.997C5.56588 17.8282 5.7948 17.7334 6.0335 17.7334H9.8945C9.56946 16.6447 9.54489 15.4884 9.82337 14.3869C10.1019 13.2854 10.673 12.2797 11.4764 11.4763C12.2798 10.6729 13.2855 10.1017 14.387 9.82325C15.4885 9.54476 16.6448 9.56934 17.7335 9.89437V6.03337C17.7335 5.31729 17.449 4.63053 16.9427 4.12419C16.4363 3.61784 15.7496 3.33337 15.0335 3.33337H6.0335Z" fill="#62D68F"/>
<path fill-rule="evenodd" clip-rule="evenodd" d="M15.9334 10.5333C14.5013 10.5333 13.1278 11.1023 12.1151 12.1149C11.1024 13.1276 10.5334 14.5012 10.5334 15.9333C10.5334 17.3655 11.1024 18.739 12.1151 19.7517C13.1278 20.7644 14.5013 21.3333 15.9334 21.3333C17.3656 21.3333 18.7391 20.7644 19.7518 19.7517C20.7645 18.739 21.3334 17.3655 21.3334 15.9333C21.3334 14.5012 20.7645 13.1276 19.7518 12.1149C18.7391 11.1023 17.3656 10.5333 15.9334 10.5333ZM16.9162 13.8435C16.7543 13.681 16.5365 13.5865 16.3073 13.5792C16.078 13.5719 15.8546 13.6525 15.6827 13.8043C15.5108 13.9562 15.4034 14.168 15.3825 14.3964C15.3615 14.6249 15.4285 14.8527 15.5698 15.0333H14.1334C13.8948 15.0333 13.6658 15.1281 13.4971 15.2969C13.3283 15.4657 13.2334 15.6946 13.2334 15.9333C13.2334 16.172 13.3283 16.4009 13.4971 16.5697C13.6658 16.7385 13.8948 16.8333 14.1334 16.8333H15.5698C15.4285 17.014 15.3615 17.2418 15.3825 17.4702C15.4034 17.6986 15.5108 17.9104 15.6827 18.0623C15.8546 18.2142 16.078 18.2947 16.3073 18.2874C16.5365 18.2802 16.7543 18.1856 16.9162 18.0231L18.3697 16.5696C18.5385 16.4009 18.6333 16.172 18.6333 15.9333C18.6333 15.6947 18.5385 15.4658 18.3697 15.297L16.9162 13.8435Z" fill="#62D68F"/>
</svg>
