<svg width="161" height="61" viewBox="0 0 161 61" fill="none" xmlns="http://www.w3.org/2000/svg">
<path fill-rule="evenodd" clip-rule="evenodd" d="M39.3213 2.80835C35.1722 2.91711 31.6417 4.30914 28.7295 6.98458C27.9309 7.71714 27.2212 8.51097 26.6006 9.36621C24.5821 12.1461 23.5728 15.3722 23.5728 19.0446C23.5728 29.0946 23.5616 39.1448 23.5392 49.1948C23.5371 50.2365 23.5216 50.8897 23.4928 51.1541C23.1793 54.0385 21.8758 56.3481 19.5821 58.0831C19.4861 58.1555 19.4978 58.1918 19.6173 58.1918C22.1881 58.1918 24.7596 58.1834 27.3316 58.1662C31.149 58.1407 34.2712 56.6863 36.6981 53.8029C37.9873 52.2717 38.8142 50.5048 39.1789 48.5022C39.3048 47.8101 39.3676 46.7476 39.3676 45.3144V9.0879L39.3948 5.97051C39.4033 4.93085 39.3943 3.89168 39.3676 2.85314C39.3668 2.82834 39.346 2.80835 39.3213 2.80835ZM4.54227 45.9846C4.90167 47.9221 5.84536 49.5802 7.37334 50.959C9.08366 52.502 11.0446 53.2734 13.2562 53.2734H19.2974C19.3763 53.2734 19.3843 53.2494 19.3214 53.2015C17.3701 51.7151 16.3683 49.7263 16.316 47.2354C16.3021 46.5465 16.2952 45.4803 16.2952 44.0365V26.5238C16.2952 25.0534 16.2388 23.9897 16.1257 23.3328C15.7759 21.3036 14.925 19.4749 13.5729 17.8466C11.2813 15.0838 8.25193 13.6277 4.48469 13.4784H4.48467C4.48388 13.4784 4.48308 13.4784 4.48213 13.4783C4.42695 13.4772 4.3804 13.5215 4.37912 13.5768V13.5792V42.7953C4.37912 44.3383 4.4335 45.4013 4.54227 45.9846Z" fill="#52B69A"/>
<path d="M157.434 13.2793C157.458 13.3016 157.458 13.3381 157.434 13.3604L150.496 20.2086C150.472 20.2309 150.435 20.2309 150.414 20.2086L147.453 17.2861C147.429 17.2638 147.429 17.2273 147.453 17.205L154.391 10.3568C154.415 10.3345 154.451 10.3345 154.473 10.3568L157.434 13.2793Z" fill="#172B4D"/>
<path d="M63.3598 25.0419L53.9722 25.0291C53.8766 25.0291 53.7979 24.9525 53.7979 24.8592V21.529C53.7979 21.4685 53.8484 21.4185 53.9098 21.4185H73.9483C73.9542 21.4185 73.9602 21.4181 73.966 21.4173C74.0243 21.4083 74.0646 21.3525 74.0553 21.2939C74.0544 21.2886 74.0531 21.2835 74.0516 21.2784C73.3214 19.0341 71.8608 17.4703 69.6699 16.5867C68.2996 16.0345 66.7393 15.7187 64.989 15.6395C61.9142 15.5008 58.8827 15.7903 55.894 16.5082C55.8917 16.5088 55.8893 16.5092 55.8867 16.5097C55.8366 16.5177 55.7888 16.4846 55.7808 16.4364C55.7804 16.434 55.7802 16.4319 55.78 16.4296C55.6954 15.3889 55.6997 14.3488 55.7929 13.3096C55.7983 13.2444 55.8439 13.1892 55.9069 13.1716C59.6317 12.1054 63.2866 11.7216 66.8721 12.0204C67.7216 12.0912 68.6498 12.2704 69.657 12.5578C70.6571 12.8439 71.5293 13.1901 72.274 13.5963C74.8537 15.0023 76.6142 17.1553 77.5553 20.055C78.0675 21.6324 78.3049 23.2253 78.2677 24.8337C78.2653 24.9416 78.1739 25.0291 78.0632 25.0291H68.0407C67.9643 25.0291 67.901 25.0899 67.8987 25.1651C67.847 27.1558 67.8384 29.1027 67.8729 31.0057C67.8901 31.9514 67.9691 32.5958 68.1096 32.9384C68.4038 33.6505 68.9775 34.0762 69.8313 34.2148C70.6076 34.3408 71.5315 34.2355 72.6033 33.8984C74.6592 33.25 76.5854 32.3762 78.3817 31.2775C78.3858 31.275 78.3899 31.2727 78.3942 31.2707C78.4539 31.2425 78.5264 31.2676 78.555 31.3264C78.5571 31.3304 78.5589 31.3347 78.5604 31.3391C79.0252 32.6729 79.3395 34.0088 79.503 35.3469C79.6823 36.8096 79.709 38.171 79.5826 39.4311C79.4047 41.2151 78.8774 42.883 78.0008 44.4349C77.2648 45.739 76.3566 46.8221 75.2762 47.6844C73.8186 48.8511 72.1248 49.5959 70.195 49.9187C69.3529 50.0589 68.4066 50.1269 67.3563 50.1226C62.296 50.1014 58.5519 47.9981 56.1243 43.8126C55.3037 42.3966 54.7254 40.7549 54.3897 38.8874C53.9707 36.5611 53.9349 34.0343 54.2821 31.3073C54.2896 31.2467 54.3417 31.2007 54.4026 31.2011L58.4206 31.1905C58.4239 31.1905 58.4271 31.1905 58.4305 31.1907C58.5319 31.1953 58.6113 31.2826 58.6066 31.3837C58.6064 31.3873 58.6062 31.391 58.6057 31.3944C58.3761 33.4348 58.3675 35.4191 58.5799 37.3476C58.7118 38.5469 59.0002 39.6951 59.4451 40.7925C59.9213 41.9706 60.5356 42.9673 61.2873 43.7829C63.1338 45.7835 65.6051 46.6119 68.7014 46.2678C71.0085 46.0114 72.7503 45.0502 73.9268 43.3836C74.5451 42.5071 74.985 41.4332 75.2461 40.1617C75.4785 39.036 75.5523 37.8615 75.4678 36.6382C75.4673 36.6312 75.466 36.6242 75.4639 36.6176C75.4486 36.5662 75.3931 36.5364 75.341 36.5515C75.3341 36.5537 75.3277 36.5562 75.3214 36.5596C73.6012 37.4926 71.8377 37.9747 70.0314 38.006C68.6369 38.0287 67.4338 37.7632 66.4223 37.2095C65.2128 36.5469 64.3763 35.5607 63.9129 34.251C63.6648 33.5501 63.5283 32.3783 63.504 30.736C63.4739 28.8727 63.4616 27.0101 63.4674 25.1481V25.147C63.4681 25.0899 63.4201 25.0425 63.3609 25.0419H63.3598Z" fill="#172B4D"/>
<path d="M85.8045 36.7677C84.3066 35.4919 83.3102 33.96 82.8152 32.1717C82.4278 30.7714 82.3131 29.3994 82.4708 28.0556C82.6445 26.5789 83.217 25.2719 84.1882 24.135C84.9228 23.2754 85.8094 22.6085 86.8483 22.1343C87.8626 21.6728 88.9696 21.3988 90.169 21.3124C91.5421 21.2147 92.814 21.3266 93.9848 21.6479C96.7767 22.4168 98.5387 24.0897 99.2704 26.6666C99.4986 27.4709 99.6019 28.2999 99.5803 29.1537C99.5603 30.0102 99.4248 30.8458 99.1736 31.6598C99.1133 31.8523 98.9321 31.9844 98.7281 31.9848H94.865C94.8555 31.9848 94.8461 31.9841 94.8368 31.9824C94.7565 31.9678 94.7027 31.8909 94.7174 31.8117C94.7191 31.8028 94.7217 31.7938 94.7251 31.7851C95.1469 30.7047 95.3219 29.5493 95.2502 28.319C95.1512 26.6396 94.35 25.5473 92.8463 25.0419C92.0199 24.7643 91.1648 24.7063 90.2809 24.8677C89.4044 25.0264 88.6819 25.3704 88.1137 25.8999C87.461 26.5088 87.0921 27.267 87.0075 28.1746C86.7607 30.8224 87.6848 32.9639 89.7795 34.5993C90.5198 35.177 91.2178 35.6569 91.8735 36.0392C93.301 36.8733 94.7223 37.7192 96.1369 38.5773C96.9547 39.0728 97.7323 39.6207 98.4698 40.2211C99.3092 40.9035 99.9692 41.5804 100.45 42.2516C101.589 43.843 102.197 45.695 102.275 47.8076C102.319 49.0252 102.326 49.9145 102.294 50.4752C102.291 50.5359 102.242 50.5845 102.182 50.5856L97.9576 50.6345C97.8972 50.6357 97.8449 50.5896 97.8371 50.5283C97.771 49.9011 97.7375 49.2724 97.736 48.6423C97.7317 47.797 97.6822 47.1732 97.5875 46.7711C97.1155 44.7775 95.9712 43.2067 94.1548 42.0583C92.7359 41.1592 91.2866 40.3097 89.8075 39.5096C88.3741 38.7338 87.0398 37.8197 85.8045 36.7677Z" fill="#172B4D"/>
<path fill-rule="evenodd" clip-rule="evenodd" d="M105.664 25.008C109.893 25.0659 114.121 25.095 118.349 25.095C118.409 25.095 118.459 25.1415 118.459 25.1991L118.468 27.89C118.468 27.9775 118.405 28.0538 118.317 28.0727C116.841 28.3813 115.468 28.8203 114.2 29.3895C110.603 31.0079 107.354 33.1409 104.453 35.7887C104.402 35.8348 104.373 35.8996 104.373 35.9671V40.149C104.373 40.2556 104.424 40.3559 104.511 40.4187L118.278 50.5156C118.373 50.5859 118.491 50.6239 118.616 50.6239L122.628 50.66H122.63C122.679 50.6607 122.72 50.6218 122.72 50.574V50.5729L122.787 31.8383V31.8372C122.787 31.7801 122.836 31.7336 122.895 31.7342C124.704 31.754 126.273 32.1781 127.603 33.0064C128.583 33.6181 129.149 34.4853 129.299 35.6082C129.37 36.1391 129.383 36.6962 129.336 37.2797C129.282 37.9183 129.108 38.4584 128.813 38.9002C128.316 39.645 127.612 40.0711 126.704 40.1787C126.293 40.2282 125.806 40.2594 125.249 40.2722C125.1 40.2756 124.98 40.3983 124.98 40.5462V43.6045C124.98 43.6158 124.976 43.6916 124.967 43.8318C124.948 44.1589 125.1 44.3097 125.421 44.2842C125.671 44.2644 125.808 44.2544 125.834 44.2544C127.89 44.2869 129.626 43.7326 131.047 42.5914C132.474 41.4431 133.304 39.9075 133.535 37.9848C133.868 35.2138 133.173 32.9803 131.449 31.284C130.56 30.4075 129.351 29.6607 127.825 29.0433C126.271 28.4161 124.646 28.0529 122.95 27.9538C122.851 27.948 122.774 27.8671 122.776 27.7711L122.785 25.1991C122.785 25.142 122.834 25.095 122.895 25.095L137.548 25.0823C137.65 25.0823 137.731 25.1638 137.731 25.2628V28.13C137.731 28.2082 137.772 28.2825 137.841 28.3276L145.221 33.2273C145.225 33.2297 145.227 33.2324 145.232 33.2356C145.264 33.2651 145.264 33.3161 145.234 33.3482C145.231 33.3501 145.229 33.3519 145.227 33.3536C145.226 33.3547 145.225 33.3558 145.223 33.3569L137.757 38.8258C137.673 38.887 137.624 38.9841 137.624 39.0871V43.1755C137.624 43.2879 137.69 43.3915 137.794 43.441C142.763 45.7715 147.698 48.0853 152.598 50.3818C152.919 50.5332 153.259 50.6112 153.614 50.6154C154.86 50.6296 156.108 50.6275 157.357 50.609C157.415 50.609 157.464 50.561 157.464 50.5029L157.477 21.5907C157.477 21.5254 157.423 21.4717 157.357 21.4717H105.019C104.937 21.4717 104.87 21.5369 104.87 21.6161L104.857 24.6997C104.857 24.7096 104.858 24.909 104.86 24.919C104.876 25.0283 104.981 25.1052 105.094 25.0891C105.104 25.0876 105.114 25.0853 105.124 25.0823C105.301 25.0298 105.481 25.0052 105.664 25.008ZM140.589 25.0824C140.443 25.0824 140.43 25.1234 140.551 25.2056L152.958 33.6437C153.093 33.7372 153.16 33.7025 153.16 33.5396V25.2523C153.16 25.1591 153.08 25.0824 152.986 25.0824H140.589ZM108.303 38.1633C108.3 38.1612 108.298 38.1591 108.295 38.1567C108.252 38.1181 108.25 38.051 108.29 38.0081C108.292 38.0059 108.294 38.0038 108.296 38.0019C109.377 37.0234 110.441 36.152 111.488 35.3874C113.569 33.8652 115.847 32.712 118.323 31.9276C118.33 31.9259 118.334 31.9244 118.341 31.9236C118.401 31.9143 118.459 31.9557 118.468 32.0153C118.47 32.0209 118.47 32.0262 118.47 32.0317V45.7052C118.47 45.8001 118.431 45.8192 118.356 45.7625L108.303 38.1633ZM142.109 40.8508C142.117 40.857 142.126 40.8625 142.135 40.867L152.906 46.1087C152.919 46.1151 152.932 46.1199 152.947 46.1233C153.044 46.1456 153.143 46.0857 153.166 45.9904C153.169 45.977 153.171 45.9632 153.171 45.9494L153.108 38.2631C153.108 38.1971 153.072 38.1351 153.014 38.0996L148.974 35.5403C148.918 35.5049 148.845 35.5083 148.793 35.5488L142.111 40.6397C142.102 40.6461 142.096 40.6533 142.089 40.6612C142.042 40.7181 142.051 40.8037 142.109 40.8508Z" fill="#172B4D"/>
</svg>
